<?xml version="1.0" encoding="utf-8"?>
<!-- Generator: Adobe Illustrator 21.1.0, SVG Export Plug-In . SVG Version: 6.00 Build 0)  -->
<svg version="1.1" xmlns="http://www.w3.org/2000/svg" xmlns:xlink="http://www.w3.org/1999/xlink" x="0px" y="0px"
	 viewBox="0 0 238.9 38.4" style="enable-background:new 0 0 238.9 38.4;" xml:space="preserve">
<style type="text/css">
	.st0{fill:#fff;}
</style>
<g id="レイヤー_1">
	<g>
		<g>
			<path class="st0" d="M52.5,22.7l2.8-0.3c0.2,0.9,0.5,1.6,1,2.1s1.2,0.7,2.1,0.7c0.9,0,1.6-0.2,2.1-0.6c0.5-0.4,0.7-0.8,0.7-1.4
				c0-0.3-0.1-0.6-0.3-0.9c-0.2-0.2-0.5-0.4-1-0.6c-0.3-0.1-1.1-0.3-2.3-0.6c-1.5-0.4-2.6-0.8-3.2-1.4c-0.9-0.8-1.3-1.7-1.3-2.9
				c0-0.7,0.2-1.4,0.6-2c0.4-0.6,1-1.1,1.8-1.4c0.8-0.3,1.7-0.5,2.8-0.5c1.8,0,3.1,0.4,4,1.2c0.9,0.8,1.4,1.8,1.4,3.1l-2.9,0.1
				c-0.1-0.7-0.4-1.3-0.8-1.6c-0.4-0.3-1-0.5-1.8-0.5c-0.8,0-1.5,0.2-2,0.5c-0.3,0.2-0.5,0.5-0.5,0.9c0,0.3,0.1,0.6,0.4,0.9
				c0.4,0.3,1.2,0.6,2.6,1c1.4,0.3,2.4,0.7,3.1,1c0.7,0.4,1.2,0.8,1.6,1.4s0.6,1.4,0.6,2.3c0,0.8-0.2,1.6-0.7,2.3
				c-0.5,0.7-1.1,1.2-1.9,1.6c-0.8,0.3-1.9,0.5-3.1,0.5c-1.8,0-3.2-0.4-4.1-1.2C53.3,25.5,52.7,24.3,52.5,22.7z"/>
			<path class="st0" d="M68.5,27.3V13.1h4.3l2.6,9.7l2.5-9.7h4.3v14.2h-2.7V16.1l-2.8,11.2h-2.8l-2.8-11.2v11.2H68.5z"/>
			<path class="st0" d="M99.8,27.3h-3.1l-1.2-3.2h-5.7l-1.2,3.2h-3l5.5-14.2h3L99.8,27.3z M94.5,21.7l-2-5.3l-1.9,5.3H94.5z"/>
			<path class="st0" d="M103.3,27.3V13.1h6c1.5,0,2.6,0.1,3.3,0.4c0.7,0.3,1.2,0.7,1.7,1.4s0.6,1.4,0.6,2.2c0,1.1-0.3,1.9-0.9,2.6
				c-0.6,0.7-1.6,1.1-2.8,1.3c0.6,0.4,1.1,0.8,1.5,1.2s0.9,1.2,1.6,2.3l1.7,2.8h-3.4l-2.1-3.1c-0.7-1.1-1.2-1.8-1.5-2.1
				c-0.3-0.3-0.6-0.5-0.9-0.6s-0.8-0.2-1.4-0.2h-0.6v5.9H103.3z M106.2,19.1h2.1c1.4,0,2.2-0.1,2.6-0.2c0.3-0.1,0.6-0.3,0.8-0.6
				c0.2-0.3,0.3-0.6,0.3-1.1c0-0.5-0.1-0.9-0.4-1.2c-0.3-0.3-0.6-0.5-1.1-0.6c-0.2,0-0.9,0-2.1,0h-2.2V19.1z"/>
			<path class="st0" d="M122.8,27.3V15.5h-4.2v-2.4h11.3v2.4h-4.2v11.8H122.8z"/>
			<path class="st0" d="M144.4,27.3V15.5h-4.2v-2.4h11.3v2.4h-4.2v11.8H144.4z"/>
			<path class="st0" d="M155.3,27.3V13.1h2.9v5.6h5.6v-5.6h2.9v14.2h-2.9v-6.2h-5.6v6.2H155.3z"/>
			<path class="st0" d="M170.5,27.3V13.1H181v2.4h-7.7v3.1h7.1v2.4h-7.1v3.9h7.9v2.4H170.5z"/>
			<path class="st0" d="M198.1,27.3H195l-1.2-3.2H188l-1.2,3.2h-3l5.5-14.2h3L198.1,27.3z M192.8,21.7l-2-5.3l-1.9,5.3H192.8z"/>
			<path class="st0" d="M202,27.3V15.5h-4.2v-2.4h11.3v2.4h-4.2v11.8H202z"/>
			<path class="st0" d="M212.1,27.3V13.1h10.5v2.4H215v3.1h7.1v2.4H215v3.9h7.9v2.4H212.1z"/>
			<path class="st0" d="M226.2,27.3V13.1h6c1.5,0,2.6,0.1,3.3,0.4c0.7,0.3,1.2,0.7,1.7,1.4s0.6,1.4,0.6,2.2c0,1.1-0.3,1.9-0.9,2.6
				c-0.6,0.7-1.6,1.1-2.8,1.3c0.6,0.4,1.1,0.8,1.5,1.2s0.9,1.2,1.6,2.3l1.7,2.8h-3.4l-2.1-3.1c-0.7-1.1-1.2-1.8-1.5-2.1
				c-0.3-0.3-0.6-0.5-0.9-0.6s-0.8-0.2-1.4-0.2H229v5.9H226.2z M229,19.1h2.1c1.4,0,2.2-0.1,2.6-0.2c0.3-0.1,0.6-0.3,0.8-0.6
				c0.2-0.3,0.3-0.6,0.3-1.1c0-0.5-0.1-0.9-0.4-1.2c-0.3-0.3-0.6-0.5-1.1-0.6c-0.2,0-0.9,0-2.1,0H229V19.1z"/>
		</g>
	</g>
	<g>
		<polygon class="st0" points="27.2,33.9 27,3.2 10.1,6.5 9.2,23.2 9.2,4.6 30.2,0 30.2,38.4 0,26 25.6,26 25.6,28.9 12.6,28.6 		
			"/>
		<polygon class="st0" points="32.4,26 47.6,27.3 32.4,28.8 		"/>
	</g>
</g>
<g id="レイヤー_2">
</g>
</svg>
