<svg xmlns="http://www.w3.org/2000/svg" viewBox="0 0 392.3 459.1"><defs><style>.cls-1{fill:none;stroke:#00a0e9;stroke-width:8px;}.cls-1,.cls-2{stroke-linecap:round;stroke-linejoin:round;}.cls-1,.cls-10{opacity:0.7;isolation:isolate;}.cls-2{fill:#37bef0;stroke:#37bef0;stroke-width:4px;}.cls-3{fill:#e6e6e6;stroke:#e6e6e6;}.cls-3,.cls-4,.cls-6,.cls-8,.cls-9{stroke-miterlimit:10;}.cls-4,.cls-7{fill:#fff;}.cls-4,.cls-8{stroke:#b5b5b6;}.cls-5{fill:#231815;}.cls-6{fill:#666464;stroke:#666464;}.cls-8{fill:#b5b5b6;}.cls-9{fill:#0068b7;stroke:#0068b7;}.cls-10{fill:#00a0e9;}</style></defs><title>アセット 1</title><g id="レイヤー_2" data-name="レイヤー 2"><g id="レイヤー_1-2" data-name="レイヤー 1"><g id="レイヤー_2-2" data-name="レイヤー 2"><g id="レイヤー_1-2-2" data-name="レイヤー 1-2"><g id="レイヤー_2-2-2" data-name="レイヤー 2-2"><g id="レイヤー_1-2-2-2" data-name="レイヤー 1-2-2"><rect class="cls-1" x="4" y="4" width="384.3" height="37.8"/><path class="cls-2" d="M262.4,20.7a11.83,11.83,0,0,0-10.3,17.6l35,62.6a7.06,7.06,0,0,1-2.9,9.5,7.27,7.27,0,0,1-4.6.7l-17.1-3.5a11.87,11.87,0,1,0-5,23.2h0l.4.1L313,147.1a5.74,5.74,0,0,1,3.3,2.6l7.2,12.9a5.18,5.18,0,0,0,4.6,2.7,4.84,4.84,0,0,0,2.6-.7l46.7-26.1a5.35,5.35,0,0,0,2-7.2l-10.3-18.5c-3.4-6.2-3.5-11.9-3.6-17.9-.1-7-.2-14.9-5.5-25.1h0L352.3,56a10.42,10.42,0,0,0-9.5-5.5,12.3,12.3,0,0,0-6.2,1.7,12.05,12.05,0,0,0-3.5,2.9,10.56,10.56,0,0,0-8.5-4.2,13.3,13.3,0,0,0-10.9,6,11,11,0,0,0-8-3.5,13,13,0,0,0-12.4,10l-.1-.2L272.9,26.8a12.26,12.26,0,0,0-10.5-6.1Z"/></g></g><g id="レイヤー_2-3" data-name="レイヤー 2-3"><g id="レイヤー_1-2-3" data-name="レイヤー 1-2-3"><rect class="cls-3" x="4" y="282.7" width="218.2" height="175.9"/><rect class="cls-4" x="14.7" y="294.2" width="61" height="24.3"/><path class="cls-5" d="M42.4,301.7h5.8v.7L44,311.6H43l4.2-9H42.5v-.9Z"/><rect class="cls-4" x="82.6" y="294.2" width="61.1" height="24.3"/><path class="cls-5" d="M111.9,306.3a2.8,2.8,0,0,1-1.6-2.2,2.65,2.65,0,0,1,2.6-2.6h.2a2.52,2.52,0,0,1,2.7,2.2h0v.2a2.77,2.77,0,0,1-1.6,2.4h0a2.76,2.76,0,0,1,2,2.6,3,3,0,0,1-3,2.9H113a2.8,2.8,0,0,1-3.1-2.4v-.2a3.48,3.48,0,0,1,2-2.9Zm3.2,2.7c0-1.2-.8-1.9-2.2-2.3a2.34,2.34,0,0,0-1.8,2.2,1.89,1.89,0,0,0,1.8,2h.2a1.88,1.88,0,0,0,2-1.7V309Zm-3.7-5c0,1.1.7,1.6,1.8,2a2,2,0,0,0,1.5-2,1.5,1.5,0,0,0-1.4-1.7h-.2a1.53,1.53,0,0,0-1.7,1.5h0v.2Z"/><rect class="cls-4" x="150.4" y="294.2" width="61.1" height="24.3"/><path class="cls-5" d="M182.9,306.9a2.84,2.84,0,0,1-2.3,1.1,2.8,2.8,0,0,1-2.8-2.8h0V305a3.26,3.26,0,0,1,3-3.5h.1c1.9,0,3,1.6,3,4.1,0,3.3-1.7,5.6-4.2,6a4.87,4.87,0,0,1-1.2.1v-.9a3.4,3.4,0,0,0,1-.1c1.8-.2,3-1.6,3.4-3.8Zm-3.9-2a1.94,1.94,0,0,0,1.7,2.2h.2a2,2,0,0,0,2.1-1.6c0-1.9-.7-3.2-2-3.2s-2,1.1-2,2.6Z"/><rect class="cls-4" x="14.7" y="325.5" width="61" height="24.3"/><path class="cls-5" d="M47.2,342.9h-1v-2.8H41.8v-.7L46,333h1.1v6.3h1.3v.9H47.1v2.7ZM43,339.3h3.2v-5.1h0c-.3.6-.5,1-.8,1.5L43,339.3Z"/><rect class="cls-4" x="82.6" y="325.5" width="61.1" height="24.3"/><path class="cls-5" d="M115.6,333v.9H112l-.4,2.8a2.15,2.15,0,0,1,.8,0,3,3,0,0,1,3.3,2.8h0v.2a3.4,3.4,0,0,1-3.2,3.4h-.2a4.65,4.65,0,0,1-2.3-.6l.3-.9a3.61,3.61,0,0,0,2,.6,2.24,2.24,0,0,0,2.3-2.2h0v-.2c0-1.4-.9-2.3-2.7-2.3a6.15,6.15,0,0,0-1.3.1l.6-4.6Z"/><rect class="cls-4" x="150.4" y="325.5" width="61.1" height="24.3"/><path class="cls-5" d="M178.9,337.7a2.68,2.68,0,0,1,2.3-1.2c1.7,0,2.8,1.3,2.8,3.2s-1.1,3.5-3,3.5-3.2-1.6-3.2-4.2,1.2-5.5,4.5-6c.3,0,.6-.1.9-.1v.9a4.18,4.18,0,0,0-4.3,3.9Zm4,2c0-1.5-.8-2.4-2-2.4a2.23,2.23,0,0,0-2.1,1.9c0,1.8.8,3.1,2.2,3.1a2.19,2.19,0,0,0,1.9-2.6Z"/><rect class="cls-4" x="14.7" y="356.8" width="61" height="24.3"/><path class="cls-5" d="M45,374.2v-8.9h0l-1.6.9-.3-.8,2.1-1.1h.9v9.9Z"/><rect class="cls-4" x="82.6" y="356.8" width="61.1" height="24.3"/><path class="cls-5" d="M116,374.2h-5.9v-.7l1-1c2.4-2.4,3.6-3.8,3.6-5.5a1.81,1.81,0,0,0-1.6-2h-.3a3.18,3.18,0,0,0-2,.8l-.4-.8a4,4,0,0,1,2.6-1,2.61,2.61,0,0,1,2.8,2.5v.3c0,1.9-1.3,3.5-3.4,5.5l-.8.8H116Z"/><rect class="cls-4" x="150.4" y="356.8" width="61.1" height="24.3"/><path class="cls-5" d="M181.4,368.8a2.59,2.59,0,0,1,2.2,2.6c0,1.6-1.1,3-3.4,3a5.33,5.33,0,0,1-2.4-.6l.3-.9a3.61,3.61,0,0,0,2,.6,2,2,0,0,0,2.2-1.8v-.3c0-1.5-1.2-2.1-2.5-2.1h-.6v-.8h.6a2,2,0,0,0,2.2-1.8h0a1.55,1.55,0,0,0-1.4-1.6h-.3a3.51,3.51,0,0,0-1.8.6l-.3-.8a4,4,0,0,1,2.4-.7,2.23,2.23,0,0,1,2.6,2v.3a2.27,2.27,0,0,1-1.8,2.3Z"/><rect class="cls-4" x="14.7" y="388.1" width="61" height="24.3"/><path class="cls-5" d="M42.1,400.6c0-3.5,1.3-5.2,3.2-5.2s3,1.8,3,5c0,3.5-1.2,5.2-3.2,5.2C43.4,405.7,42.1,403.9,42.1,400.6Zm5.1-.1c0-2.5-.6-4.2-2-4.2-1.2,0-2,1.6-2,4.2s.7,4.3,2,4.3c1.5,0,2-1.9,2-4.3Z"/><rect class="cls-4" x="82.6" y="388.1" width="61.1" height="24.3"/><path class="cls-5" d="M106.3,400.6c0-3.5,1.3-5.2,3.2-5.2s3,1.8,3,5c0,3.5-1.2,5.2-3.2,5.2C107.6,405.7,106.3,403.9,106.3,400.6Zm5.1-.1c0-2.5-.6-4.2-2-4.2-1.2,0-2,1.6-2,4.2s.7,4.3,2,4.3c1.5,0,2-1.9,2-4.3Z"/><path class="cls-5" d="M113.6,400.6c0-3.5,1.3-5.2,3.2-5.2s3,1.8,3,5c0,3.5-1.2,5.2-3.2,5.2C114.9,405.7,113.6,403.9,113.6,400.6Zm5.2-.1c0-2.5-.6-4.2-2-4.2-1.2,0-2,1.6-2,4.2s.7,4.3,2,4.3,2-1.9,2-4.3Z"/><rect class="cls-6" x="150.4" y="388.1" width="61.1" height="24.3"/><path class="cls-7" d="M170.5,400.6c0-3.5,1.4-5.2,3.2-5.2s3,1.8,3,5c0,3.5-1.2,5.2-3.2,5.2C171.8,405.7,170.5,403.9,170.5,400.6Zm5.1-.1c0-2.5-.6-4.2-2-4.2-1.2,0-2,1.6-2,4.2s.7,4.3,2,4.3c1.5,0,2-1.9,2-4.3Z"/><path class="cls-7" d="M177.8,400.6c0-3.5,1.4-5.2,3.2-5.2s3,1.8,3,5c0,3.5-1.2,5.2-3.2,5.2C179.1,405.7,177.8,403.9,177.8,400.6Zm5.1-.1c0-2.5-.6-4.2-2-4.2-1.2,0-2,1.6-2,4.2s.7,4.3,2,4.3c1.5,0,2-1.9,2-4.3Z"/><path class="cls-7" d="M185.1,400.6c0-3.5,1.4-5.2,3.2-5.2s3,1.8,3,5c0,3.5-1.2,5.2-3.2,5.2C186.4,405.7,185.1,403.9,185.1,400.6Zm5.1-.1c0-2.5-.6-4.2-2-4.2-1.2,0-2,1.6-2,4.2s.7,4.3,2,4.3c1.5,0,2-1.9,2-4.3Z"/><rect class="cls-8" x="14.7" y="419.5" width="61" height="27.8"/><path class="cls-7" d="M48.9,437.2a7.42,7.42,0,0,1-2.5.5c-2.6,0-4.7-1.7-4.7-5.1s2-5.3,5-5.3a5.38,5.38,0,0,1,2.2.4l-.3.9a4.33,4.33,0,0,0-1.9-.4c-2.3,0-3.9,1.5-3.9,4.3s1.4,4.2,3.8,4.2a4.48,4.48,0,0,0,2-.4Z"/><rect class="cls-9" x="82.6" y="419.5" width="128.9" height="27.8"/><rect class="cls-1" x="4" y="244.9" width="384.3" height="37.8"/></g></g><polygon class="cls-10" points="156.4 194.8 204 223.4 251.6 194.8 232.2 194.8 232.2 175.5 175.8 175.5 175.8 194.8 156.4 194.8"/><path class="cls-7" d="M139.1,429h-2.4a30.05,30.05,0,0,1-.7,3.2h2.6V438H136v1.1h-.8v-4.7a10.93,10.93,0,0,1-.8,1.5,3.51,3.51,0,0,0-.5-.8,14.1,14.1,0,0,0,1.9-6h-1.6v-.8h4.9Zm-1.2,8.2V433H136v4.2Zm8.6,1.1v.8H141v.6h-.8v-5.9a4.74,4.74,0,0,1-1,1,1.79,1.79,0,0,0-.5-.7,10.93,10.93,0,0,0,2.9-4.4H140v1.6h-.8V429h2.7a9.36,9.36,0,0,0,.4-1.6l1.1.2c0,.1-.1.2-.3.2l-.3,1.2h3.5v2.4h-.8v-1.6h-3a12.81,12.81,0,0,1-1.1,2.4H143a13.36,13.36,0,0,0,.7-1.8l1,.3c0,.1-.1.1-.3.1a14.67,14.67,0,0,1-.6,1.4h2.3v.8h-2.4v1.3h2.1v.7h-2.1v1.4h2.1v.7h-2.1v1.4Zm-3.6-4.1v-1.3H141v1.3Zm0,2.1v-1.4H141v1.4Zm-1.9.7v1.4h1.8V437Z"/><path class="cls-7" d="M154.1,435.5v2.9a17.85,17.85,0,0,0,2.3.2h3.4a1.61,1.61,0,0,0-.3.9h-3.1c-2.9,0-4.9-.5-6.1-2.9a6.62,6.62,0,0,1-2.1,3.1,4.35,4.35,0,0,0-.7-.6c1.5-1.1,2.2-3.1,2.5-5.6l1.1.2c0,.1-.1.2-.3.2l-.3,1.5a4.12,4.12,0,0,0,2.6,2.7v-5.8h-3.4v-.9h7.8v.9H154v2.4h4.1v.9Zm-5.1-5.7v2h-.9V429h5.1v-1.6l1.2.1c0,.1-.1.2-.3.2v1.4h5.1V432h-.9v-2Z"/></g></g><path class="cls-7" d="M262.4,21.7a11,11,0,0,1,9.5,5.5l20.3,36.4.1.2h0a1.05,1.05,0,0,0,.9.5h.2a1.09,1.09,0,0,0,.8-.8,10.85,10.85,0,0,1,5.7-7.6,11.66,11.66,0,0,1,5.8-1.5,9.75,9.75,0,0,1,7.2,3.1,1.08,1.08,0,0,0,.7.3h.1a1,1,0,0,0,.8-.5,12.14,12.14,0,0,1,10.1-5.6,10,10,0,0,1,7.8,3.8,1.23,1.23,0,0,0,.8.4h0a1.14,1.14,0,0,0,.8-.3,10.87,10.87,0,0,1,3.3-2.7,12.91,12.91,0,0,1,5.8-1.6,9.56,9.56,0,0,1,8.6,5L359,70c0,.1,0,.1.1.2,5.2,10,5.3,17.8,5.4,24.6.1,6.2.2,12,3.7,18.4l10.3,18.5a4.23,4.23,0,0,1-1.6,5.8l-46.7,26.1a4.32,4.32,0,0,1-5.8-1.6l-7.2-13a6.41,6.41,0,0,0-3.9-3.1l-55.1-16.1-.4-.1a10.85,10.85,0,1,1,4.6-21.2h0l17.1,3.5a8.11,8.11,0,0,0,9.4-6.3,7.88,7.88,0,0,0-.8-5.4L253,37.8a10.83,10.83,0,0,1,4.2-14.7,9.69,9.69,0,0,1,5.2-1.4"/></g></g></svg>