<svg xmlns="http://www.w3.org/2000/svg" viewBox="0 0 446 726"><defs><style>.cls-1,.cls-13{fill:none;}.cls-2,.cls-3,.cls-7{fill:#231815;}.cls-12,.cls-3{font-size:10.32px;}.cls-12,.cls-3,.cls-7,.cls-9{font-family:KozGoPr6N-Regular-83pv-RKSJ-H, Kozuka Gothic Pr6N;}.cls-14,.cls-4,.cls-6,.cls-9{fill:#fff;}.cls-4{stroke:#9fa0a0;}.cls-13,.cls-14,.cls-4{stroke-linecap:round;stroke-linejoin:round;}.cls-5{fill:#e6e6e6;stroke:#e6e6e6;}.cls-10,.cls-11,.cls-5,.cls-6,.cls-8{stroke-miterlimit:10;}.cls-10,.cls-6{stroke:#b5b5b6;}.cls-7,.cls-9{font-size:13.27px;}.cls-8{fill:#666464;stroke:#666464;}.cls-10{fill:#b5b5b6;}.cls-11{fill:#0068b7;stroke:#0068b7;}.cls-12{fill:#9fa0a0;}.cls-13{stroke:#00a0e9;stroke-width:8px;opacity:0.7;}.cls-14{stroke:#231815;}</style></defs><title>アセット 3</title><g id="レイヤー_2" data-name="レイヤー 2"><g id="レイヤー_1-2" data-name="レイヤー 1"><rect class="cls-1" width="446" height="726"/><path class="cls-2" d="M52,283.22H47.52a56.21,56.21,0,0,1-1.32,6h4.9v10.87H46.17v2H44.72v-8.82a16.91,16.91,0,0,1-1.58,2.75,13,13,0,0,0-.87-1.5c1.78-2.52,3-6.85,3.6-11.4h-3v-1.55H52Zm-2.35,15.42v-7.87H46.17v7.87Zm16.27,2.15v1.45H55.57v1.22H54V292.32a14.58,14.58,0,0,1-1.87,1.85,10.32,10.32,0,0,0-.92-1.4,19.63,19.63,0,0,0,5.42-8.2h-3v3.1H52.1V283.1h5c.32-1,.6-2,.85-3l2.07.47c0,.2-.25.3-.57.3-.2.77-.43,1.52-.65,2.27h6.67v4.57H64v-3.1H58.35a29.63,29.63,0,0,1-2,4.42h2.95a27.15,27.15,0,0,0,1.28-3.37l1.92.6c0,.15-.22.23-.5.23-.27.72-.7,1.7-1.12,2.55h4.4v1.47H60.62V293h4v1.35h-4v2.55h4v1.35h-4v2.55ZM59,293v-2.52H55.57V293Zm0,3.9v-2.55H55.57v2.55Zm-3.47,1.35v2.55H59v-2.55Z"/><path class="cls-2" d="M76.6,284.32v1.4h-9v-1.4Zm-.7,10.2v7.35H70.15V303H68.7v-8.52Zm0-6.8v1.38H68.72v-1.37Zm-7.15,4.77v-1.37h7.15v1.37Zm7-11.5v1.38H68.85V281Zm-1.35,14.95H70.15v4.5h4.27Zm5.2-.07c-.3,2.17-.85,4.55-2.2,5.95L76.15,301c1.22-1.22,1.83-3.42,2.08-5.47ZM84,282.52a25.16,25.16,0,0,1-.83,3.35,24.61,24.61,0,0,1,3.07,1.77L85.4,289a24.4,24.4,0,0,0-2.8-1.72,9.89,9.89,0,0,1-4.65,4.8,5.26,5.26,0,0,0-1-1.2,9,9,0,0,0,4.32-4.3,31.66,31.66,0,0,0-3.37-1.42l.82-1.2c1,.35,2,.77,3.1,1.25a17,17,0,0,0,.65-2.65H78v-1.45H88.57l.73,0,.9.1c-.15,1-.15,8.42-1.17,9.57-.6.72-1.22.72-2.4.72-.62,0-1.4,0-2.17-.07a3.17,3.17,0,0,0-.45-1.47c1.32.1,1.87.1,3,.1a.74.74,0,0,0,.65-.25c.42-.5.67-2.32.88-7.22Zm-1.7,18.22c0,.58.1.67.83.67h2.45c.65,0,.77-.32.83-2.82a5.59,5.59,0,0,0,1.42.63c-.15,3-.6,3.7-2.1,3.7h-2.8c-1.77,0-2.2-.47-2.2-2.17v-6l2,.15c0,.15-.18.28-.48.33Zm3.15-5.07A19.78,19.78,0,0,0,81,292.12l1.08-1a20.44,20.44,0,0,1,4.5,3.45Zm4.27,6.1a17.65,17.65,0,0,0-2.77-6.07l1.37-.55a18.17,18.17,0,0,1,2.92,6Z"/><path class="cls-2" d="M115.39,288.64h-8.52a25.47,25.47,0,0,0,9.17,4.85,7.76,7.76,0,0,0-1.15,1.42c-.78-.28-1.6-.6-2.42-1v9.3H110.8v-.8H98v.9H96.4v-9.45a22.48,22.48,0,0,1-2.8,1.25,7.74,7.74,0,0,0-1.1-1.32,25.84,25.84,0,0,0,9-5.17H93.15v-1.45H98.8a15.29,15.29,0,0,0-1.9-3.27l1.45-.55a13,13,0,0,1,2,3.45l-.95.38h3.9V283c-2.8.22-5.72.4-8.42.5a6,6,0,0,0-.37-1.3,128.14,128.14,0,0,0,17.29-1.75l1.22,1.35s-.12,0-.22,0a1.1,1.1,0,0,1-.27,0c-2,.4-4.65.75-7.55,1v4.37h3.55c-.28-.12-.55-.23-.73-.3a23.31,23.31,0,0,0,2.25-4l2,.75q-.11.23-.53.23a37.16,37.16,0,0,1-2.15,3.32h5.95Zm-12,.25a26.34,26.34,0,0,1-6.37,4.7h14.77a25.43,25.43,0,0,1-6.72-4.77v4.3h-1.67Zm.05,8.42v-2.37H98v2.37ZM98,298.57v2.5h5.37v-2.5Zm12.77-1.25v-2.37H105v2.37Zm-5.8,3.75h5.8v-2.5H105Z"/><path class="cls-2" d="M140.72,292.12h-15.3c-.22.75-.52,1.58-.8,2.42h11.3l.4-.08,1.07.35a1.85,1.85,0,0,1-.15.45c-.67,4.6-1.33,6.57-2.27,7.4-.62.58-1.2.7-2.9.7-.9,0-2.17-.05-3.5-.15a3.19,3.19,0,0,0-.58-1.57c1.83.15,3.67.17,4.35.17a2,2,0,0,0,1.22-.22c.72-.55,1.25-2.12,1.77-5.47H124c-.25.68-.47,1.3-.7,1.83-1-.2-1.37-.28-1.8-.33a54.11,54.11,0,0,0,2-5.5h-5.8v-1.55h22.94Zm-3.52-10.75v7.22H121.55v-7.22Zm-1.72,5.7V282.9H123.2v4.17Z"/><path class="cls-2" d="M156.82,291.69a2.57,2.57,0,1,1-2.57-2.57A2.57,2.57,0,0,1,156.82,291.69Z"/><path class="cls-2" d="M178.35,291.42v-5.95h-8.22v3.65H168.6v-4.9h9.75v-1.67H170V281.2h18.45v1.35H180v1.67h9.95v4.9h-1.6v-3.65H180v5.95Zm1.55,9.25c0,.85.33,1,2,1h5.82c1.38,0,1.6-.45,1.75-3.07a4.75,4.75,0,0,0,1.47.57c-.25,3.1-.8,3.88-3.12,3.88h-6c-2.7,0-3.47-.45-3.47-2.42v-.87h-5.92v1.33h-1.62v-8.8h17.15v7.47h-8Zm-8.87-10v-1.12H177v1.13Zm.5-3.72h5.42v1.13h-5.42Zm6.77,6.6h-5.92v1.85h5.92Zm-5.92,4.92h5.92v-1.9h-5.92Zm13.85-3.07v-1.85H179.9v1.85Zm-6.32,3.07h6.32v-1.9H179.9ZM181.42,287H187v1.13h-5.55Zm0,3.72v-1.12h6.17v1.13Z"/><path class="cls-2" d="M192.6,285.79v-1.42H202v1.42Zm8.62,9v7.35h-6v1.17h-1.48v-8.52Zm-.08-6.9v1.37h-7.37v-1.37Zm-7.37,4.82v-1.37h7.37v1.38Zm7.35-11.7v1.38h-7.2V281Zm-1.4,15.2h-4.5v4.5h4.5Zm16.4-6.92H210v4.27h4.82v9.62h-1.67V302h-7.8v1.3h-1.6v-9.8h4.55v-4.27h-6.12v-1.6h6.12v-4.35c-1.7.28-3.47.5-5.12.68a5.86,5.86,0,0,0-.5-1.4,59.33,59.33,0,0,0,11-2.12l1.4,1.45a.37.37,0,0,1-.25.08.92.92,0,0,1-.25,0A36.3,36.3,0,0,1,210,283v4.62h6.15Zm-3,11.22v-5.4h-7.8v5.4Z"/><path class="cls-2" d="M240.39,288.64h-8.52a25.47,25.47,0,0,0,9.17,4.85,7.76,7.76,0,0,0-1.15,1.42c-.78-.28-1.6-.6-2.42-1v9.3H235.8v-.8H223v.9H221.4v-9.45a22.48,22.48,0,0,1-2.8,1.25,7.74,7.74,0,0,0-1.1-1.32,25.84,25.84,0,0,0,9-5.17h-8.35v-1.45h5.65a15.29,15.29,0,0,0-1.9-3.27l1.45-.55a13,13,0,0,1,2,3.45l-.95.38h3.9V283c-2.8.22-5.72.4-8.42.5a6,6,0,0,0-.37-1.3,128.14,128.14,0,0,0,17.29-1.75l1.22,1.35s-.12,0-.22,0a1.1,1.1,0,0,1-.27,0c-2,.4-4.65.75-7.55,1v4.37h3.55c-.28-.12-.55-.23-.73-.3a23.31,23.31,0,0,0,2.25-4l2,.75q-.11.23-.53.23a37.16,37.16,0,0,1-2.15,3.32h5.95Zm-12,.25a26.34,26.34,0,0,1-6.37,4.7h14.77a25.43,25.43,0,0,1-6.72-4.77v4.3h-1.67Zm.05,8.42v-2.37H223v2.37ZM223,298.57v2.5h5.37v-2.5Zm12.77-1.25v-2.37H230v2.37Zm-5.8,3.75h5.8v-2.5H230Z"/><path class="cls-2" d="M265.72,292.12h-15.3c-.22.75-.52,1.58-.8,2.42h11.3l.4-.08,1.07.35a1.85,1.85,0,0,1-.15.45c-.67,4.6-1.33,6.57-2.27,7.4-.62.58-1.2.7-2.9.7-.9,0-2.17-.05-3.5-.15a3.19,3.19,0,0,0-.58-1.57c1.83.15,3.67.17,4.35.17a2,2,0,0,0,1.22-.22c.72-.55,1.25-2.12,1.77-5.47H249c-.25.68-.47,1.3-.7,1.83-1-.2-1.37-.28-1.8-.33a54.11,54.11,0,0,0,2-5.5h-5.8v-1.55h22.94Zm-3.52-10.75v7.22H246.55v-7.22Zm-1.72,5.7V282.9H248.2v4.17Z"/><path class="cls-2" d="M280.7,284.65a.65.65,0,0,1-.62.4c-.9,7.77-3.5,14.55-7.65,14.55-2.1,0-4-2.1-4-6a11,11,0,0,1,11.25-11c7.22,0,10.35,4.57,10.35,9.45,0,5.95-3.45,8.82-9.5,10.22a9.74,9.74,0,0,0-1-1.52c5.75-1.1,8.7-3.9,8.7-8.62,0-4.12-2.65-7.87-8.5-7.87a7,7,0,0,0-.75,0Zm-2.4-.33a9.2,9.2,0,0,0-8.17,9.17c0,2.67,1.15,4.35,2.35,4.35C275.5,297.84,277.67,291.17,278.3,284.32Z"/><path class="cls-2" d="M315.52,283.65h-10.6l-.28.08v4.35l.13-.15a65.13,65.13,0,0,1,9.35,5.47l-1.17,1.5a62.41,62.41,0,0,0-8.3-5.17v13.57h-1.77V283.65H293V282h22.52Z"/><path class="cls-2" d="M330.7,284.65a.65.65,0,0,1-.62.4c-.9,7.77-3.5,14.55-7.65,14.55-2.1,0-4-2.1-4-6a11,11,0,0,1,11.25-11c7.22,0,10.35,4.57,10.35,9.45,0,5.95-3.45,8.82-9.5,10.22a9.74,9.74,0,0,0-1-1.52c5.75-1.1,8.7-3.9,8.7-8.62,0-4.12-2.65-7.87-8.5-7.87a7,7,0,0,0-.75,0Zm-2.4-.33a9.2,9.2,0,0,0-8.17,9.17c0,2.67,1.15,4.35,2.35,4.35C325.5,297.84,327.67,291.17,328.3,284.32Z"/><path class="cls-2" d="M64.32,330.52H55.87l.43.13a.54.54,0,0,1-.5.3c-.67,4.65-2.37,8.8-7.72,11.42a13.27,13.27,0,0,0-1.35-1.25c5.2-2.5,6.65-6,7.22-10.6H44.22v-1.67H64.32Zm-2.47-7H46.5V321.8H61.84Z"/><path class="cls-2" d="M80.17,334.44l.9,7.85-1.8.2-.87-7.82L69,335.87l-.22-1.65,9.42-1.2-.65-5.62-7.85,1-.23-1.67,7.87-1-.55-4.95,2.45-.1c0,.25-.22.45-.57.55l.45,4.25,7.6-1,.2,1.7-7.6,1,.65,5.6,9.4-1.17.22,1.65Z"/><path class="cls-2" d="M111,323.27a.52.52,0,0,1-.33.27,38.66,38.66,0,0,1-5,8.6,91.92,91.92,0,0,1,9.15,8.47l-1.52,1.32a81.56,81.56,0,0,0-8.77-8.4,39.35,39.35,0,0,1-9.62,8.4,9.36,9.36,0,0,0-1.3-1.35,35.84,35.84,0,0,0,14.65-16.32H96v-1.7h13.25l.33-.12Z"/><path class="cls-2" d="M136.3,334a90.2,90.2,0,0,0-8.77-4.07v12.5h-1.87V320.7l2.52.15c0,.28-.22.45-.65.53v7.3l.38-.53a87,87,0,0,1,9.4,4.17Z"/><path class="cls-2" d="M149.8,331.67a21.12,21.12,0,0,1-4.7,7.4l-1.45-1a17.71,17.71,0,0,0,4.52-7Zm5.35-3.85v11.82c0,2.72-1.92,2.72-5.92,2.72a8.23,8.23,0,0,0-.55-1.67c.73,0,1.53,0,2.2,0h1.45a1,1,0,0,0,1-1V327.82h-8.5v-1.67h8.5v-5.2l2.38.13c0,.25-.2.42-.58.48v4.6h8.45v1.67Zm4.47,3.07a48.08,48.08,0,0,1,5.27,7.27l-1.6.92a46.55,46.55,0,0,0-5.1-7.42Zm-.3-10.17a20.06,20.06,0,0,1,3.13,3.65l-1,.72a19.37,19.37,0,0,0-3.12-3.62Zm3.6-1.12a19.86,19.86,0,0,1,3.15,3.62l-1,.75a22.25,22.25,0,0,0-3.12-3.62Z"/><path class="cls-2" d="M172.4,327.4a27,27,0,0,1,1.88,5.37l-1.4.38a28,28,0,0,0-1.82-5.32Zm14.92.17c-.05.22-.3.27-.53.25-1.95,7.3-5.62,11.77-11.67,14.22a6.84,6.84,0,0,0-1-1.15c6-2.35,9.4-6.45,11.22-13.9Zm-8.85-1.37a34.16,34.16,0,0,1,1.17,5.67l-1.47.27a30,30,0,0,0-1.17-5.62Z"/><path class="cls-2" d="M213,325.44a1.68,1.68,0,0,1-.37.35c-2.62,8.1-6.72,13.3-13.62,16.8a6.54,6.54,0,0,0-1.28-1.37,23.47,23.47,0,0,0,12.67-14.8h-8.92a25.58,25.58,0,0,1-5.6,6.17,9.89,9.89,0,0,0-1.42-1.15,25.4,25.4,0,0,0,8-10.85l2.37.67c-.1.25-.4.33-.72.33-.5,1.1-1,2.15-1.6,3.15h8.8l.3-.15Z"/><path class="cls-2" d="M236,323.27a.52.52,0,0,1-.33.27,38.66,38.66,0,0,1-5,8.6,91.92,91.92,0,0,1,9.15,8.47l-1.52,1.32a81.56,81.56,0,0,0-8.77-8.4,39.35,39.35,0,0,1-9.62,8.4,9.36,9.36,0,0,0-1.3-1.35,35.84,35.84,0,0,0,14.65-16.32H221v-1.7h13.25l.33-.12Z"/><path class="cls-2" d="M248.32,321.85c-.08.27-.33.42-.82.4a59.94,59.94,0,0,0-1.33,11.25,27.52,27.52,0,0,0,.33,4.95c.47-1.22,1.55-3.85,1.9-4.72l1,1.1c-1,2.52-1.77,3.95-2.12,5.07a4.28,4.28,0,0,0-.2,1.17,2.64,2.64,0,0,0,.13.78l-1.78.33a27.44,27.44,0,0,1-1.1-8.6,73.11,73.11,0,0,1,1.33-12.17Zm15.92,18.27c-.9,0-1.82.08-2.75.08a34.42,34.42,0,0,1-4.65-.28c-3.07-.45-4.5-2.15-4.5-4.15,0-1.72.95-3.17,2.35-4.82l1.62.7c-1.25,1.3-2.12,2.5-2.12,3.92,0,2.9,4.25,2.9,6.85,2.9,1,0,2.17-.05,3.22-.12Zm-11.57-15.27a81.73,81.73,0,0,0,10.9-.95l.15,1.75a94.53,94.53,0,0,1-11,.92Z"/><path class="cls-2" d="M278.07,326.42v14.95c0,1.77-.9,1.87-4.22,1.87a4.63,4.63,0,0,0-.53-1.45c1.38,0,2.5,0,2.82,0s.5-.12.5-.47v-4.85h-6a15.55,15.55,0,0,1-1.9,6.77,6,6,0,0,0-1.22-.78c1.67-2.67,1.85-6.45,1.85-9.3v-5c-.22.3-.45.6-.67.85a8.51,8.51,0,0,0-1.17-.9,20.78,20.78,0,0,0,3.85-8.15l1.92.53c-.07.17-.22.25-.52.25l-.45,1.47h3.17l.25-.08,1.12.72a.42.42,0,0,1-.32.17,29.54,29.54,0,0,1-1.62,3.37Zm-4.72,0a17.33,17.33,0,0,0,1.3-2.82h-2.87a26.69,26.69,0,0,1-1.32,2.82Zm-2.6,5.65v1.12c0,.6,0,1.28,0,2H273v-3.07Zm0-4.3v3H273v-3Zm3.52,0v3h2.37v-3Zm0,7.37h2.37v-3.07h-2.37Zm13.9.8a28,28,0,0,1,2.87,6.75l-1.45.58a17.57,17.57,0,0,0-.62-2.15c-3.55.42-7.15.8-9.45,1a.4.4,0,0,1-.35.35l-.6-1.92c1.37-.1,3.17-.23,5.17-.4v-5.62H279.4v-9.4h4.35V320l2.07.13c0,.17-.17.3-.5.35v4.7h4.57v9.4h-4.57V340l3.12-.27a30.28,30.28,0,0,0-1.62-3.37Zm-7.3-2.87h2.88V326.6h-2.87Zm7.52-6.47h-3.07v6.47h3.07Z"/><path class="cls-2" d="M293.8,325.72a24.27,24.27,0,0,0,4.7-.37c0-1.5.08-2.32.17-4.6l2.58.2c-.05.28-.28.45-.7.5-.1,1.1-.2,2.65-.25,3.57l.77.3a13,13,0,0,0-1,3.57c2.75-2.57,5.8-4.4,7.87-4.4,2.35,0,3.52,1.65,3.52,4.55,0,.33,0,.65,0,1-.17,2.2-.42,5.32-.42,7.32,0,1.5.17,2.3,1.22,2.3a6.79,6.79,0,0,0,3.32-1.67,17.1,17.1,0,0,0,.35,1.9,7.56,7.56,0,0,1-3.92,1.63c-2.1,0-2.8-1.25-2.8-3.85,0-1.3.45-8.17.45-8.2,0-2.17-.75-3.15-2-3.15-1.87,0-5,2-7.62,4.77,0,3.62,0,8.07,0,11.47H298.3c0-1.45,0-8.57,0-10.17a26.1,26.1,0,0,1-4.55,6l-.9-1.58a25.36,25.36,0,0,0,5.5-7.55c0-.72,0-1.4.05-2.2a25.86,25.86,0,0,1-4.6.42Z"/><path class="cls-2" d="M326.15,331a15.14,15.14,0,0,1,6.2-1.45c4,0,6.47,2.32,6.47,6,0,4.52-4,7-9,7-3.25,0-5.47-1.3-5.47-3.5,0-1.85,1.82-3.35,4.1-3.35a5.27,5.27,0,0,1,5.1,4.52,4.9,4.9,0,0,0,3.45-4.67c0-2.7-2-4.42-5.15-4.42a14.24,14.24,0,0,0-9.07,3.27c-.75.7-1.72,1.75-2.4,2.52l-1.27-1.27c2.25-2.35,9.4-9.17,12.8-12.35-1.45.2-6.45.4-9.3.5a.83.83,0,0,1-.53.38l-.2-2.12c3.37,0,9.82-.28,11.65-.55l.38-.17,1.33,1.63a1.21,1.21,0,0,1-.6.22c-1.78,1.45-6.52,5.9-8.47,7.77Zm3.45,10a10.9,10.9,0,0,0,2.27-.25,3.85,3.85,0,0,0-3.55-3.55c-1.3,0-2.45.7-2.45,1.85C325.87,340.54,327.95,341,329.6,341Z"/><path class="cls-2" d="M362.17,328.87a.5.5,0,0,1-.2,0,1,1,0,0,1-.52-.15c-7.42,2.17-14.15,5.45-14.12,8.8,0,2.4,2.65,3.22,6.7,3.22a60.06,60.06,0,0,0,8.85-.57L363,342a80.71,80.71,0,0,1-8.95.45c-4.95,0-8.55-1.15-8.57-4.82,0-2.67,2.65-5,6.57-7-.85-1.53-1.15-4.42-1.15-10.07l2.75.23c0,.32-.27.52-.77.6,0,4.37.13,7.1.82,8.45a70.6,70.6,0,0,1,7.8-3Z"/><path class="cls-2" d="M64.32,370.42H55.87l.43.13a.54.54,0,0,1-.5.3c-.67,4.65-2.37,8.8-7.72,11.42A13.27,13.27,0,0,0,46.72,381c5.2-2.5,6.65-6,7.22-10.6H44.22v-1.67H64.32Zm-2.47-7H46.5V361.7H61.84Z"/><path class="cls-2" d="M70.62,362.62a31.06,31.06,0,0,1,7.45,3.4l-1,1.58a31.88,31.88,0,0,0-7.3-3.47Zm-.1,17.32c8.87-2.75,14.77-7.72,17.77-14.65a9.68,9.68,0,0,0,1.62,1c-3.12,6.85-9.22,12.17-17.7,15a.82.82,0,0,1-.35.57Z"/><path class="cls-2" d="M105.17,374.34l.9,7.85-1.8.2-.87-7.82L94,375.77l-.22-1.65,9.42-1.2-.65-5.62-7.85,1-.23-1.67,7.87-1-.55-4.95,2.45-.1c0,.25-.22.45-.57.55l.45,4.25,7.6-1,.2,1.7-7.6,1,.65,5.6,9.4-1.17.22,1.65Z"/><path class="cls-2" d="M118.68,370.17h20.87v1.77H119.62a1.15,1.15,0,0,1-.8.47Z"/><path class="cls-2" d="M152.32,361.1c0,.3-.35.42-.82.45-.28,1.4-.73,3.82-1,5.32,1.13-.12,2.15-.23,2.77-.23,3.8,0,5.1,2.47,5.1,6.22a19.49,19.49,0,0,1-.85,5.6c-.77,2.55-2.37,3.77-4.45,3.77-1,0-2.37-.42-4.52-2.17a9.48,9.48,0,0,0,.67-1.52c2,1.55,3,1.9,3.82,1.9,1.42,0,2.27-.9,2.77-2.5a18.89,18.89,0,0,0,.8-5.12c0-2.85-1-4.55-3.45-4.52a29,29,0,0,0-3,.25A47.92,47.92,0,0,1,145,382l-1.65-.8a40.88,40.88,0,0,0,5-12.5c-1.28.15-3.1.38-4.45.6l-.15-1.75,4.95-.58c.38-1.82.77-4.07,1.07-6.27Zm5.8-.77a17.59,17.59,0,0,1,3.35,3.5l-1,.7a16.63,16.63,0,0,0-3.3-3.47Zm5.6,14.55a15.74,15.74,0,0,0-5.1-8.52l1.45-1a16.56,16.56,0,0,1,5.45,8.82Zm-1.82-15.52a16.36,16.36,0,0,1,3.37,3.47l-1,.73A16.77,16.77,0,0,0,161,360Z"/><path class="cls-2" d="M187.42,372.64l2.22.15c0,.17-.15.3-.5.33v9.95h-1.72v-1.57H171.17v1.65H169.5v-10.5l2.2.13c0,.2-.18.32-.53.35v6.72h7.1V371h-7.82v-8.65l2.2.15c0,.15-.17.28-.52.33v6.52h6.15V360l2.22.15c0,.17-.18.3-.5.35v8.82h6.4v-7l2.22.15c0,.18-.15.3-.5.35V371H180v8.87h7.42Z"/><path class="cls-2" d="M193.8,363.27c1.87-.08,17.27-1.17,20.52-1.2l0,1.87c-.33,0-.62,0-.92,0a7.2,7.2,0,0,0-4.27,1.28c-3.75,2.25-7.37,6.27-7.37,9.5,0,3.5,2.45,5.57,8.65,6.37l-.83,1.75c-7.1-1-9.75-3.67-9.75-8.12,0-3.52,3.47-7.8,8-10.67-2.65.17-10.12.75-13.35,1a.76.76,0,0,1-.55.4Z"/><path class="cls-2" d="M239.09,368.84a37.34,37.34,0,0,1-7.55,1.55,9.25,9.25,0,0,0,4.12,3.92l-1,1.42c-.35-.17-1-.47-1.45-.75a10.48,10.48,0,0,0-2.95-.37c-.35,0-.7,0-1,0l-.35-1.37a17,17,0,0,1,2.8.1,12.59,12.59,0,0,1-2-2.82,62.92,62.92,0,0,1-6.7.25c-1.22,0-2.6,0-3.72,0l0-1.58c1.13,0,2.57.05,3.82.05,2,0,4.07,0,6.1-.18-.28-.77-.67-2.2-1-3.32-1,.1-2.12.15-3.15.15-1.35,0-3.07,0-4.25,0v-1.55c1.5.08,3.15.08,4.22.08.9,0,1.92,0,2.87-.12-.22-1.15-.47-2.52-.67-3.92l2.58,0c0,.3-.23.47-.67.55.15,1.08.32,2.22.52,3.2a26.16,26.16,0,0,0,6.7-1.45l.42,1.55a30.31,30.31,0,0,1-6.8,1.42,29.43,29.43,0,0,0,.95,3.27,35.9,35.9,0,0,0,7.8-1.65Zm-4.4,13.22c-1.37.1-3,.15-5.5.15-4,0-7.2-1.32-7.15-4.15,0-1.48,1.32-3,2.95-3.95l1.13,1.15c-1.45.77-2.3,1.82-2.3,2.77,0,1.77,2.2,2.55,5.37,2.57,1.87,0,3.85-.1,5.55-.22Z"/><path class="cls-2" d="M244.65,363.77c1.55.1,3.62.1,5.32.1,1.13,0,2.4,0,3.45,0,0-1.2,0-2.6,0-3.47l2.52.13c0,.3-.25.45-.67.52,0,.4,0,2.32,0,2.75a49,49,0,0,0,8.3-1l.23,1.65a51.3,51.3,0,0,1-8.52,1c0,1.5,0,3,.1,4.6a42,42,0,0,0,7-1l.2,1.63a47.72,47.72,0,0,1-7.22.87l.2,4.17a27.75,27.75,0,0,1,7.35,3.9l-1.1,1.52a24.37,24.37,0,0,0-6.2-3.67c0,.4,0,.85,0,1.17,0,2.37-1.45,3.75-4.47,3.75s-5.5-1.3-5.5-3.65,2.72-3.72,5.52-3.72a11,11,0,0,1,2.62.3c0-1.07-.08-2.37-.1-3.72-.8,0-1.7,0-2.42,0-4.27,0-5.47-.67-5.47-2.12,0-.95.72-1.72,2.32-2.75l1.2.77c-1.12.63-1.72,1.17-1.72,1.67,0,.75,1.17.9,4.35.9.55,0,1.13,0,1.67,0l-.15-4.62c-1.07,0-2.32,0-3.45,0-1.6,0-3.87,0-5.37,0Zm9.25,13a10.52,10.52,0,0,0-2.8-.4c-1.9,0-3.82.77-3.82,2.27s1.75,2.2,3.92,2.2c2,0,2.72-.87,2.72-2.62Z"/><path class="cls-2" d="M280,364c0-.55-.1-3.27-.15-3.9l2.57.1c0,.2-.2.45-.65.52,0,.3,0,.6,0,3.22,3.07-.1,6.3-.18,8.17-.2v1.72c-2.12,0-5.15,0-8.12.1,0,2,.1,3.75.17,5.12a8.51,8.51,0,0,1,.3,2.62,10.79,10.79,0,0,1-.25,2.42c-.65,2.92-2.8,5.5-7.2,7.25a13.67,13.67,0,0,0-1.28-1.42c3.82-1.37,5.87-3.45,6.5-5.82h0a3.14,3.14,0,0,1-2.57,1.32,4.26,4.26,0,0,1-4.2-4.37,4.6,4.6,0,0,1,4.5-4.67,3.7,3.7,0,0,1,2.32.78c0-.42,0-2.1-.1-3.17-2.6.05-10.5.33-11.52.38l0-1.65,5.7-.15Zm.47,8.77c0-1,0-3.25-2.55-3.25a3,3,0,0,0-3,3.17,2.8,2.8,0,0,0,2.77,2.9A2.69,2.69,0,0,0,280.47,372.79Z"/><path class="cls-2" d="M305.7,364.44a.65.65,0,0,1-.62.4c-.9,7.77-3.5,14.55-7.65,14.55-2.1,0-4-2.1-4-6a11,11,0,0,1,11.25-11c7.22,0,10.35,4.57,10.35,9.45,0,5.95-3.45,8.82-9.5,10.22a9.74,9.74,0,0,0-1-1.52c5.75-1.1,8.7-3.9,8.7-8.62,0-4.12-2.65-7.87-8.5-7.87a7,7,0,0,0-.75,0Zm-2.4-.33a9.2,9.2,0,0,0-8.17,9.17c0,2.67,1.15,4.35,2.35,4.35C300.5,377.64,302.67,371,303.3,364.12Z"/><path class="cls-2" d="M318.8,363.27c1.87-.08,17.27-1.17,20.52-1.2l0,1.87c-.33,0-.62,0-.92,0a7.2,7.2,0,0,0-4.27,1.28c-3.75,2.25-7.37,6.27-7.37,9.5,0,3.5,2.45,5.57,8.65,6.37l-.83,1.75c-7.1-1-9.75-3.67-9.75-8.12,0-3.52,3.47-7.8,8-10.67-2.75.2-10.12.75-13.35,1a.76.76,0,0,1-.55.4Zm16.2,4.92a18.39,18.39,0,0,1,3.4,3.45l-.95.77a16.66,16.66,0,0,0-3.3-3.47Zm2.7-2.2a15.81,15.81,0,0,1,3.4,3.45l-.95.75a17.7,17.7,0,0,0-3.3-3.45Z"/><path class="cls-2" d="M53.65,401.35h1.7c0,4.47.58,14.17,10.67,20.17a9.21,9.21,0,0,0-1.35,1.42,22.16,22.16,0,0,1-10.3-14.55c-1.8,6.67-5,11.67-10.3,14.57a11.51,11.51,0,0,0-1.4-1.27c5.52-2.87,8.75-8.2,10.32-15.47l1,.25a25.64,25.64,0,0,1-.33-3.4H47.32v-1.7h6.32Z"/><path class="cls-2" d="M87.77,405.37c.38,0,.42,0,.8,0l1,.1a4.79,4.79,0,0,1,0,.58c-.37,11-.75,14.7-1.75,15.85-.7.88-1.5,1-3.12,1-.85,0-1.92,0-3-.1a3.74,3.74,0,0,0-.6-1.75c1.77.15,3.37.17,4,.17a1.29,1.29,0,0,0,1.1-.37c.83-.83,1.22-4.42,1.55-13.77h-9c-.35,5.3-2,11.47-9.47,16a6,6,0,0,0-1.3-1.33,17.41,17.41,0,0,0,9-14.72H68.7v-1.7h8.37c0-.45,0-.87,0-1.3v-4.25l2.25.15c0,.17-.17.3-.5.35v3.75c0,.43,0,.85,0,1.3Z"/><path class="cls-2" d="M100.82,400.87c-.05.3-.28.48-.78.55-.2,2.9-.45,9.52-.45,13.22s1.85,5.52,5,5.52,6.15-1.52,9-4.75a10,10,0,0,0,1.13,1.47c-2.92,3.32-6.47,5.07-10.15,5.07-4.55,0-6.87-2.62-6.87-7.35,0-3.15.23-10.9.4-14Z"/><path class="cls-2" d="M118.8,403.17c1.87-.08,17.27-1.17,20.52-1.2l0,1.87c-.33,0-.62,0-.92,0a7.2,7.2,0,0,0-4.27,1.28c-3.75,2.25-7.37,6.27-7.37,9.5,0,3.5,2.45,5.57,8.65,6.37l-.83,1.75c-7.1-1-9.75-3.67-9.75-8.12,0-3.52,3.47-7.8,8-10.67-2.65.17-10.12.75-13.35,1a.76.76,0,0,1-.55.4Z"/><path class="cls-2" d="M147.57,417.94a12.37,12.37,0,0,1-3.07,5.1l-1.52-.67a11.31,11.31,0,0,0,3-4.82Zm-1.9-3.25v1.57H144.1V400.9h7.2v13.8Zm4-12.27h-4v4.52h4Zm-4,10.75h4v-4.7h-4Zm5.25,9.62a30.42,30.42,0,0,0-.53-4.62l1.53-.15a25.52,25.52,0,0,1,.65,4.52Zm14-21.82a1.87,1.87,0,0,1-.07.5c-.37,6.45-.73,6.45-3.52,6.45-.53,0-1.17,0-1.8-.08a3.81,3.81,0,0,0-.45-1.4c1.15.1,2.22.13,2.63.13a1,1,0,0,0,.77-.23c.33-.32.55-1.4.72-4h-4.6c-.55,2.92-1.8,5.15-5.87,6.37a4.6,4.6,0,0,0-1-1.27c3.42-.95,4.65-2.62,5.15-5.1h-4.2v-1.5h10.92l.38,0Zm-.75,8.3v6.92h-10.7v-6.92Zm-1.65,5.5v-4.07h-7.45v4.07Zm-5.37,8a23.78,23.78,0,0,0-1.58-4.65l1.58-.3a23.91,23.91,0,0,1,1.65,4.57Zm7,.25A28.71,28.71,0,0,0,160.8,418l1.55-.55a28.85,28.85,0,0,1,3.47,5Z"/><path class="cls-2" d="M180.72,399.87a.66.66,0,0,1-.53.38,28.64,28.64,0,0,0,10.9,8.45,7.14,7.14,0,0,0-1.07,1.5c-4-1.95-8.47-5.37-10.87-8.75a29.74,29.74,0,0,1-10.62,8.85,7.67,7.67,0,0,0-1-1.35c4.4-2.12,8.72-5.87,10.7-9.22Zm-11.87,14.27v-1.6h21v1.6h-12l.3.1c-.08.17-.28.25-.6.28a63.6,63.6,0,0,1-2.95,5.8c3.32-.07,7.2-.2,11-.32a40.09,40.09,0,0,0-3.67-3.75l1.42-.78a34.35,34.35,0,0,1,6,6.67l-1.5.95a17.72,17.72,0,0,0-1.22-1.75c-6.07.32-12.52.6-16.52.72a.42.42,0,0,1-.4.35l-.62-2c1,0,2.27,0,3.65-.08a54.54,54.54,0,0,0,3-6.2Zm4.27-6.45h12.12v1.57H173.12Z"/><path class="cls-2" d="M214.67,410.49a.35.35,0,0,1-.15,0,.63.63,0,0,1-.37-.15c-1.9.62-4.67,1.65-6.75,2.55q.07.86.07,1.95c0,.8,0,1.7-.07,2.67l-1.83.1c.08-.9.13-2,.13-3,0-.37,0-.73,0-1-2.82,1.37-5.12,3-5.12,4.55s1.72,2.15,5.17,2.15a55.94,55.94,0,0,0,6.27-.25l0,1.67c-1.47.15-3.72.2-6.3.2-4.8,0-6.92-1.15-6.92-3.7,0-2.2,2.9-4.32,6.65-6.2-.15-1.57-.85-2.35-1.85-2.35-1.82,0-3.72,1-6,3.52-.7.78-1.67,1.75-2.75,2.72l-1.22-1.22c2.5-2.2,4.85-4.3,6.3-9.22l-1.4,0h-4.17v-1.62c1.53,0,3.3,0,4.32,0l1.7,0a32.41,32.41,0,0,0,.67-3.57l2.45.3c-.05.25-.25.4-.62.45-.17,1-.4,1.87-.62,2.77a34.2,34.2,0,0,0,8.6-1.45l.3,1.67a37.73,37.73,0,0,1-9.37,1.4,18.21,18.21,0,0,1-1.8,4.22h0a6.64,6.64,0,0,1,4-1.62c1.7,0,2.77,1.22,3.1,3.25,2.1-.95,4.75-2,6.75-2.75Z"/><path class="cls-2" d="M225.32,400.62c-.05.13-.25.23-.55.18a34.36,34.36,0,0,1-6.27,5.77,8.33,8.33,0,0,0-1-1.35,24,24,0,0,0,5.85-5.42ZM221.5,423V412a34.09,34.09,0,0,1-2.85,2.85,10.21,10.21,0,0,0-1.07-1.3,31.89,31.89,0,0,0,6.85-8.37l2,.8a.51.51,0,0,1-.58.2,38.62,38.62,0,0,1-2.57,3.75l.45.15c0,.15-.2.28-.5.33V423Zm19.32-14.37v1.63h-4v10.57c0,2.1-.8,2.15-5.85,2.15a6.37,6.37,0,0,0-.55-1.65c1.1,0,2.13,0,2.9,0,1.63,0,1.8,0,1.8-.58V410.27h-8.7v-1.62Zm-1-7.27V403H227.4v-1.6Z"/><path class="cls-2" d="M245.27,409.67c.45-.1,1.37-.35,2.22-.6a37.28,37.28,0,0,1,9-1.77c3.38,0,6.4,1.8,6.4,5.87,0,5.5-5.45,7.52-12.12,8a12.36,12.36,0,0,0-.5-1.53c5.87-.42,10.85-2.12,10.85-6.42,0-3.12-2.22-4.47-4.87-4.45a31.06,31.06,0,0,0-8.37,1.83c-.58.2-1.2.42-1.6.55a.63.63,0,0,1-.4.42Z"/><path class="cls-2" d="M268.8,403.17c1.87-.08,17.27-1.17,20.52-1.2l0,1.87c-.33,0-.62,0-.92,0a7.2,7.2,0,0,0-4.27,1.28c-3.75,2.25-7.37,6.27-7.37,9.5,0,3.5,2.45,5.57,8.65,6.37l-.83,1.75c-7.1-1-9.75-3.67-9.75-8.12,0-3.52,3.47-7.8,8-10.67-2.65.17-10.12.75-13.35,1a.76.76,0,0,1-.55.4Z"/><path class="cls-2" d="M308.4,422.82a75.9,75.9,0,0,0-9.8-9.3c-1.25-1-1.7-1.7-1.7-2.6a3.2,3.2,0,0,1,1.33-2.27c2.27-2.1,6.55-6.15,8.95-8.6l2.13,1.4a.74.74,0,0,1-.55.25,1.27,1.27,0,0,1-.3,0c-2.5,2.4-6.4,5.8-8.45,7.72-.6.58-1.08,1.08-1.08,1.47s.45.92,1.33,1.58a83.17,83.17,0,0,1,9.87,9.07Z"/><path class="cls-2" d="M333.07,405.27a31.29,31.29,0,0,1-7.67,1.42,66,66,0,0,1-4.57,15.62l-1.8-.67a53.48,53.48,0,0,0,4.52-14.87c-.5,0-3.85,0-4.6,0l0-1.7c.4,0,.92,0,1.5,0,.23,0,2.72,0,3.37,0,.25-1.6.5-3.35.65-4.87l2.57.25c0,.27-.37.47-.72.5-.15,1.1-.4,2.45-.62,4a28.93,28.93,0,0,0,7-1.4Zm6.67,16.52c-1,.08-2,.13-3,.13a22.38,22.38,0,0,1-5.2-.5,3.47,3.47,0,0,1-2.77-3.45,6,6,0,0,1,1.55-3.62l1.5.65a4.59,4.59,0,0,0-1.3,2.77c0,2,1.9,2.42,6,2.42,1.1,0,2.25,0,3.25-.15ZM330,409.87a29.84,29.84,0,0,1,9.07-1.27v1.7a28.24,28.24,0,0,0-8.65,1.13Zm4.4-8.67a18.7,18.7,0,0,1,3.47,3.4l-.92.8a17.47,17.47,0,0,0-3.37-3.42Zm3.22-1.65a17.05,17.05,0,0,1,3.45,3.37l-.92.8a19.49,19.49,0,0,0-3.35-3.4Z"/><path class="cls-2" d="M364.34,405.54a48.44,48.44,0,0,1-8.32,1.38c1,3.4,2,5.42,4.72,6.6L359.52,415c-1.15-.87-2.32-1.55-5.57-1.72l-.3-1.47a24.17,24.17,0,0,1,2.77.38A13.55,13.55,0,0,1,354.2,407c-1.12.1-2.65.15-4.15.15s-4.27,0-5.87-.08v-1.7c1.5.08,3.62.08,5.9.08,1.27,0,2.72,0,3.72-.12-.3-1.35-.57-3.2-.87-5.12l2.67,0c0,.3-.25.47-.65.57.15,1.42.4,3,.68,4.37a42.43,42.43,0,0,0,8.32-1.47ZM359.87,422c-1.2,0-2.47.08-4.65.08-5.22,0-8.92-1.6-8.92-4.95a6.2,6.2,0,0,1,2.25-4.2L349.9,414a4.39,4.39,0,0,0-1.8,3.07c0,2.47,3.2,3.27,7.17,3.27,2.17,0,3.45,0,4.72-.12Z"/><path class="cls-2" d="M371.9,403.17c0,.22-.32.38-.67.4a41.12,41.12,0,0,0-.47,6.22c0,.92,0,1.83.1,2.63.3,4.25,2,6.82,3.95,6.8,1,0,2.3-2.55,3.2-5.35a8.73,8.73,0,0,0,1.45,1.08c-1.15,3.37-2.6,6.12-4.67,6.17-3.17.05-5.37-3.8-5.72-8.6-.08-.95-.1-2-.1-3.12a59.62,59.62,0,0,1,.38-6.72Zm16.57,11.62a12.47,12.47,0,0,0-6.3-9.4l1.1-1.35a13.72,13.72,0,0,1,7,10.17Z"/><path class="cls-2" d="M399.62,419.52a3.5,3.5,0,1,1-3.5-3.5A3.51,3.51,0,0,1,399.62,419.52Zm-.9,0a2.59,2.59,0,1,0-2.6,2.58A2.58,2.58,0,0,0,398.72,419.52Z"/><text class="cls-3" transform="translate(30.56 9.09)">確認番号</text><rect class="cls-4" x="31.18" y="111.71" width="384.26" height="37.84"/><rect class="cls-5" x="31.18" y="59.44" width="218.18" height="175.92"/><rect class="cls-6" x="41.9" y="70.86" width="61.05" height="24.32"/><text class="cls-7" transform="translate(68.77 88.26)">7</text><rect class="cls-6" x="109.74" y="70.86" width="61.05" height="24.32"/><text class="cls-7" transform="translate(136.61 88.26)">8</text><rect class="cls-6" x="177.58" y="70.86" width="61.05" height="24.32"/><text class="cls-7" transform="translate(204.45 88.26)">9</text><rect class="cls-6" x="41.9" y="102.19" width="61.05" height="24.32"/><text class="cls-7" transform="translate(68.77 119.59)">4</text><rect class="cls-6" x="109.74" y="102.19" width="61.05" height="24.32"/><text class="cls-7" transform="translate(136.61 119.59)">5</text><rect class="cls-6" x="177.58" y="102.19" width="61.05" height="24.32"/><text class="cls-7" transform="translate(204.45 119.59)">6</text><rect class="cls-6" x="41.9" y="133.51" width="61.05" height="24.32"/><text class="cls-7" transform="translate(68.77 150.91)">1</text><rect class="cls-6" x="109.74" y="133.51" width="61.05" height="24.32"/><text class="cls-7" transform="translate(136.61 150.91)">2</text><rect class="cls-6" x="177.58" y="133.51" width="61.05" height="24.32"/><text class="cls-7" transform="translate(204.45 150.91)">3</text><rect class="cls-6" x="41.9" y="164.84" width="61.05" height="24.32"/><text class="cls-7" transform="translate(68.77 182.24)">0</text><rect class="cls-6" x="109.74" y="164.84" width="61.05" height="24.32"/><text class="cls-7" transform="translate(132.96 182.24)">00</text><rect class="cls-8" x="177.58" y="164.84" width="61.05" height="24.32"/><text class="cls-9" transform="translate(197.14 182.24)">000</text><rect class="cls-10" x="41.9" y="196.16" width="61.05" height="27.76"/><text class="cls-9" transform="translate(68.31 214.22)">C</text><rect class="cls-11" x="109.74" y="196.16" width="128.89" height="27.76"/><text class="cls-9" transform="translate(160.92 214.22)">確定</text><rect class="cls-4" x="31.18" y="21.6" width="384.26" height="37.84"/><text class="cls-12" transform="translate(41.61 45.21)">12345</text><rect class="cls-13" x="31.18" y="21.6" width="384.26" height="37.84"/><path class="cls-14" d="M312.23,205.85,291,169.08l-21.23-36.77c-4.64-8-2.37-18.12,5-22.39s17.27-1.2,21.91,6.84l8.46,14.66V43.51A13.54,13.54,0,0,1,318.69,30h.56a13.54,13.54,0,0,1,13.5,13.5V91.32a13.54,13.54,0,0,1,13.5-13.5h.56a13.54,13.54,0,0,1,13.5,13.5v9a13.54,13.54,0,0,1,13.5-13.5h.56a13.54,13.54,0,0,1,13.5,13.5v13.5a13.54,13.54,0,0,1,13.5-13.5h.56a13.54,13.54,0,0,1,13.5,13.5v55.5a27.88,27.88,0,0,1-3.22,12.18l-13.09,24.34v18.23h-86.9V205.85"/><line class="cls-14" x1="305.19" y1="131.42" x2="305.19" y2="149.83"/></g></g></svg>