<svg xmlns="http://www.w3.org/2000/svg" viewBox="0 0 392.26 422.75"><defs><style>.cls-1{fill:#231815;}.cls-2,.cls-4,.cls-6{fill:#fff;}.cls-2{stroke:#9fa0a0;}.cls-2,.cls-9{stroke-linecap:round;stroke-linejoin:round;}.cls-3{fill:#e6e6e6;stroke:#e6e6e6;}.cls-3,.cls-4,.cls-5,.cls-7,.cls-8{stroke-miterlimit:10;}.cls-4,.cls-7{stroke:#b5b5b6;}.cls-5{fill:#666464;stroke:#666464;}.cls-7{fill:#b5b5b6;}.cls-8{fill:#0068b7;stroke:#0068b7;}.cls-9{fill:none;stroke:#00a0e9;stroke-width:8px;opacity:0.7;}</style></defs><title>アセット 2</title><g id="レイヤー_2" data-name="レイヤー 2"><g id="レイヤー_1-2" data-name="レイヤー 1"><path class="cls-1" d="M24.8,282.86H20.35a56.21,56.21,0,0,1-1.32,6h4.9v10.87H19v2H17.55V293A16.91,16.91,0,0,1,16,295.76a13,13,0,0,0-.87-1.5c1.78-2.52,3-6.85,3.6-11.4h-3v-1.55H24.8Zm-2.35,15.42v-7.87H19v7.87Zm16.27,2.15v1.45H28.39v1.22H26.82V292a14.58,14.58,0,0,1-1.87,1.85,10.32,10.32,0,0,0-.92-1.4,19.63,19.63,0,0,0,5.42-8.2h-3v3.1H24.92v-4.57h5c.32-1,.6-2,.85-3l2.07.47c0,.2-.25.3-.57.3-.2.77-.43,1.52-.65,2.27h6.67v4.57H36.79v-3.1H31.17a29.63,29.63,0,0,1-2,4.42h2.95a27.15,27.15,0,0,0,1.28-3.37l1.92.6c0,.15-.22.23-.5.23-.27.72-.7,1.7-1.12,2.55h4.4v1.47H33.44v2.52h4V294h-4v2.55h4v1.35h-4v2.55Zm-6.85-7.8v-2.52H28.39v2.52Zm0,3.9V294H28.39v2.55Zm-3.47,1.35v2.55h3.47v-2.55Z"/><path class="cls-1" d="M49.42,284v1.4h-9V284Zm-.7,10.2v7.35H43v1.17H41.52v-8.52Zm0-6.8v1.38H41.55v-1.37Zm-7.15,4.77v-1.37H48.7v1.37Zm7-11.5V282H41.67v-1.37Zm-1.35,14.95H43v4.5h4.27Zm5.2-.07c-.3,2.17-.85,4.55-2.2,5.95L49,300.61c1.22-1.22,1.83-3.42,2.08-5.47Zm4.37-13.35a25.16,25.16,0,0,1-.83,3.35,24.61,24.61,0,0,1,3.07,1.77l-.85,1.33a24.4,24.4,0,0,0-2.8-1.72,9.89,9.89,0,0,1-4.65,4.8,5.26,5.26,0,0,0-1-1.2,9,9,0,0,0,4.32-4.3,31.66,31.66,0,0,0-3.37-1.42l.82-1.2c1,.35,2,.77,3.1,1.25a17,17,0,0,0,.65-2.65H50.87v-1.45H61.39l.73,0,.9.1c-.15,1-.15,8.42-1.17,9.57-.6.72-1.22.72-2.4.72-.62,0-1.4,0-2.17-.07a3.17,3.17,0,0,0-.45-1.47c1.32.1,1.87.1,3,.1a.74.74,0,0,0,.65-.25c.42-.5.67-2.32.88-7.22Zm-1.7,18.22c0,.58.1.67.83.67h2.45c.65,0,.77-.32.83-2.82a5.59,5.59,0,0,0,1.42.63c-.15,3-.6,3.7-2.1,3.7h-2.8c-1.77,0-2.2-.47-2.2-2.17v-6l2,.15c0,.15-.18.28-.48.33Zm3.15-5.07a19.78,19.78,0,0,0-4.45-3.55l1.08-1a20.44,20.44,0,0,1,4.5,3.45Zm4.27,6.1a17.65,17.65,0,0,0-2.77-6.07l1.37-.55a18.17,18.17,0,0,1,2.92,6Z"/><path class="cls-1" d="M88.22,288.28H79.69a25.47,25.47,0,0,0,9.17,4.85,7.76,7.76,0,0,0-1.15,1.42c-.78-.28-1.6-.6-2.42-1v9.3H83.62v-.8H70.85v.9H69.22v-9.45a22.48,22.48,0,0,1-2.8,1.25,7.74,7.74,0,0,0-1.1-1.32,25.84,25.84,0,0,0,9-5.17H66v-1.45h5.65a15.29,15.29,0,0,0-1.9-3.27l1.45-.55a13,13,0,0,1,2,3.45l-.95.38h3.9v-4.22c-2.8.22-5.72.4-8.42.5a6,6,0,0,0-.37-1.3,128.14,128.14,0,0,0,17.29-1.75l1.22,1.35s-.12,0-.22,0a1.1,1.1,0,0,1-.27,0c-2,.4-4.65.75-7.55,1v4.37h3.55c-.28-.12-.55-.23-.73-.3a23.31,23.31,0,0,0,2.25-4l2,.75q-.11.23-.53.23a37.16,37.16,0,0,1-2.15,3.32h5.95Zm-12,.25a26.34,26.34,0,0,1-6.37,4.7H84.57a25.43,25.43,0,0,1-6.72-4.77v4.3H76.17Zm.05,8.42v-2.37H70.85V297Zm-5.37,1.25v2.5h5.37v-2.5ZM83.62,297v-2.37h-5.8V297Zm-5.8,3.75h5.8v-2.5h-5.8Z"/><path class="cls-1" d="M113.54,291.76H98.25c-.22.75-.52,1.58-.8,2.42h11.3l.4-.08,1.07.35a1.85,1.85,0,0,1-.15.45c-.67,4.6-1.33,6.57-2.27,7.4-.62.58-1.2.7-2.9.7-.9,0-2.17-.05-3.5-.15a3.19,3.19,0,0,0-.58-1.57c1.83.15,3.67.17,4.35.17a2,2,0,0,0,1.22-.22c.72-.55,1.25-2.12,1.77-5.47H96.87c-.25.68-.47,1.3-.7,1.83-1-.2-1.37-.28-1.8-.33a54.11,54.11,0,0,0,2-5.5H90.6v-1.55h22.94ZM110,281v7.22H94.37V281Zm-1.72,5.7v-4.17H96v4.17Z"/><path class="cls-1" d="M129.64,291.33a2.57,2.57,0,1,1-2.57-2.57A2.57,2.57,0,0,1,129.64,291.33Z"/><path class="cls-1" d="M151.17,291.06v-5.95h-8.22v3.65h-1.52v-4.9h9.75v-1.67h-8.32v-1.35h18.45v1.35h-8.47v1.67h9.95v4.9h-1.6v-3.65h-8.35v5.95Zm1.55,9.25c0,.85.33,1,2,1h5.82c1.38,0,1.6-.45,1.75-3.07a4.75,4.75,0,0,0,1.47.57c-.25,3.1-.8,3.88-3.12,3.88h-6c-2.7,0-3.47-.45-3.47-2.42v-.87H145.2v1.33h-1.62v-8.8h17.15v7.47h-8Zm-8.87-10v-1.12h5.95v1.13Zm.5-3.72h5.42v1.13h-5.42Zm6.77,6.6H145.2v1.85h5.92Zm-5.92,4.92h5.92v-1.9H145.2ZM159,295.06v-1.85h-6.32v1.85Zm-6.32,3.07H159v-1.9h-6.32Zm1.53-11.52h5.55v1.13h-5.55Zm0,3.72v-1.12h6.17v1.13Z"/><path class="cls-1" d="M165.42,285.43V284h9.37v1.42Zm8.62,9v7.35h-6v1.17h-1.48v-8.52Zm-.08-6.9v1.37H166.6v-1.37Zm-7.37,4.82V291H174v1.38Zm7.35-11.7V282h-7.2v-1.37Zm-1.4,15.2H168v4.5h4.5Zm16.4-6.92h-6.15v4.27h4.82v9.62h-1.67v-1.12h-7.8V303h-1.6v-9.8h4.55v-4.27H175v-1.6h6.12V283c-1.7.28-3.47.5-5.12.68a5.86,5.86,0,0,0-.5-1.4,59.33,59.33,0,0,0,11-2.12l1.4,1.45a.37.37,0,0,1-.25.08.92.92,0,0,1-.25,0,36.3,36.3,0,0,1-4.55,1.08v4.62h6.15Zm-3,11.22v-5.4h-7.8v5.4Z"/><path class="cls-1" d="M213.22,288.28h-8.52a25.47,25.47,0,0,0,9.17,4.85,7.76,7.76,0,0,0-1.15,1.42c-.78-.28-1.6-.6-2.42-1v9.3h-1.67v-.8H195.85v.9h-1.62v-9.45a22.48,22.48,0,0,1-2.8,1.25,7.74,7.74,0,0,0-1.1-1.32,25.84,25.84,0,0,0,9-5.17H191v-1.45h5.65a15.29,15.29,0,0,0-1.9-3.27l1.45-.55a13,13,0,0,1,2,3.45l-.95.38h3.9v-4.22c-2.8.22-5.72.4-8.42.5a6,6,0,0,0-.37-1.3,128.14,128.14,0,0,0,17.29-1.75l1.22,1.35s-.12,0-.22,0a1.1,1.1,0,0,1-.27,0c-2,.4-4.65.75-7.55,1v4.37h3.55c-.28-.12-.55-.23-.73-.3a23.31,23.31,0,0,0,2.25-4l2,.75q-.11.23-.53.23a37.16,37.16,0,0,1-2.15,3.32h5.95Zm-12,.25a26.34,26.34,0,0,1-6.37,4.7h14.77a25.43,25.43,0,0,1-6.72-4.77v4.3h-1.67Zm.05,8.42v-2.37h-5.37V297Zm-5.37,1.25v2.5h5.37v-2.5ZM208.62,297v-2.37h-5.8V297Zm-5.8,3.75h5.8v-2.5h-5.8Z"/><path class="cls-1" d="M238.54,291.76h-15.3c-.22.75-.52,1.58-.8,2.42h11.3l.4-.08,1.07.35a1.85,1.85,0,0,1-.15.45c-.67,4.6-1.33,6.57-2.27,7.4-.62.58-1.2.7-2.9.7-.9,0-2.17-.05-3.5-.15a3.19,3.19,0,0,0-.58-1.57c1.83.15,3.67.17,4.35.17a2,2,0,0,0,1.22-.22c.72-.55,1.25-2.12,1.77-5.47h-11.3c-.25.68-.47,1.3-.7,1.83-1-.2-1.37-.28-1.8-.33a54.11,54.11,0,0,0,2-5.5h-5.8v-1.55h22.94ZM235,281v7.22H219.37V281Zm-1.72,5.7v-4.17H221v4.17Z"/><path class="cls-1" d="M253.52,284.28a.65.65,0,0,1-.62.4c-.9,7.77-3.5,14.55-7.65,14.55-2.1,0-4-2.1-4-6a11,11,0,0,1,11.25-11c7.22,0,10.35,4.57,10.35,9.45,0,5.95-3.45,8.82-9.5,10.22a9.74,9.74,0,0,0-1-1.52c5.75-1.1,8.7-3.9,8.7-8.62,0-4.12-2.65-7.87-8.5-7.87a7,7,0,0,0-.75,0Zm-2.4-.33a9.2,9.2,0,0,0-8.17,9.17c0,2.67,1.15,4.35,2.35,4.35C248.32,297.48,250.5,290.81,251.12,284Z"/><path class="cls-1" d="M288.34,283.28h-10.6l-.28.08v4.35l.13-.15a65.13,65.13,0,0,1,9.35,5.47l-1.17,1.5a62.41,62.41,0,0,0-8.3-5.17v13.57H275.7V283.28h-9.87v-1.67h22.52Z"/><path class="cls-1" d="M303.52,284.28a.65.65,0,0,1-.62.4c-.9,7.77-3.5,14.55-7.65,14.55-2.1,0-4-2.1-4-6a11,11,0,0,1,11.25-11c7.22,0,10.35,4.57,10.35,9.45,0,5.95-3.45,8.82-9.5,10.22a9.74,9.74,0,0,0-1-1.52c5.75-1.1,8.7-3.9,8.7-8.62,0-4.12-2.65-7.87-8.5-7.87a7,7,0,0,0-.75,0Zm-2.4-.33a9.2,9.2,0,0,0-8.17,9.17c0,2.67,1.15,4.35,2.35,4.35C298.32,297.48,300.5,290.81,301.12,284Z"/><path class="cls-1" d="M37.14,330.16H28.69l.43.13a.54.54,0,0,1-.5.3c-.67,4.65-2.37,8.8-7.72,11.42a13.27,13.27,0,0,0-1.35-1.25c5.2-2.5,6.65-6,7.22-10.6H17v-1.67H37.14Zm-2.47-7H19.32v-1.67H34.67Z"/><path class="cls-1" d="M53,334.08l.9,7.85-1.8.2-.87-7.82-9.37,1.2-.22-1.65,9.42-1.2L50.4,327l-7.85,1-.23-1.67,7.87-1-.55-4.95,2.45-.1c0,.25-.22.45-.57.55l.45,4.25,7.6-1,.2,1.7-7.6,1,.65,5.6,9.4-1.17.22,1.65Z"/><path class="cls-1" d="M83.82,322.91a.52.52,0,0,1-.33.27,38.66,38.66,0,0,1-5,8.6,91.92,91.92,0,0,1,9.15,8.47l-1.52,1.32a81.56,81.56,0,0,0-8.77-8.4,39.35,39.35,0,0,1-9.62,8.4,9.36,9.36,0,0,0-1.3-1.35,35.84,35.84,0,0,0,14.65-16.32H68.8v-1.7H82l.33-.12Z"/><path class="cls-1" d="M109.12,333.63a90.2,90.2,0,0,0-8.77-4.07v12.5H98.47V320.34l2.52.15c0,.28-.22.45-.65.53v7.3l.38-.53a87,87,0,0,1,9.4,4.17Z"/><path class="cls-1" d="M122.62,331.31a21.12,21.12,0,0,1-4.7,7.4l-1.45-1a17.71,17.71,0,0,0,4.52-7Zm5.35-3.85v11.82C128,342,126,342,122,342a8.23,8.23,0,0,0-.55-1.67c.73,0,1.53,0,2.2,0h1.45a1,1,0,0,0,1-1V327.46h-8.5v-1.67h8.5v-5.2l2.37.13c0,.25-.2.42-.58.48v4.6h8.45v1.67Zm4.47,3.07a48.08,48.08,0,0,1,5.27,7.27l-1.6.92a46.55,46.55,0,0,0-5.1-7.42Zm-.3-10.17a20.06,20.06,0,0,1,3.13,3.65l-1,.72a19.37,19.37,0,0,0-3.12-3.62Zm3.6-1.12a19.86,19.86,0,0,1,3.15,3.62l-1,.75a22.25,22.25,0,0,0-3.12-3.62Z"/><path class="cls-1" d="M145.22,327a27,27,0,0,1,1.88,5.37l-1.4.38a28,28,0,0,0-1.82-5.32Zm14.92.17c-.05.22-.3.27-.53.25-1.95,7.3-5.62,11.77-11.67,14.22a6.84,6.84,0,0,0-1-1.15c6-2.35,9.4-6.45,11.22-13.9Zm-8.85-1.37a34.16,34.16,0,0,1,1.17,5.67l-1.47.27a30,30,0,0,0-1.17-5.62Z"/><path class="cls-1" d="M185.79,325.08a1.68,1.68,0,0,1-.37.35c-2.62,8.1-6.72,13.3-13.62,16.8a6.54,6.54,0,0,0-1.28-1.37,23.47,23.47,0,0,0,12.67-14.8h-8.92a25.58,25.58,0,0,1-5.6,6.17,9.89,9.89,0,0,0-1.42-1.15,25.4,25.4,0,0,0,8-10.85l2.37.67c-.1.25-.4.33-.72.33-.5,1.1-1,2.15-1.6,3.15h8.8l.3-.15Z"/><path class="cls-1" d="M208.82,322.91a.52.52,0,0,1-.33.27,38.66,38.66,0,0,1-5,8.6,91.92,91.92,0,0,1,9.15,8.47l-1.52,1.32a81.56,81.56,0,0,0-8.77-8.4,39.35,39.35,0,0,1-9.62,8.4,9.36,9.36,0,0,0-1.3-1.35,35.84,35.84,0,0,0,14.65-16.32H193.8v-1.7H207l.33-.12Z"/><path class="cls-1" d="M221.15,321.49c-.08.27-.33.42-.82.4A59.94,59.94,0,0,0,219,333.13a27.52,27.52,0,0,0,.33,4.95c.47-1.22,1.55-3.85,1.9-4.72l1,1.1c-1,2.52-1.77,3.95-2.12,5.07a4.28,4.28,0,0,0-.2,1.17,2.64,2.64,0,0,0,.13.78l-1.78.33a27.44,27.44,0,0,1-1.1-8.6A73.11,73.11,0,0,1,218.52,321Zm15.92,18.27c-.9,0-1.82.08-2.75.08a34.42,34.42,0,0,1-4.65-.28c-3.07-.45-4.5-2.15-4.5-4.15,0-1.72.95-3.17,2.35-4.82l1.62.7c-1.25,1.3-2.12,2.5-2.12,3.92,0,2.9,4.25,2.9,6.85,2.9,1,0,2.17-.05,3.22-.12ZM225.5,324.48a81.73,81.73,0,0,0,10.9-.95l.15,1.75a94.53,94.53,0,0,1-11,.92Z"/><path class="cls-1" d="M250.9,326.06V341c0,1.77-.9,1.87-4.22,1.87a4.63,4.63,0,0,0-.53-1.45c1.38,0,2.5,0,2.82,0s.5-.12.5-.47v-4.85h-6a15.55,15.55,0,0,1-1.9,6.77,6,6,0,0,0-1.22-.78c1.67-2.67,1.85-6.45,1.85-9.3v-5c-.22.3-.45.6-.67.85a8.51,8.51,0,0,0-1.17-.9,20.78,20.78,0,0,0,3.85-8.15l1.92.53c-.07.17-.22.25-.52.25l-.45,1.47h3.17l.25-.08,1.12.72a.42.42,0,0,1-.32.17,29.54,29.54,0,0,1-1.62,3.37Zm-4.72,0a17.33,17.33,0,0,0,1.3-2.82H244.6a26.69,26.69,0,0,1-1.32,2.82Zm-2.6,5.65v1.12c0,.6,0,1.28,0,2h2.32v-3.07Zm0-4.3v3h2.27v-3Zm3.52,0v3h2.37v-3Zm0,7.37h2.37v-3.07H247.1Zm13.9.8a28,28,0,0,1,2.87,6.75l-1.45.58a17.57,17.57,0,0,0-.62-2.15c-3.55.42-7.15.8-9.45,1a.4.4,0,0,1-.35.35l-.6-1.92c1.37-.1,3.17-.23,5.17-.4v-5.62h-4.35v-9.4h4.35v-5.17l2.07.13c0,.17-.17.3-.5.35v4.7h4.57v9.4h-4.57v5.5l3.12-.27a30.28,30.28,0,0,0-1.62-3.37Zm-7.3-2.87h2.88v-6.47h-2.88Zm7.52-6.47h-3.07v6.47h3.07Z"/><path class="cls-1" d="M266.62,325.36a24.27,24.27,0,0,0,4.7-.37c0-1.5.08-2.32.17-4.6l2.58.2c-.05.28-.28.45-.7.5-.1,1.1-.2,2.65-.25,3.57l.77.3a13,13,0,0,0-1,3.57c2.75-2.57,5.8-4.4,7.87-4.4,2.35,0,3.52,1.65,3.52,4.55,0,.33,0,.65,0,1-.17,2.2-.42,5.32-.42,7.32,0,1.5.17,2.3,1.22,2.3a6.79,6.79,0,0,0,3.32-1.67,17.1,17.1,0,0,0,.35,1.9,7.56,7.56,0,0,1-3.92,1.63c-2.1,0-2.8-1.25-2.8-3.85,0-1.3.45-8.17.45-8.2,0-2.17-.75-3.15-2-3.15-1.87,0-5,2-7.62,4.77,0,3.62,0,8.07,0,11.47h-1.75c0-1.45,0-8.57,0-10.17a26.1,26.1,0,0,1-4.55,6l-.9-1.58a25.36,25.36,0,0,0,5.5-7.55c0-.72,0-1.4.05-2.2a25.86,25.86,0,0,1-4.6.42Z"/><path class="cls-1" d="M299,330.61a15.14,15.14,0,0,1,6.2-1.45c4,0,6.47,2.32,6.47,6,0,4.52-4,7-9,7-3.25,0-5.47-1.3-5.47-3.5,0-1.85,1.82-3.35,4.1-3.35a5.27,5.27,0,0,1,5.1,4.52,4.9,4.9,0,0,0,3.45-4.67c0-2.7-2-4.42-5.15-4.42A14.24,14.24,0,0,0,295.6,334c-.75.7-1.72,1.75-2.4,2.52l-1.27-1.27c2.25-2.35,9.4-9.17,12.8-12.35-1.45.2-6.45.4-9.3.5a.83.83,0,0,1-.53.38l-.2-2.12c3.37,0,9.82-.28,11.65-.55l.38-.17,1.33,1.63a1.21,1.21,0,0,1-.6.22c-1.78,1.45-6.52,5.9-8.47,7.77Zm3.45,10a10.9,10.9,0,0,0,2.27-.25,3.85,3.85,0,0,0-3.55-3.55c-1.3,0-2.45.7-2.45,1.85C298.7,340.18,300.77,340.61,302.42,340.61Z"/><path class="cls-1" d="M335,328.51a.5.5,0,0,1-.2,0,1,1,0,0,1-.52-.15c-7.42,2.17-14.15,5.45-14.12,8.8,0,2.4,2.65,3.22,6.7,3.22a60.06,60.06,0,0,0,8.85-.57l.15,1.82a80.71,80.71,0,0,1-8.95.45c-4.95,0-8.55-1.15-8.57-4.82,0-2.67,2.65-5,6.57-7-.85-1.53-1.15-4.42-1.15-10.07l2.75.23c0,.32-.27.52-.77.6,0,4.37.13,7.1.82,8.45a70.6,70.6,0,0,1,7.8-3Z"/><path class="cls-1" d="M37.14,370.06H28.69l.43.13a.54.54,0,0,1-.5.3c-.67,4.65-2.37,8.8-7.72,11.42a13.27,13.27,0,0,0-1.35-1.25c5.2-2.5,6.65-6,7.22-10.6H17v-1.67H37.14Zm-2.47-7H19.32v-1.67H34.67Z"/><path class="cls-1" d="M43.45,362.26a31.06,31.06,0,0,1,7.45,3.4l-1,1.58a31.88,31.88,0,0,0-7.3-3.47Zm-.1,17.32c8.87-2.75,14.77-7.72,17.77-14.65a9.68,9.68,0,0,0,1.62,1c-3.12,6.85-9.22,12.17-17.7,15a.82.82,0,0,1-.35.57Z"/><path class="cls-1" d="M78,374l.9,7.85-1.8.2-.87-7.82-9.37,1.2-.22-1.65,9.42-1.2-.65-5.62-7.85,1-.23-1.67,7.87-1-.55-4.95,2.45-.1c0,.25-.22.45-.57.55L77,365l7.6-1,.2,1.7-7.6,1,.65,5.6,9.4-1.17.22,1.65Z"/><path class="cls-1" d="M91.5,369.81h20.87v1.77H92.45a1.15,1.15,0,0,1-.8.47Z"/><path class="cls-1" d="M125.15,360.73c0,.3-.35.42-.82.45-.28,1.4-.73,3.82-1,5.32,1.13-.12,2.15-.23,2.77-.23,3.8,0,5.1,2.47,5.1,6.22a19.49,19.49,0,0,1-.85,5.6c-.77,2.55-2.37,3.77-4.45,3.77-1,0-2.37-.42-4.52-2.17a9.48,9.48,0,0,0,.67-1.52c2,1.55,3,1.9,3.82,1.9,1.42,0,2.27-.9,2.77-2.5a18.89,18.89,0,0,0,.8-5.12c0-2.85-1-4.55-3.45-4.52a29,29,0,0,0-3,.25,47.92,47.92,0,0,1-5.12,13.5l-1.65-.8a40.88,40.88,0,0,0,5-12.5c-1.28.15-3.1.38-4.45.6l-.15-1.75,4.95-.58c.38-1.82.77-4.07,1.07-6.27Zm5.8-.77a17.59,17.59,0,0,1,3.35,3.5l-1,.7a16.63,16.63,0,0,0-3.3-3.47Zm5.6,14.55a15.74,15.74,0,0,0-5.1-8.52l1.45-1a16.56,16.56,0,0,1,5.45,8.82ZM134.72,359a16.36,16.36,0,0,1,3.37,3.47l-1,.73a16.77,16.77,0,0,0-3.3-3.5Z"/><path class="cls-1" d="M160.24,372.28l2.22.15c0,.17-.15.3-.5.33v9.95h-1.72v-1.57H144v1.65h-1.67v-10.5l2.2.13c0,.2-.18.32-.53.35v6.72h7.1v-8.87h-7.82V362l2.2.15c0,.15-.17.28-.52.33V369h6.15v-9.32l2.22.15c0,.17-.18.3-.5.35V369h6.4v-7l2.22.15c0,.18-.15.3-.5.35v8.17h-8.12v8.87h7.42Z"/><path class="cls-1" d="M166.62,362.91c1.87-.08,17.27-1.17,20.52-1.2l0,1.87c-.33,0-.62,0-.92,0a7.2,7.2,0,0,0-4.27,1.28c-3.75,2.25-7.37,6.27-7.37,9.5,0,3.5,2.45,5.57,8.65,6.37l-.83,1.75c-7.1-1-9.75-3.67-9.75-8.12,0-3.52,3.47-7.8,8-10.67-2.65.17-10.12.75-13.35,1a.76.76,0,0,1-.55.4Z"/><path class="cls-1" d="M211.92,368.48a37.34,37.34,0,0,1-7.55,1.55,9.25,9.25,0,0,0,4.12,3.92l-1,1.42c-.35-.17-1-.47-1.45-.75a10.48,10.48,0,0,0-2.95-.37c-.35,0-.7,0-1,0l-.35-1.37a17,17,0,0,1,2.8.1,12.59,12.59,0,0,1-2-2.82,62.92,62.92,0,0,1-6.7.25c-1.22,0-2.6,0-3.72,0l0-1.58c1.13,0,2.57.05,3.82.05,2,0,4.07,0,6.1-.18-.28-.77-.67-2.2-1-3.32-1,.1-2.12.15-3.15.15-1.35,0-3.07,0-4.25,0V364c1.5.08,3.15.08,4.22.08.9,0,1.92,0,2.87-.12-.22-1.15-.47-2.52-.67-3.92l2.58,0c0,.3-.23.47-.67.55.15,1.08.32,2.22.52,3.2a26.16,26.16,0,0,0,6.7-1.45l.42,1.55a30.31,30.31,0,0,1-6.8,1.42,29.43,29.43,0,0,0,.95,3.27,35.9,35.9,0,0,0,7.8-1.65Zm-4.4,13.22c-1.37.1-3,.15-5.5.15-4,0-7.2-1.32-7.15-4.15,0-1.48,1.32-3,2.95-3.95l1.13,1.15c-1.45.77-2.3,1.82-2.3,2.77,0,1.77,2.2,2.55,5.37,2.57,1.87,0,3.85-.1,5.55-.22Z"/><path class="cls-1" d="M217.47,363.41c1.55.1,3.62.1,5.32.1,1.13,0,2.4,0,3.45,0,0-1.2,0-2.6,0-3.47l2.52.13c0,.3-.25.45-.67.52,0,.4,0,2.32,0,2.75a49,49,0,0,0,8.3-1l.23,1.65a51.3,51.3,0,0,1-8.52,1c0,1.5,0,3,.1,4.6a42,42,0,0,0,7-1l.2,1.63a47.72,47.72,0,0,1-7.22.87l.2,4.17a27.75,27.75,0,0,1,7.35,3.9l-1.1,1.52a24.37,24.37,0,0,0-6.2-3.67c0,.4,0,.85,0,1.17,0,2.37-1.45,3.75-4.47,3.75s-5.5-1.3-5.5-3.65,2.72-3.72,5.52-3.72a11,11,0,0,1,2.62.3c0-1.07-.08-2.37-.1-3.72-.8,0-1.7,0-2.42,0-4.27,0-5.47-.67-5.47-2.12,0-.95.72-1.72,2.32-2.75l1.2.77c-1.12.63-1.72,1.17-1.72,1.67,0,.75,1.17.9,4.35.9.55,0,1.13,0,1.67,0l-.15-4.62c-1.07,0-2.32,0-3.45,0-1.6,0-3.87,0-5.37,0Zm9.25,13a10.52,10.52,0,0,0-2.8-.4c-1.9,0-3.82.77-3.82,2.27s1.75,2.2,3.92,2.2c2,0,2.72-.87,2.72-2.62Z"/><path class="cls-1" d="M252.82,363.66c0-.55-.1-3.27-.15-3.9l2.57.1c0,.2-.2.45-.65.52,0,.3,0,.6,0,3.22,3.07-.1,6.3-.18,8.17-.2v1.72c-2.12,0-5.15,0-8.12.1,0,2,.1,3.75.17,5.12a8.51,8.51,0,0,1,.3,2.62,10.79,10.79,0,0,1-.25,2.42c-.65,2.92-2.8,5.5-7.2,7.25a13.67,13.67,0,0,0-1.28-1.42c3.82-1.37,5.87-3.45,6.5-5.82h0a3.14,3.14,0,0,1-2.57,1.32,4.26,4.26,0,0,1-4.2-4.37,4.6,4.6,0,0,1,4.5-4.67,3.7,3.7,0,0,1,2.32.78c0-.42,0-2.1-.1-3.17-2.6.05-10.5.33-11.52.38l0-1.65,5.7-.15Zm.47,8.77c0-1,0-3.25-2.55-3.25a3,3,0,0,0-3,3.17,2.8,2.8,0,0,0,2.77,2.9A2.69,2.69,0,0,0,253.29,372.43Z"/><path class="cls-1" d="M278.52,364.08a.65.65,0,0,1-.62.4c-.9,7.77-3.5,14.55-7.65,14.55-2.1,0-4-2.1-4-6a11,11,0,0,1,11.25-11c7.22,0,10.35,4.57,10.35,9.45,0,5.95-3.45,8.82-9.5,10.22a9.74,9.74,0,0,0-1-1.52c5.75-1.1,8.7-3.9,8.7-8.62,0-4.12-2.65-7.87-8.5-7.87a7,7,0,0,0-.75,0Zm-2.4-.33a9.2,9.2,0,0,0-8.17,9.17c0,2.67,1.15,4.35,2.35,4.35C273.32,377.28,275.5,370.61,276.12,363.76Z"/><path class="cls-1" d="M291.62,362.91c1.87-.08,17.27-1.17,20.52-1.2l0,1.87c-.33,0-.62,0-.92,0a7.2,7.2,0,0,0-4.27,1.28c-3.75,2.25-7.37,6.27-7.37,9.5,0,3.5,2.45,5.57,8.65,6.37l-.83,1.75c-7.1-1-9.75-3.67-9.75-8.12,0-3.52,3.47-7.8,8-10.67-2.75.2-10.12.75-13.35,1a.76.76,0,0,1-.55.4Zm16.2,4.92a18.39,18.39,0,0,1,3.4,3.45l-.95.77a16.66,16.66,0,0,0-3.3-3.47Zm2.7-2.2a15.81,15.81,0,0,1,3.4,3.45l-.95.75a17.7,17.7,0,0,0-3.3-3.45Z"/><path class="cls-1" d="M26.47,401h1.7c0,4.47.58,14.17,10.67,20.17a9.21,9.21,0,0,0-1.35,1.42A22.16,22.16,0,0,1,27.2,408c-1.8,6.67-5,11.67-10.3,14.57a11.51,11.51,0,0,0-1.4-1.27c5.52-2.87,8.75-8.2,10.32-15.47l1,.25a25.64,25.64,0,0,1-.33-3.4H20.15V401h6.32Z"/><path class="cls-1" d="M60.59,405c.38,0,.42,0,.8,0l1,.1a4.79,4.79,0,0,1,0,.58c-.37,11-.75,14.7-1.75,15.85-.7.88-1.5,1-3.12,1-.85,0-1.92,0-3-.1a3.74,3.74,0,0,0-.6-1.75c1.77.15,3.37.17,4,.17a1.29,1.29,0,0,0,1.1-.37c.83-.83,1.22-4.42,1.55-13.77h-9c-.35,5.3-2,11.47-9.47,16a6,6,0,0,0-1.3-1.33,17.41,17.41,0,0,0,9-14.72h-8.3V405H49.9c0-.45,0-.87,0-1.3v-4.25l2.25.15c0,.17-.17.3-.5.35v3.75c0,.43,0,.85,0,1.3Z"/><path class="cls-1" d="M73.65,400.51c-.05.3-.28.48-.78.55-.2,2.9-.45,9.52-.45,13.22s1.85,5.52,5,5.52,6.15-1.52,9-4.75a10,10,0,0,0,1.13,1.47c-2.92,3.32-6.47,5.07-10.15,5.07-4.55,0-6.87-2.62-6.87-7.35,0-3.15.23-10.9.4-14Z"/><path class="cls-1" d="M91.62,402.81c1.87-.08,17.27-1.17,20.52-1.2l0,1.87c-.33,0-.62,0-.92,0a7.2,7.2,0,0,0-4.27,1.28c-3.75,2.25-7.37,6.27-7.37,9.5,0,3.5,2.45,5.57,8.65,6.37l-.83,1.75c-7.1-1-9.75-3.67-9.75-8.12,0-3.52,3.47-7.8,8-10.67-2.65.17-10.12.75-13.35,1a.76.76,0,0,1-.55.4Z"/><path class="cls-1" d="M120.4,417.58a12.37,12.37,0,0,1-3.07,5.1L115.8,422a11.31,11.31,0,0,0,3-4.82Zm-1.9-3.25v1.57h-1.57V400.54h7.2v13.8Zm4-12.27h-4v4.52h4Zm-4,10.75h4v-4.7h-4Zm5.25,9.62a30.42,30.42,0,0,0-.53-4.62l1.53-.15a25.52,25.52,0,0,1,.65,4.52Zm14-21.82a1.87,1.87,0,0,1-.07.5c-.37,6.45-.73,6.45-3.52,6.45-.53,0-1.17,0-1.8-.08a3.81,3.81,0,0,0-.45-1.4c1.15.1,2.22.13,2.63.13a1,1,0,0,0,.77-.23c.33-.32.55-1.4.72-4h-4.6c-.55,2.92-1.8,5.15-5.87,6.37a4.6,4.6,0,0,0-1-1.27c3.42-.95,4.65-2.62,5.15-5.1h-4.2v-1.5h10.92l.38,0Zm-.75,8.3v6.92h-10.7v-6.92Zm-1.65,5.5v-4.07h-7.45v4.07Zm-5.37,8a23.78,23.78,0,0,0-1.58-4.65l1.58-.3a23.91,23.91,0,0,1,1.65,4.57Zm7,.25a28.71,28.71,0,0,0-3.37-5.07l1.55-.55a28.85,28.85,0,0,1,3.47,5Z"/><path class="cls-1" d="M153.54,399.51a.66.66,0,0,1-.53.38,28.64,28.64,0,0,0,10.9,8.45,7.14,7.14,0,0,0-1.07,1.5c-4-1.95-8.47-5.37-10.87-8.75a29.74,29.74,0,0,1-10.62,8.85,7.67,7.67,0,0,0-1-1.35c4.4-2.12,8.72-5.87,10.7-9.22Zm-11.87,14.27v-1.6h21v1.6h-12l.3.1c-.08.17-.28.25-.6.28a63.6,63.6,0,0,1-2.95,5.8c3.32-.07,7.2-.2,11-.32a40.09,40.09,0,0,0-3.67-3.75l1.42-.78a34.35,34.35,0,0,1,6,6.67l-1.5.95a17.72,17.72,0,0,0-1.22-1.75c-6.07.32-12.52.6-16.52.72a.42.42,0,0,1-.4.35l-.62-2c1,0,2.27,0,3.65-.08a54.54,54.54,0,0,0,3-6.2Zm4.27-6.45h12.12v1.57H145.95Z"/><path class="cls-1" d="M187.49,410.13a.35.35,0,0,1-.15,0A.63.63,0,0,1,187,410c-1.9.62-4.67,1.65-6.75,2.55q.07.86.07,1.95c0,.8,0,1.7-.07,2.67l-1.83.1c.08-.9.13-2,.13-3,0-.37,0-.73,0-1-2.82,1.37-5.12,3-5.12,4.55s1.72,2.15,5.17,2.15a55.94,55.94,0,0,0,6.27-.25l0,1.67c-1.47.15-3.72.2-6.3.2-4.8,0-6.92-1.15-6.92-3.7,0-2.2,2.9-4.32,6.65-6.2-.15-1.57-.85-2.35-1.85-2.35-1.82,0-3.72,1-6,3.52-.7.78-1.67,1.75-2.75,2.72l-1.22-1.22c2.5-2.2,4.85-4.3,6.3-9.22l-1.4,0H167.2v-1.62c1.53,0,3.3,0,4.32,0l1.7,0a32.41,32.41,0,0,0,.67-3.57l2.45.3c-.05.25-.25.4-.62.45-.17,1-.4,1.87-.62,2.77a34.2,34.2,0,0,0,8.6-1.45l.3,1.67a37.73,37.73,0,0,1-9.37,1.4,18.21,18.21,0,0,1-1.8,4.22h0a6.64,6.64,0,0,1,4-1.62c1.7,0,2.77,1.22,3.1,3.25,2.1-.95,4.75-2,6.75-2.75Z"/><path class="cls-1" d="M198.15,400.26c-.05.13-.25.23-.55.18a34.36,34.36,0,0,1-6.27,5.77,8.33,8.33,0,0,0-1-1.35,24,24,0,0,0,5.85-5.42Zm-3.82,22.39v-11a34.09,34.09,0,0,1-2.85,2.85,10.21,10.21,0,0,0-1.07-1.3,31.89,31.89,0,0,0,6.85-8.37l2,.8a.51.51,0,0,1-.58.2,38.62,38.62,0,0,1-2.57,3.75l.45.15c0,.15-.2.28-.5.33v12.6Zm19.32-14.37v1.63h-4v10.57c0,2.1-.8,2.15-5.85,2.15a6.37,6.37,0,0,0-.55-1.65c1.1,0,2.13,0,2.9,0,1.63,0,1.8,0,1.8-.58V409.91h-8.7v-1.62Zm-1-7.27v1.6H200.22V401Z"/><path class="cls-1" d="M218.1,409.31c.45-.1,1.37-.35,2.22-.6a37.28,37.28,0,0,1,9-1.77c3.38,0,6.4,1.8,6.4,5.87,0,5.5-5.45,7.52-12.12,8a12.36,12.36,0,0,0-.5-1.53c5.87-.42,10.85-2.12,10.85-6.42,0-3.12-2.22-4.47-4.87-4.45a31.06,31.06,0,0,0-8.37,1.83c-.58.2-1.2.42-1.6.55a.63.63,0,0,1-.4.42Z"/><path class="cls-1" d="M241.62,402.81c1.87-.08,17.27-1.17,20.52-1.2l0,1.87c-.33,0-.62,0-.92,0a7.2,7.2,0,0,0-4.27,1.28c-3.75,2.25-7.37,6.27-7.37,9.5,0,3.5,2.45,5.57,8.65,6.37l-.83,1.75c-7.1-1-9.75-3.67-9.75-8.12,0-3.52,3.47-7.8,8-10.67-2.65.17-10.12.75-13.35,1a.76.76,0,0,1-.55.4Z"/><path class="cls-1" d="M281.22,422.46a75.9,75.9,0,0,0-9.8-9.3c-1.25-1-1.7-1.7-1.7-2.6a3.2,3.2,0,0,1,1.33-2.27c2.27-2.1,6.55-6.15,8.95-8.6l2.13,1.4a.74.74,0,0,1-.55.25,1.27,1.27,0,0,1-.3,0c-2.5,2.4-6.4,5.8-8.45,7.72-.6.58-1.08,1.08-1.08,1.47s.45.92,1.33,1.58a83.17,83.17,0,0,1,9.87,9.07Z"/><path class="cls-1" d="M305.89,404.91a31.29,31.29,0,0,1-7.67,1.42A66,66,0,0,1,293.65,422l-1.8-.67a53.48,53.48,0,0,0,4.52-14.87c-.5,0-3.85,0-4.6,0l0-1.7c.4,0,.92,0,1.5,0,.23,0,2.72,0,3.37,0,.25-1.6.5-3.35.65-4.87l2.57.25c0,.27-.37.47-.72.5-.15,1.1-.4,2.45-.62,4a28.93,28.93,0,0,0,7-1.4Zm6.67,16.52c-1,.08-2,.13-3,.13a22.38,22.38,0,0,1-5.2-.5,3.47,3.47,0,0,1-2.77-3.45,6,6,0,0,1,1.55-3.62l1.5.65a4.59,4.59,0,0,0-1.3,2.77c0,2,1.9,2.42,6,2.42,1.1,0,2.25,0,3.25-.15Zm-9.77-11.92a29.84,29.84,0,0,1,9.07-1.27v1.7a28.24,28.24,0,0,0-8.65,1.13Zm4.4-8.67a18.7,18.7,0,0,1,3.47,3.4l-.92.8a17.47,17.47,0,0,0-3.37-3.42Zm3.22-1.65a17.05,17.05,0,0,1,3.45,3.37l-.92.8a19.49,19.49,0,0,0-3.35-3.4Z"/><path class="cls-1" d="M337.17,405.18a48.44,48.44,0,0,1-8.32,1.38c1,3.4,2,5.42,4.72,6.6l-1.22,1.52c-1.15-.87-2.32-1.55-5.57-1.72l-.3-1.47a24.17,24.17,0,0,1,2.77.38,13.55,13.55,0,0,1-2.22-5.17c-1.12.1-2.65.15-4.15.15s-4.27,0-5.87-.08v-1.7c1.5.08,3.62.08,5.9.08,1.27,0,2.72,0,3.72-.12-.3-1.35-.57-3.2-.87-5.12l2.67,0c0,.3-.25.47-.65.57.15,1.42.4,3,.68,4.37a42.43,42.43,0,0,0,8.32-1.47Zm-4.47,16.45c-1.2,0-2.47.08-4.65.08-5.22,0-8.92-1.6-8.92-4.95a6.2,6.2,0,0,1,2.25-4.2l1.35,1.07a4.39,4.39,0,0,0-1.8,3.07c0,2.47,3.2,3.27,7.17,3.27,2.17,0,3.45,0,4.72-.12Z"/><path class="cls-1" d="M344.72,402.81c0,.22-.32.38-.67.4a41.12,41.12,0,0,0-.47,6.22c0,.92,0,1.83.1,2.63.3,4.25,2,6.82,3.95,6.8,1,0,2.3-2.55,3.2-5.35a8.73,8.73,0,0,0,1.45,1.08c-1.15,3.37-2.6,6.12-4.67,6.17-3.17.05-5.37-3.8-5.72-8.6-.08-.95-.1-2-.1-3.12a59.62,59.62,0,0,1,.38-6.72Zm16.57,11.62A12.47,12.47,0,0,0,355,405l1.1-1.35a13.72,13.72,0,0,1,7,10.17Z"/><path class="cls-1" d="M372.45,419.16a3.5,3.5,0,1,1-3.5-3.5A3.51,3.51,0,0,1,372.45,419.16Zm-.9,0a2.59,2.59,0,1,0-2.6,2.58A2.58,2.58,0,0,0,371.55,419.16Z"/><path class="cls-1" d="M7.6,1.31H5.76a23.16,23.16,0,0,1-.55,2.5h2V8.29h-2v.85h-.6V5.5A7,7,0,0,1,4,6.63,5.28,5.28,0,0,0,3.6,6a11.7,11.7,0,0,0,1.49-4.7H3.83V.67H7.6Zm-1,6.36V4.42H5.21V7.67Zm6.71.89v.6H9.09v.5H8.44V5.06a5.89,5.89,0,0,1-.77.76,4.34,4.34,0,0,0-.38-.58A8.1,8.1,0,0,0,9.52,1.87H8.26V3.15H7.65V1.26H9.74c.13-.4.25-.83.35-1.26l.86.2c0,.08-.1.12-.24.12-.08.32-.17.63-.27.94h2.75V3.15h-.64V1.87H10.23A12.28,12.28,0,0,1,9.4,3.69h1.22a11.1,11.1,0,0,0,.53-1.39l.79.25c0,.06-.09.09-.21.09-.11.3-.29.7-.46,1.05h1.82V4.3H11.17v1h1.66V5.9H11.17V7h1.66v.56H11.17V8.56ZM10.52,5.34v-1H9.09v1Zm0,1.61V5.9H9.09V7Zm-1.43.56V8.56h1.43V7.51Z"/><path class="cls-1" d="M17.77,1.76v.58H14.05V1.76ZM17.48,6V9H15.1v.49h-.6V6Zm0-2.81v.57h-3V3.17Zm-3,2V4.57h3v.57ZM17.42.39V1H14.57V.39Zm-.56,6.17H15.1V8.42h1.76Zm2.15,0A4.5,4.5,0,0,1,18.11,9l-.53-.35a4,4,0,0,0,.86-2.26ZM20.82,1a10.35,10.35,0,0,1-.34,1.38,10.34,10.34,0,0,1,1.27.73l-.35.55A10.26,10.26,0,0,0,20.24,3a4.08,4.08,0,0,1-1.92,2,2.15,2.15,0,0,0-.43-.5,3.72,3.72,0,0,0,1.79-1.77,13.29,13.29,0,0,0-1.39-.59l.34-.5c.41.14.85.32,1.28.52A7,7,0,0,0,20.17,1H18.36V.42H23l.37,0c-.06.4-.06,3.48-.49,4-.25.3-.5.3-1,.3l-.9,0a1.3,1.3,0,0,0-.19-.61c.55,0,.77,0,1.24,0a.3.3,0,0,0,.27-.1c.18-.21.28-1,.36-3Zm-.7,7.52c0,.24,0,.28.34.28h1c.27,0,.32-.13.34-1.17a2.35,2.35,0,0,0,.59.26c-.06,1.23-.25,1.53-.87,1.53H20.38c-.73,0-.91-.2-.91-.9V6.07l.85.06c0,.06-.07.11-.2.13Zm1.3-2.09A8.19,8.19,0,0,0,19.58,5l.44-.4A8.41,8.41,0,0,1,21.88,6ZM23.18,9A7.28,7.28,0,0,0,22,6.46l.57-.23a7.5,7.5,0,0,1,1.21,2.48Z"/><path class="cls-1" d="M33.78,3.55H30.26a10.53,10.53,0,0,0,3.79,2,3.19,3.19,0,0,0-.47.59c-.32-.11-.66-.25-1-.4V9.57h-.69V9.24H26.61v.37h-.67V5.71a9.32,9.32,0,0,1-1.16.52,3.2,3.2,0,0,0-.45-.55A10.64,10.64,0,0,0,28,3.55H24.6V3h2.33a6.37,6.37,0,0,0-.78-1.35l.6-.23a5.4,5.4,0,0,1,.85,1.42L27.2,3h1.61V1.21c-1.16.09-2.36.17-3.48.21a2.46,2.46,0,0,0-.15-.54A52.9,52.9,0,0,0,32.31.16l.51.56s-.05,0-.09,0h-.11c-.82.16-1.92.31-3.12.42V3H31l-.3-.12a9.59,9.59,0,0,0,.93-1.65l.83.31c0,.06-.1.09-.22.09A15.42,15.42,0,0,1,31.32,3h2.46Zm-5,.1a10.87,10.87,0,0,1-2.63,1.94h6.1a10.49,10.49,0,0,1-2.77-2V5.39h-.69Zm0,3.48v-1H26.61v1Zm-2.22.52v1h2.22v-1Zm5.27-.52v-1H29.49v1ZM29.49,8.67h2.39v-1H29.49Z"/><path class="cls-1" d="M44.23,5H37.92c-.09.31-.22.65-.33,1h4.66l.17,0,.44.14a.81.81,0,0,1-.06.19c-.28,1.9-.55,2.71-.94,3.05s-.5.29-1.2.29c-.37,0-.9,0-1.44-.06A1.32,1.32,0,0,0,39,8.91C39.73,9,40.5,9,40.78,9a.83.83,0,0,0,.51-.09c.3-.23.52-.88.73-2.26H37.35c-.1.28-.2.54-.29.75-.39-.08-.57-.11-.74-.13A22.34,22.34,0,0,0,37.16,5H34.76V4.34h9.47ZM42.78.55v3H36.32v-3ZM42.07,2.9V1.18H37V2.9Z"/><rect class="cls-2" x="4" y="111.35" width="384.26" height="37.84"/><rect class="cls-3" x="4" y="59.07" width="218.18" height="175.92"/><rect class="cls-4" x="14.72" y="70.5" width="61.05" height="24.32"/><path class="cls-1" d="M42.43,78h5.82v.7L44.1,87.9H43l4.15-9v0H42.43Z"/><rect class="cls-4" x="82.56" y="70.5" width="61.05" height="24.32"/><path class="cls-1" d="M111.93,82.64a2.49,2.49,0,0,1-1.55-2.24,2.61,2.61,0,0,1,2.81-2.59,2.43,2.43,0,0,1,2.67,2.41,2.6,2.6,0,0,1-1.63,2.35v.05a2.83,2.83,0,0,1,2,2.6,2.91,2.91,0,0,1-3.13,2.84A2.77,2.77,0,0,1,110,85.42a2.94,2.94,0,0,1,1.92-2.73Zm3.14,2.71c0-1.25-.84-1.88-2.15-2.31a2.34,2.34,0,0,0-1.79,2.21,1.88,1.88,0,0,0,1.95,2A1.85,1.85,0,0,0,115.07,85.34Zm-3.65-5.05c0,1.06.74,1.64,1.84,2a2.12,2.12,0,0,0,1.51-1.95,1.56,1.56,0,0,0-1.63-1.7A1.61,1.61,0,0,0,111.42,80.29Z"/><rect class="cls-4" x="150.4" y="70.5" width="61.05" height="24.32"/><path class="cls-1" d="M182.92,83.21a2.8,2.8,0,0,1-2.28,1.1,2.76,2.76,0,0,1-2.75-3A3.26,3.26,0,0,1,181,77.81c1.86,0,3,1.62,3,4.15,0,3.3-1.67,5.6-4.22,6a5.78,5.78,0,0,1-1.18.09v-.92a4.9,4.9,0,0,0,1-.07c1.67-.24,2.93-1.59,3.26-3.86Zm-3.91-2c0,1.34.76,2.24,1.9,2.24A2,2,0,0,0,183,81.86c0-1.91-.7-3.2-2-3.2C179.79,78.66,179,79.75,179,81.23Z"/><rect class="cls-4" x="14.72" y="101.83" width="61.05" height="24.32"/><path class="cls-1" d="M47.24,119.23h-1v-2.78H41.86v-.7l4.24-6.44h1.14v6.3h1.35v.85H47.24ZM43,115.6h3.22v-3.53c0-.54,0-1.07.05-1.59h-.05c-.31.61-.54,1-.8,1.49L43,115.57Z"/><rect class="cls-4" x="82.56" y="101.83" width="61.05" height="24.32"/><path class="cls-1" d="M115.6,109.3v.92H112l-.41,2.81a5.53,5.53,0,0,1,.77-.05,3.06,3.06,0,0,1,3.34,3,3.29,3.29,0,0,1-3.42,3.37,4.42,4.42,0,0,1-2.28-.58l.32-.86a3.68,3.68,0,0,0,2,.56,2.25,2.25,0,0,0,2.31-2.35c0-1.37-.87-2.32-2.73-2.32a7.9,7.9,0,0,0-1.27.09l.62-4.63Z"/><rect class="cls-4" x="150.4" y="101.83" width="61.05" height="24.32"/><path class="cls-1" d="M178.95,114a2.79,2.79,0,0,1,2.32-1.22c1.68,0,2.81,1.26,2.81,3.17s-1.11,3.47-3,3.47-3.24-1.6-3.24-4.18,1.25-5.45,4.47-6a7.55,7.55,0,0,1,.93-.09v.92a4.18,4.18,0,0,0-4.3,3.91Zm4,2c0-1.53-.82-2.41-2-2.41a2.17,2.17,0,0,0-2.05,1.88c0,1.82.78,3.06,2.16,3.06C182.21,118.53,183,117.49,183,116Z"/><rect class="cls-4" x="14.72" y="133.15" width="61.05" height="24.32"/><path class="cls-1" d="M45,150.55v-8.9h0l-1.63.94-.27-.82,2.06-1.15h.94v9.93Z"/><rect class="cls-4" x="82.56" y="133.15" width="61.05" height="24.32"/><path class="cls-1" d="M116,150.55h-5.87v-.68l1-1c2.36-2.39,3.55-3.83,3.55-5.45a1.79,1.79,0,0,0-1.9-2,3.32,3.32,0,0,0-2,.82l-.37-.77a3.88,3.88,0,0,1,2.57-1,2.65,2.65,0,0,1,2.8,2.83c0,1.87-1.31,3.46-3.37,5.53l-.78.82v0H116Z"/><rect class="cls-4" x="150.4" y="133.15" width="61.05" height="24.32"/><path class="cls-1" d="M181.44,145.18a2.55,2.55,0,0,1,2.16,2.57c0,1.58-1.14,3-3.37,3a4.39,4.39,0,0,1-2.35-.64l.33-.85a4,4,0,0,0,2,.6,2,2,0,0,0,2.21-2.08c0-1.46-1.23-2.12-2.53-2.12h-.65v-.82h.65a2,2,0,0,0,2.19-1.84,1.53,1.53,0,0,0-1.71-1.6,3.26,3.26,0,0,0-1.82.65l-.33-.81a4.15,4.15,0,0,1,2.36-.74,2.34,2.34,0,0,1,2.63,2.35,2.51,2.51,0,0,1-1.8,2.35Z"/><rect class="cls-4" x="14.72" y="164.48" width="61.05" height="24.32"/><path class="cls-1" d="M42.12,176.95c0-3.47,1.35-5.16,3.21-5.16s3,1.78,3,5c0,3.45-1.21,5.22-3.18,5.22C43.38,182,42.12,180.26,42.12,176.95Zm5.13-.08c0-2.48-.6-4.19-2-4.19-1.18,0-2,1.58-2,4.19s.73,4.27,2,4.27C46.7,181.14,47.25,179.23,47.25,176.87Z"/><rect class="cls-4" x="82.56" y="164.48" width="61.05" height="24.32"/><path class="cls-1" d="M106.31,176.95c0-3.47,1.35-5.16,3.21-5.16s3,1.78,3,5c0,3.45-1.21,5.22-3.18,5.22C107.57,182,106.31,180.26,106.31,176.95Zm5.13-.08c0-2.48-.6-4.19-2-4.19-1.18,0-2,1.58-2,4.19s.73,4.27,2,4.27C110.88,181.14,111.44,179.23,111.44,176.87Z"/><path class="cls-1" d="M113.62,176.95c0-3.47,1.35-5.16,3.21-5.16s3,1.78,3,5c0,3.45-1.21,5.22-3.18,5.22C114.88,182,113.62,180.26,113.62,176.95Zm5.13-.08c0-2.48-.6-4.19-2-4.19-1.18,0-2,1.58-2,4.19s.73,4.27,2,4.27C118.2,181.14,118.75,179.23,118.75,176.87Z"/><rect class="cls-5" x="150.4" y="164.48" width="61.05" height="24.32"/><path class="cls-6" d="M170.5,176.95c0-3.47,1.35-5.16,3.21-5.16s3,1.78,3,5c0,3.45-1.21,5.22-3.18,5.22C171.76,182,170.5,180.26,170.5,176.95Zm5.13-.08c0-2.48-.6-4.19-2-4.19-1.18,0-2,1.58-2,4.19s.73,4.27,2,4.27C175.07,181.14,175.63,179.23,175.63,176.87Z"/><path class="cls-6" d="M177.81,176.95c0-3.47,1.35-5.16,3.21-5.16s3,1.78,3,5c0,3.45-1.21,5.22-3.18,5.22C179.07,182,177.81,180.26,177.81,176.95Zm5.13-.08c0-2.48-.6-4.19-2-4.19-1.18,0-2,1.58-2,4.19s.73,4.27,2,4.27C182.38,181.14,182.94,179.23,182.94,176.87Z"/><path class="cls-6" d="M185.12,176.95c0-3.47,1.35-5.16,3.21-5.16s3,1.78,3,5c0,3.45-1.21,5.22-3.18,5.22C186.38,182,185.12,180.26,185.12,176.95Zm5.13-.08c0-2.48-.6-4.19-2-4.19-1.18,0-2,1.58-2,4.19s.73,4.27,2,4.27C189.69,181.14,190.25,179.23,190.25,176.87Z"/><rect class="cls-7" x="14.72" y="195.8" width="61.05" height="27.76"/><path class="cls-6" d="M48.88,213.56a6.2,6.2,0,0,1-2.52.45c-2.6,0-4.69-1.68-4.69-5.1,0-3.26,2-5.29,5-5.29a5,5,0,0,1,2.23.41l-.29.93a4.38,4.38,0,0,0-1.91-.41c-2.29,0-3.86,1.54-3.86,4.32s1.43,4.22,3.79,4.22a5,5,0,0,0,2-.41Z"/><rect class="cls-8" x="82.56" y="195.8" width="128.89" height="27.76"/><path class="cls-6" d="M139.17,204.33h-2.36a30,30,0,0,1-.7,3.21h2.6v5.77h-2.61v1.09h-.77v-4.68a8.91,8.91,0,0,1-.84,1.46,6.83,6.83,0,0,0-.46-.8,15,15,0,0,0,1.91-6h-1.62v-.82h4.85Zm-1.25,8.18v-4.18h-1.83v4.18Zm8.63,1.14v.77h-5.48v.65h-.84v-5.91a7.73,7.73,0,0,1-1,1,5.62,5.62,0,0,0-.49-.74,10.43,10.43,0,0,0,2.88-4.35H140v1.64h-.78v-2.43h2.68c.17-.52.32-1.06.45-1.62l1.1.25c0,.11-.13.16-.31.16-.11.41-.22.81-.34,1.21h3.54v2.43h-.82V205h-3a15.8,15.8,0,0,1-1.07,2.35H143a14.45,14.45,0,0,0,.68-1.79l1,.32c0,.08-.12.12-.26.12-.15.38-.37.9-.6,1.35h2.33v.78h-2.45v1.34h2.14v.72h-2.14v1.35h2.14v.72h-2.14v1.35Zm-3.63-4.14v-1.34h-1.84v1.34Zm0,2.07v-1.35h-1.84v1.35Zm-1.84.72v1.35h1.84V212.3Z"/><path class="cls-6" d="M154.08,210.84v2.89a12.55,12.55,0,0,0,2.31.17c.46,0,2.8,0,3.41,0a2.78,2.78,0,0,0-.34.9h-3.1c-2.85,0-4.92-.49-6.15-2.86a6.89,6.89,0,0,1-2.08,3.12,4.17,4.17,0,0,0-.68-.58c1.46-1.07,2.23-3.1,2.53-5.58l1.14.19c0,.09-.11.16-.27.16-.08.53-.19,1-.3,1.55a4.23,4.23,0,0,0,2.63,2.71v-5.83h-3.38v-.85h7.8v.85h-3.5V210h4.07v.85ZM149,205.13v2h-.87v-2.85h5.07v-1.63l1.21.08c0,.09-.09.16-.28.19v1.37h5.12v2.85h-.92v-2Z"/><rect class="cls-2" x="4" y="21.24" width="384.26" height="37.84"/><rect class="cls-9" x="4" y="21.24" width="384.26" height="37.84"/><path class="cls-6" d="M328.13,181.91a4.8,4.8,0,0,1-4.2-2.45l-7.19-12.94a6,6,0,0,0-3.59-2.86L258,147.53l-.39-.1a11.33,11.33,0,0,1,4.75-22.15l17.06,3.53a7.46,7.46,0,0,0,8-10.94l-35-62.58a11.33,11.33,0,0,1,19.78-11.05l20.35,36.41.11.18a.57.57,0,0,0,.46.26h.08a.49.49,0,0,0,.41-.37,11.55,11.55,0,0,1,5.95-8,12.37,12.37,0,0,1,6-1.62,10.12,10.12,0,0,1,7.6,3.3.5.5,0,0,0,.37.16h0a.5.5,0,0,0,.38-.23,12.75,12.75,0,0,1,10.48-5.81,10,10,0,0,1,8.16,4,.5.5,0,0,0,.38.2h0a.5.5,0,0,0,.38-.17,12.69,12.69,0,0,1,3.41-2.75,12.39,12.39,0,0,1,6-1.62,10.08,10.08,0,0,1,9,5.29l7.61,13.61a.46.46,0,0,0,0,.14c5.24,10.08,5.34,17.93,5.43,24.86.08,6.12.16,11.91,3.66,18.17L379,148.7a4.8,4.8,0,0,1-1.84,6.52L330.45,181.3a4.77,4.77,0,0,1-2.32.6Z"/><path d="M262.39,38.94a10.85,10.85,0,0,1,9.47,5.54L292.2,80.89l.12.21,0,.05a1,1,0,0,0,.85.47l.19,0a1,1,0,0,0,.79-.81,11.06,11.06,0,0,1,5.7-7.63,11.87,11.87,0,0,1,5.76-1.55,9.62,9.62,0,0,1,7.23,3.14,1,1,0,0,0,.74.33h.09a1,1,0,0,0,.76-.47A12.26,12.26,0,0,1,324.53,69a9.54,9.54,0,0,1,7.76,3.78,1,1,0,0,0,.76.39h0a1,1,0,0,0,.76-.34,12.17,12.17,0,0,1,3.28-2.65,11.88,11.88,0,0,1,5.76-1.56,9.6,9.6,0,0,1,8.59,5L359,87.25a1,1,0,0,0,.08.19c5.18,10,5.29,17.76,5.38,24.63.08,6.19.16,12,3.72,18.41l10.32,18.47a4.3,4.3,0,0,1-1.65,5.84l-46.68,26.09a4.3,4.3,0,0,1-5.83-1.65l-7.19-12.94a6.53,6.53,0,0,0-3.89-3.1l-55.11-16.12-.42-.11a10.83,10.83,0,0,1,4.54-21.18l17.06,3.53a8,8,0,0,0,8.56-11.68L253,55a10.83,10.83,0,0,1,9.43-16.11m0-1a11.83,11.83,0,0,0-10.31,17.6l35,62.58a7,7,0,0,1-7.48,10.21l-17.06-3.53a11.83,11.83,0,0,0-5,23.13l.36.09L313,164.14a5.57,5.57,0,0,1,3.3,2.63l7.19,12.94a5.3,5.3,0,0,0,4.63,2.71,5.24,5.24,0,0,0,2.56-.67l46.68-26.09a5.3,5.3,0,0,0,2-7.2L369.09,130c-3.44-6.16-3.51-11.88-3.59-17.94-.09-7-.2-14.91-5.49-25.08h0l-7.68-13.75a10.62,10.62,0,0,0-9.46-5.55,12.85,12.85,0,0,0-6.25,1.68,13.19,13.19,0,0,0-3.54,2.86A10.6,10.6,0,0,0,324.53,68a13.25,13.25,0,0,0-10.91,6,10.62,10.62,0,0,0-8-3.47,12.83,12.83,0,0,0-6.25,1.68,12.07,12.07,0,0,0-6.2,8.33l-.13-.21L272.73,44a11.84,11.84,0,0,0-10.35-6.06Z"/></g></g></svg>