<svg xmlns="http://www.w3.org/2000/svg" viewBox="0 0 382.67 653"><defs><style>.cls-1,.cls-2,.cls-6{fill:none;}.cls-1{stroke:#00a0e9;stroke-width:8px;}.cls-1,.cls-2,.cls-3{stroke-linecap:round;stroke-linejoin:round;}.cls-1,.cls-5{opacity:0.7;isolation:isolate;}.cls-2,.cls-3{stroke:#727171;}.cls-3{fill:#fff;}.cls-4{fill:#727171;}.cls-5{fill:#00a0e9;}</style></defs><title>アセット 1</title><g id="レイヤー_2" data-name="レイヤー 2"><g id="レイヤー_1-2" data-name="レイヤー 1"><g id="レイヤー_2-2" data-name="レイヤー 2"><g id="レイヤー_1-2-2" data-name="レイヤー 1-2"><g id="レイヤー_2-2-2" data-name="レイヤー 2-2"><g id="レイヤー_1-2-2-2" data-name="レイヤー 1-2-2"><circle class="cls-1" cx="269.33" cy="518.88" r="44.1"/><circle class="cls-1" cx="206.83" cy="375.48" r="33.2"/><path class="cls-2" d="M332.63,614.68a6.87,6.87,0,0,1-6.6,5H56.63a7,7,0,0,1-6.6-5l-31.5-132.8a4.61,4.61,0,0,1,3.2-5.7,7.72,7.72,0,0,1,1.5-.2h336.5a4.59,4.59,0,0,1,4.8,4.4,3.89,3.89,0,0,1-.2,1.5Z"/><path class="cls-2" d="M377.63,399.08,334,266.18h0a29.62,29.62,0,0,1-2.7-13.1l12.5-173.8,1.9-28.2c.7-10.4-5.8-18.9-14.4-18.9H51.43c-8.6,0-15.1,8.5-14.4,18.9l14.3,202a29.62,29.62,0,0,1-2.7,13.1L5,399.08a19.16,19.16,0,0,0-1.4,11.8l12.2,59.3a8,8,0,0,0,7.3,5.9h336.5a7.9,7.9,0,0,0,7.3-5.9l12.2-59.3A20,20,0,0,0,377.63,399.08Z"/><polygon class="cls-3" points="290.83 205.78 91.94 205.78 85.73 81.78 297.04 81.78 290.83 205.78"/><path class="cls-2" d="M217.53,522.08l-3.5,5.4v15.3s-1.3,13.2-10.2,21.8c-8.4,8.1-23.3,15.7-41.4,7.7s-20.7-24.7-20.7-29.1,1.9-26.4,2.9-28a12.38,12.38,0,0,1,8.8-4.6c4.2-.2,50.5,0,50.5,0s5.9-.3,7.7,1.7C214.33,515.48,217.53,522.08,217.53,522.08Z"/><polygon class="cls-2" points="192.44 510.88 192.44 531.98 196.74 524.38 192.44 510.88"/><path class="cls-2" d="M170.83,573.88s-.1-1-.1-2.2-1.4-3.7-3-4.9-5.9-4-7.3-6.2-.9-6.3-.9-6.3l.9-11.2s0-3,4.7-3.2,27.9,0,27.9,0,4.6-.3,5,2.6,1,13.6.7,15.2-3,4.9-4.7,6.3-5.5,2.4-6.2,3.6-.8,5.5-.8,5.5"/><path class="cls-2" d="M147.93,515.78s5.9,8,7.8,10.9a82.29,82.29,0,0,1,6.5,12.5"/><path class="cls-2" d="M196.33,539.78s6.8-6.1,9.7-9.9"/><polyline class="cls-2" points="198.84 510.58 198.84 524.18 212.63 524.18 217.53 522.08"/><path class="cls-2" d="M131.83,555.78l-11,.5s-5.8,0-7.2-1.7-6.1-40.2-6.1-40.2a3.07,3.07,0,0,1,2.2-3.8,2.2,2.2,0,0,1,.8-.1c3.8-.5,51.1-1,51.1-1s1.9.1,2.6-.8-.4-3.5,1.8-4,24.1-.9,24.1-.9a2.53,2.53,0,0,1,2.3,1.5c.5,1.5.3,2.6,1,3s.8,1.3,5.4,1.1,19.9-.4,19.9-.4,3-.1,3,2.2-.7,19.6-.7,19.6"/><path class="cls-2" d="M169.53,504.48c.1.1,4.2,3.8,7.9,4.1s5.4-.2,7.6-1.6a15.23,15.23,0,0,0,3.7-3"/><path class="cls-2" d="M109.53,529.68s7.5-.5,11.8,2.2,8.3,7.4,11.2,13.2,6.1,13.6,9.2,18c2.9,4.2,10.9,15.8,36.5,17,24,1.1,39.5-18.6,41.5-23.9"/><path class="cls-2" d="M144.63,515a66.94,66.94,0,0,1-19.8,11.6c-11.8,4.3-15.2,2.9-15.2,2.9"/><path class="cls-2" d="M184.53,365.68v16.9a4,4,0,0,0,2.9,2.1c2,.3,38.9,0,38.9,0s2-.7,2.1-1.7-.9-17.4-.9-17.4a2.35,2.35,0,0,0-2.3-1.9c-2-.1-36.8,0-36.8,0s-3.5-.1-4,1.8C184.53,365.58,184.53,365.58,184.53,365.68Z"/><line class="cls-2" x1="185.13" y1="364.88" x2="195.83" y2="375.38"/><line class="cls-2" x1="216.63" y1="375.48" x2="226.73" y2="364.68"/><line class="cls-2" x1="185.33" y1="383.28" x2="194.63" y2="380.48"/><line class="cls-2" x1="217.83" y1="380.48" x2="227.43" y2="384.08"/><path class="cls-4" d="M195.43,377h21.7l.3-1.9a1.35,1.35,0,0,0-1.3-1.4H216c-1.5-.1-19.9,0-19.9,0s-1,.1-1.1,1A18.46,18.46,0,0,0,195.43,377Z"/><path class="cls-4" d="M194.93,379.08h22.6v1.7s0,.8-.4.8h-21.6a.4.4,0,0,1-.5-.3A19.42,19.42,0,0,1,194.93,379.08Z"/><path class="cls-2" d="M73.63,338,70,353.88a1.93,1.93,0,0,0,1.8,2.9c3,.3,70.6,0,70.6,0a3.58,3.58,0,0,0,3.7-3c.6-3.2,1.1-15.8,1.1-15.8a2,2,0,0,0-1.3-2.4c-.2,0-.3-.1-.5-.1-2.3-.3-67,0-67,0S74.23,335.48,73.63,338Z"/><path class="cls-2" d="M79.73,340.68l-2.6,10.9s-.4,1.2.5,1.4,62.3-.4,62.3-.4a1.38,1.38,0,0,0,1.2-1.3c.1-1.1.5-10.2.5-10.2a1.25,1.25,0,0,0-.7-1.6,1.27,1.27,0,0,0-.6-.1l-59,.2a1.39,1.39,0,0,0-1.7.9h0Z"/><line class="cls-2" x1="71.43" y1="349.38" x2="77.03" y2="349.38"/><polyline class="cls-2" points="80.44 340.08 84.14 346.58 141.34 345.78"/><line class="cls-2" x1="143.23" y1="349.18" x2="146.43" y2="349.18"/><path class="cls-2" d="M83.73,347.08"/><line class="cls-2" x1="84.13" y1="346.78" x2="82.63" y2="352.38"/><path class="cls-2" d="M178.33,288.18l-1.6,47.2s-.9,5.1,5.2,5.9,46.9.7,46.9.7,3.2.6,4.3-3.5-3.2-49.4-3.2-49.4-1-4.9-4.4-5-42.4,0-42.4,0S178.43,285.18,178.33,288.18Z"/><path class="cls-2" d="M186.63,294.48l-.7,33.1s-.5,2.1,2.1,2.4,33.9,0,33.9,0,1.7-.4,2-1.4-1.5-34.1-1.5-34.1a1.53,1.53,0,0,0-1.7-1.5h0c-1.7-.1-32.2,0-32.2,0S186.63,292.78,186.63,294.48Z"/><circle class="cls-4" cx="222.63" cy="336.28" r="1.1"/><circle class="cls-4" cx="187.73" cy="336.28" r="1.1"/><rect class="cls-4" x="190.53" y="335.18" width="0.8" height="1.8"/><rect class="cls-4" x="191.93" y="335.18" width="0.8" height="1.8"/><rect class="cls-4" x="193.33" y="335.18" width="0.8" height="1.8"/><rect class="cls-4" x="194.73" y="335.18" width="0.8" height="1.8"/><rect class="cls-4" x="196.13" y="335.18" width="0.8" height="1.8"/><rect class="cls-4" x="197.53" y="335.18" width="0.8" height="1.8"/><rect class="cls-4" x="198.93" y="335.18" width="0.8" height="1.8"/><rect class="cls-4" x="200.33" y="335.18" width="0.8" height="1.8"/><rect class="cls-4" x="201.73" y="335.18" width="0.8" height="1.8"/><rect class="cls-4" x="203.13" y="335.18" width="0.8" height="1.8"/><rect class="cls-4" x="204.53" y="335.18" width="0.8" height="1.8"/><rect class="cls-4" x="205.93" y="335.18" width="0.8" height="1.8"/><rect class="cls-4" x="207.33" y="335.18" width="0.8" height="1.8"/><rect class="cls-4" x="208.73" y="335.18" width="0.8" height="1.8"/><rect class="cls-4" x="210.13" y="335.18" width="0.8" height="1.8"/><rect class="cls-4" x="211.53" y="335.18" width="0.8" height="1.8"/><rect class="cls-4" x="212.93" y="335.18" width="0.8" height="1.8"/><rect class="cls-4" x="214.33" y="335.18" width="0.8" height="1.8"/><rect class="cls-4" x="215.73" y="335.18" width="0.8" height="1.8"/><rect class="cls-4" x="217.13" y="335.18" width="0.8" height="1.8"/><rect class="cls-4" x="218.53" y="335.18" width="0.8" height="1.8"/><circle class="cls-4" cx="188.63" cy="287.78" r="0.9"/><circle class="cls-4" cx="220.03" cy="287.78" r="0.9"/><rect class="cls-4" x="191.03" y="287.28" width="0.8" height="1.1"/><rect class="cls-4" x="192.23" y="287.28" width="0.8" height="1.1"/><rect class="cls-4" x="193.53" y="287.28" width="0.8" height="1.1"/><rect class="cls-4" x="194.73" y="287.28" width="0.8" height="1.1"/><rect class="cls-4" x="195.93" y="287.28" width="0.8" height="1.1"/><rect class="cls-4" x="197.13" y="287.28" width="0.8" height="1.1"/><rect class="cls-4" x="198.33" y="287.28" width="0.8" height="1.1"/><rect class="cls-4" x="199.63" y="287.28" width="0.8" height="1.1"/><rect class="cls-4" x="200.83" y="287.28" width="0.8" height="1.1"/><rect class="cls-4" x="202.03" y="287.28" width="0.8" height="1.1"/><rect class="cls-4" x="203.23" y="287.28" width="0.8" height="1.1"/><rect class="cls-4" x="204.43" y="287.28" width="0.8" height="1.1"/><rect class="cls-4" x="205.73" y="287.28" width="0.8" height="1.1"/><rect class="cls-4" x="206.93" y="287.28" width="0.8" height="1.1"/><rect class="cls-4" x="208.13" y="287.28" width="0.8" height="1.1"/><rect class="cls-4" x="209.33" y="287.28" width="0.8" height="1.1"/><rect class="cls-4" x="210.63" y="287.28" width="0.8" height="1.1"/><rect class="cls-4" x="211.83" y="287.28" width="0.8" height="1.1"/><rect class="cls-4" x="213.03" y="287.28" width="0.8" height="1.1"/><rect class="cls-4" x="214.23" y="287.28" width="0.8" height="1.1"/><rect class="cls-4" x="215.43" y="287.28" width="0.8" height="1.1"/><rect class="cls-4" x="216.73" y="287.28" width="0.8" height="1.1"/><line class="cls-2" x1="325.93" y1="260.48" x2="56.73" y2="260.48"/><line class="cls-2" x1="118.83" y1="250.18" x2="51.63" y2="250.18"/><line class="cls-2" x1="331.13" y1="250.18" x2="263.93" y2="250.18"/><line class="cls-2" x1="372.13" y1="410.48" x2="10.53" y2="410.48"/><path class="cls-2" d="M327.33,360.68l10.6-.1s2,0,2.4-.7c.8-1.2.3-2.4-.6-5.3S319,282,319,282s-.3-2.4-1.9-3.2a12.43,12.43,0,0,0-4.7-.6h-52.5s-3.4,0-3.2,1.9l11.5,75.8s.5,4.3,2.9,4.7c1,.1,7.1.1,15.5.1"/><path class="cls-2" d="M288.23,352.18s.3,1.8.5,3.7c.2,1.4.4,2.8.5,4.2a2.39,2.39,0,0,1-.5,1.4l-.5.5,37.7.1a1.34,1.34,0,0,0,.6-.7c.1-.5-1.5-9.2-1.5-9.2Z"/><line class="cls-2" x1="325.43" y1="356.38" x2="289.13" y2="356.38"/><path class="cls-2" d="M263.23,284.18s9.2,62,9.8,62.4,57.2,0,57.2,0a1.81,1.81,0,0,0,1-1.9c-.3-1.3-16.2-60.5-16.2-60.5a2,2,0,0,0-2-1.6c-1.6-.1-48,0-48,0S262.93,282.28,263.23,284.18Z"/><path class="cls-4" d="M312.43,287.88l13.6,53.2h-49.3l-8.5-53.2h44.2m.2-1h-44.7a.68.68,0,0,0-.7.7v.1l8.6,53.7a.73.73,0,0,0,.7.6h49.9a.68.68,0,0,0,.7-.7v-.2l-13.8-53.7a.68.68,0,0,0-.7-.5Z"/><polyline class="cls-2" points="340.94 359.58 338.63 376.48 266.24 376.48 269.04 358.98"/><polyline class="cls-2" points="269.04 358.98 266.24 376.48 254.53 299.58 256.83 280.08"/><polygon class="cls-2" points="239.24 515.38 232.44 515.38 234.03 492.58 241.03 492.58 239.24 515.38"/><polygon class="cls-2" points="301.54 515.38 294.74 515.38 298.54 492.58 305.54 492.58 301.54 515.38"/><polygon class="cls-2" points="293.94 512.78 240.63 512.78 242.24 494.48 296.94 494.48 293.94 512.78"/><polygon class="cls-2" points="274.63 528.18 256.13 528.18 251.74 524.08 280.04 524.08 274.63 528.18"/><polygon class="cls-2" points="293.63 536.58 234.94 536.58 235.34 532.48 294.33 532.48 293.63 536.58"/><line class="cls-2" x1="233.33" y1="528.08" x2="297.43" y2="528.08"/><polygon class="cls-2" points="296.94 541.28 230.53 541.28 232.44 515.38 301.54 515.38 296.94 541.28"/><path class="cls-2" d="M284.93,499.28a104,104,0,0,0-15.8-1.1,108,108,0,0,0-16.1,1.1c3.1,3.1,10.1,9.5,14.8,9.5S281,502.48,284.93,499.28Z"/><path class="cls-2" d="M256.23,502.38c4.1-.4,8.3-.6,12.4-.6s8.2.2,12.3.6"/><path class="cls-2" d="M292.23,515.38a6.11,6.11,0,0,1-6,4.8h-39.8c-4.9,0-4.8-4.8-4.8-4.8"/><path class="cls-2" d="M145,573.68s7.1,11.8,35.1,11.8c25.5,0,36.9-16,36.9-16"/><path class="cls-2" d="M220.93,531s1.4,33.4-6.3,47.7c-8.5,16-28.7,16.9-39.3,16.3-12.4-.8-29.2-6.2-35.3-20.8-4.6-11.1-8.1-28.4-27.7-27.6"/></g></g><polygon class="cls-5" points="235.13 432.98 206.84 415.98 178.53 432.98 190.03 432.98 190.03 444.48 223.63 444.48 223.63 432.98 235.13 432.98"/><polygon class="cls-5" points="297.63 587.18 269.33 570.28 241.13 587.18 252.53 587.18 252.53 598.68 286.24 598.68 286.24 587.18 297.63 587.18"/></g></g><rect class="cls-6" width="382.67" height="653"/></g></g></svg>