<svg xmlns="http://www.w3.org/2000/svg" viewBox="0 0 265.92 459.33"><defs><style>.cls-1{fill:#231815;}.cls-2,.cls-3,.cls-6{fill:none;}.cls-2{stroke:#00a0e9;stroke-width:8px;opacity:0.7;}.cls-2,.cls-3,.cls-4,.cls-6{stroke-linecap:round;stroke-linejoin:round;}.cls-3,.cls-4,.cls-6{stroke:#727171;}.cls-3,.cls-4{stroke-width:2px;}.cls-4{fill:#dcdddd;}.cls-5{fill:#727171;}.cls-6{stroke-width:1.86px;}</style></defs><title>アセット 2</title><g id="レイヤー_2" data-name="レイヤー 2"><g id="レイヤー_1-2" data-name="レイヤー 1"><path class="cls-1" d="M15.92,452.67l.16,1.16c-2.46.76-5.08,1.54-6.72,2a.38.38,0,0,1-.24.32l-.62-1.48c.88-.22,2-.5,3.24-.84v-5.16H9.1v-1.24h2.64v-4.48H8.84v-1.26h6.94v1.26H13v4.48h2.58v1.24H13v4.8Zm4.2.68a.42.42,0,0,1-.4.26c-.5,2.58-1.54,4.54-5.4,5.62a4.35,4.35,0,0,0-.78-1.12c3.54-.84,4.54-2.48,4.9-4.94Zm3.3,4c0,.48.08.58.62.58h1.72c.48,0,.58-.32.62-2.42a3.39,3.39,0,0,0,1.16.52c-.12,2.46-.46,3.06-1.64,3.06H23.84c-1.38,0-1.72-.38-1.72-1.74v-4.64H16.76V441.54h9.46v11.14h-2.8ZM18,442.7v2.18H24.9V442.7ZM18,446v2.2H24.9V446Zm0,3.32v2.22H24.9v-2.22Z"/><path class="cls-1" d="M38.58,452.23v5.12h8.08v1.2H29.3v-1.2h7.88v-5.12h-7V451h7v-2.8h-4.3v-1.14a28.75,28.75,0,0,1-3.4,2.28,8.1,8.1,0,0,0-.84-1.06,23.43,23.43,0,0,0,8.52-7.76l2,.12a.47.47,0,0,1-.4.3A25.56,25.56,0,0,0,47.37,448a7.37,7.37,0,0,0-.9,1.18,28.33,28.33,0,0,1-8.58-7.28A23,23,0,0,1,33,447H43v1.22H38.58V451h7.14v1.2ZM33.86,457A13.82,13.82,0,0,0,32,453.23l1.1-.42a13.06,13.06,0,0,1,2,3.7Zm10.28-3.6c-.06.12-.22.18-.44.16A29.94,29.94,0,0,1,41.4,457l-1-.5a24,24,0,0,0,2.24-3.8Z"/><path class="cls-1" d="M66.3,449.21a.29.29,0,0,1-.12,0,.51.51,0,0,1-.3-.12c-1.52.5-3.74,1.32-5.4,2q.06.69.06,1.56c0,.64,0,1.36-.06,2.14l-1.46.08c.06-.72.1-1.64.1-2.42,0-.3,0-.58,0-.8-2.26,1.1-4.1,2.44-4.1,3.64s1.38,1.72,4.14,1.72a44.77,44.77,0,0,0,5-.2l0,1.34c-1.18.12-3,.16-5,.16-3.84,0-5.54-.92-5.54-3,0-1.76,2.32-3.46,5.32-5-.12-1.26-.68-1.88-1.48-1.88-1.46,0-3,.82-4.78,2.82-.56.62-1.34,1.4-2.2,2.18l-1-1a14,14,0,0,0,5-7.38l-1.12,0H50.06v-1.3c1.22,0,2.64,0,3.46,0l1.36,0a26.27,26.27,0,0,0,.54-2.86l2,.24c0,.2-.2.32-.5.36-.14.8-.32,1.5-.5,2.22a27.35,27.35,0,0,0,6.88-1.16l.24,1.34a30.2,30.2,0,0,1-7.5,1.12,14.59,14.59,0,0,1-1.44,3.38h0a5.33,5.33,0,0,1,3.22-1.3c1.36,0,2.22,1,2.48,2.6,1.68-.76,3.8-1.58,5.4-2.2Z"/><path class="cls-1" d="M84.55,457.21a37.18,37.18,0,0,1-6.14.46,22.35,22.35,0,0,1-3.86-.26c-2.42-.54-3.46-2.06-3.46-3.82a6.35,6.35,0,0,1,2-4.26l1.16.6a5.43,5.43,0,0,0-1.76,3.54c0,1.18.78,2.22,2.5,2.62a17.93,17.93,0,0,0,3.2.22,34.26,34.26,0,0,0,6.22-.54Zm-9-10.08a23.41,23.41,0,0,1,3.54-2.32v0c-1.52.18-5,.24-7.22.24,0-.38,0-1,0-1.4h1.08c2.56,0,7.8,0,10.32-.64l.16,1.46a7.64,7.64,0,0,0-2.1.6,21.1,21.1,0,0,0-4.62,2.8Zm9,2.84a13.3,13.3,0,0,0-2.68-2.72l.66-.62a14.62,14.62,0,0,1,2.74,2.7Zm2.1-1.9a14.25,14.25,0,0,0-2.68-2.7l.66-.64a14.7,14.7,0,0,1,2.74,2.72Z"/><path class="cls-1" d="M98,441.65a.37.37,0,0,1-.38.08,16.39,16.39,0,0,1-3.26,1.18v3.86h4V448h-4v1.52c.92.7,3.24,2.68,3.84,3.22l-.78,1.1c-.6-.66-2-2-3.06-2.94v8.28H93.08v-9.08a22.82,22.82,0,0,1-3.8,6.2,5.73,5.73,0,0,0-.76-1.26,21.63,21.63,0,0,0,4.26-7H88.84v-1.28h4.24v-3.52c-1.3.3-2.66.56-3.94.78a5.05,5.05,0,0,0-.44-1c2.92-.52,6.36-1.36,8.08-2.38Zm1.88,1.44,1.7.1c0,.14-.12.24-.38.28v10.8H99.92Zm5-2.06,1.72.1c0,.16-.12.24-.38.28v16c0,1-.28,1.38-.88,1.6a12.55,12.55,0,0,1-3.6.26,5.74,5.74,0,0,0-.52-1.36c.74,0,1.42,0,2,0,1.6,0,1.68,0,1.68-.52Z"/><path class="cls-1" d="M125.76,442.08v15.2c0,1.84-.88,1.86-4.66,1.82a5.17,5.17,0,0,0-.48-1.3c.74,0,1.46,0,2,0,1.66,0,1.76,0,1.76-.56v-4.34h-5.76V459h-1.3v-6.08H112.1a11.66,11.66,0,0,1-2.56,6.38,4.92,4.92,0,0,0-1-.9c2.24-2.52,2.46-6.12,2.46-9v-7.36Zm-13.46,7.36c0,.7,0,1.44-.08,2.22h5.14v-3.5H112.3Zm5.06-6.08H112.3v3.54h5.06Zm7.06,3.54v-3.54h-5.76v3.54Zm-5.76,4.76h5.76v-3.5h-5.76Z"/><path class="cls-1" d="M139.12,444.29a.52.52,0,0,1-.5.32c-.72,6.22-2.8,11.64-6.12,11.64-1.68,0-3.2-1.68-3.2-4.84a8.78,8.78,0,0,1,9-8.82c5.78,0,8.28,3.66,8.28,7.56,0,4.76-2.76,7.06-7.6,8.18a7.92,7.92,0,0,0-.84-1.22c4.6-.88,7-3.12,7-6.9,0-3.3-2.12-6.3-6.8-6.3a5.79,5.79,0,0,0-.6,0ZM137.2,444a7.36,7.36,0,0,0-6.54,7.34c0,2.14.92,3.48,1.88,3.48C135,454.85,136.7,449.51,137.2,444Z"/><path class="cls-1" d="M167,445.49h-10.3c-.08,1.12-.18,2.3-.34,3.48h7.14l.3,0,.8.14a2.56,2.56,0,0,1-.08.42c-.42,6-.82,8.26-1.62,9.06-.54.58-1.08.68-2.34.68-.72,0-1.72,0-2.72-.1a3.22,3.22,0,0,0-.48-1.32c1.48.14,2.92.14,3.42.14s.74,0,1-.22c.62-.56,1-2.58,1.38-7.48h-7c-.68,3.56-2.26,7-6.46,9a4.06,4.06,0,0,0-1-1.08c5.66-2.56,6.28-8,6.52-12.72h-6.34v-1.3h8.28v-3.6l1.78.12c0,.14-.14.24-.4.28v3.2H167Z"/><path class="cls-1" d="M170.66,458.11c-.62-1.44-.86-4.42-.86-7a50.94,50.94,0,0,1,1.08-9.34l1.94.38a.52.52,0,0,1-.52.36,38.42,38.42,0,0,0-1.16,8.62,23.84,23.84,0,0,0,.18,3.78c.44-1.2,1.24-3.12,1.66-4.06l.9.84c-.66,1.36-2.06,4.4-2.06,5.34a2.75,2.75,0,0,0,.2,1Zm5.08-11.78c1.68,0,3.36,0,5-.08-.08-1.72-.14-3.2-.18-4.68l2,.06c0,.2-.2.36-.52.42,0,1.28.06,2.58.1,4.1a17.71,17.71,0,0,0,3.92-.8l.18,1.4a19.31,19.31,0,0,1-4,.72c.08,2.22.18,4.56.24,5.84a14.73,14.73,0,0,1,4.08,2.54l-.78,1.28a12,12,0,0,0-3.24-2.28c0,1.7-.34,3.6-3.34,3.6-2.34,0-3.9-1.12-3.9-2.88,0-2,2.06-2.94,3.9-2.94a6.92,6.92,0,0,1,1.9.26c-.06-1.26-.18-3.36-.28-5.32-.62,0-1.46.06-2,.06h-3Zm5.48,7.86a6.8,6.8,0,0,0-2-.36c-1.22,0-2.68.44-2.68,1.7s1.2,1.68,2.66,1.68,2-.72,2-2.32Z"/><path class="cls-1" d="M204.62,457.17a36.86,36.86,0,0,1-6.08.46,22.82,22.82,0,0,1-3.92-.26c-2.42-.54-3.46-2.06-3.46-3.82a6.41,6.41,0,0,1,2-4.28l1.16.6a5.47,5.47,0,0,0-1.76,3.56c0,1.16.78,2.22,2.5,2.6a16.63,16.63,0,0,0,3.26.24,33.46,33.46,0,0,0,6.16-.54Zm-9-10.1a25,25,0,0,1,3.54-2.32v0c-1.52.18-5,.26-7.22.24,0-.38,0-1,0-1.4.44,0,8.12.14,11.4-.64l.16,1.48c-2.38.28-5.44,2.36-6.72,3.38Z"/><path class="cls-1" d="M224.5,444.69a46.12,46.12,0,0,1-8.6,1.16,25,25,0,0,1-.94,5.3,10.18,10.18,0,0,1,5.68-2.12c3,0,4.8,1.6,4.8,4.3,0,4-4,5.32-10.52,5.48a6,6,0,0,0-.4-1.32c5.74-.12,9.46-1.1,9.46-4.12,0-1.8-1.2-3-3.52-3-1.78,0-4.84,1.08-6.16,3.06l-1.4-.66c.64-.72,1.3-3.58,1.6-6.86h-4.68v-1.4c.84,0,3.3,0,4.8,0,.08-1.14.12-2.42.12-3.62l2.12.2c0,.34-.28.4-.64.44,0,1-.1,2-.18,3a38.82,38.82,0,0,0,8.2-1.22Z"/><path class="cls-1" d="M234.12,444.95a.57.57,0,0,1-.52.34,22.86,22.86,0,0,1-.82,5.9h0a13.62,13.62,0,0,1,7.36-2.46c3.08,0,5,1.58,5,4.38-.06,3.68-3.1,5.32-10.84,5.64a5.93,5.93,0,0,0-.5-1.32c7-.3,9.78-1.44,9.84-4.3,0-1.92-1.32-3.08-3.66-3.08-3.7,0-7,2.22-7.6,3.2l-1.36-.66c.4-.38,1.1-4,1.14-7.88Zm.34-3.88a32.16,32.16,0,0,1,7.76,1.76l-.5,1.38a32.46,32.46,0,0,0-7.68-1.82Z"/><path class="cls-1" d="M254.26,456.43a2.8,2.8,0,1,1-2.8-2.8A2.81,2.81,0,0,1,254.26,456.43Zm-.72,0a2.07,2.07,0,1,0-2.08,2.06A2.07,2.07,0,0,0,253.54,456.43Z"/><circle class="cls-2" cx="187.71" cy="342.53" r="30.94"/><circle class="cls-2" cx="143.8" cy="241.93" r="23.27"/><path class="cls-3" d="M232.1,409.74a4.85,4.85,0,0,1-4.61,3.5H38.43a4.85,4.85,0,0,1-4.61-3.5L11.65,316.61a3.23,3.23,0,0,1,3.26-4.11H251a3.23,3.23,0,0,1,3.26,4.11Z"/><path class="cls-3" d="M263.69,258.47l-30.58-93.25h0a20.36,20.36,0,0,1-1.89-9.21l8.72-121.93,1.3-19.8C241.72,7,237.2,1,231.15,1H34.77c-6,0-10.57,6-10.09,13.28L34.7,156a20.36,20.36,0,0,1-1.89,9.21L2.23,258.47a13.87,13.87,0,0,0-1,8.29l8.54,41.62a5.55,5.55,0,0,0,5.12,4.13H251a5.55,5.55,0,0,0,5.12-4.13l8.54-41.62A13.87,13.87,0,0,0,263.69,258.47Z"/><polygon class="cls-4" points="202.76 122.83 63.16 122.83 58.82 35.79 207.1 35.79 202.76 122.83"/><path class="cls-3" d="M151.32,344.81l-2.43,3.76v10.75s-.94,9.29-7.19,15.29c-5.89,5.66-16.32,11-29.08,5.39a23.49,23.49,0,0,1-14.51-20.42c0-3.09,1.34-18.54,2-19.61a8.69,8.69,0,0,1,6.18-3.22c3-.13,35.46,0,35.46,0s4.15-.2,5.37,1.21A40.73,40.73,0,0,1,151.32,344.81Z"/><polygon class="cls-3" points="133.68 336.9 133.68 351.72 136.71 346.38 133.68 336.9"/><path class="cls-3" d="M118.54,381.11s-.07-.67-.07-1.58a5.57,5.57,0,0,0-2.12-3.43c-1.11-.81-4.13-2.82-5.14-4.33s-.6-4.43-.6-4.43l.6-7.83s0-2.14,3.28-2.24,19.58,0,19.58,0,3.22-.2,3.53,1.81a82.48,82.48,0,0,1,.5,10.68c-.2,1.11-2.12,3.47-3.32,4.45s-3.83,1.69-4.33,2.5-.58,3.9-.58,3.9"/><path class="cls-3" d="M102.45,340.34s4.11,5.62,5.44,7.66a58.08,58.08,0,0,1,4.57,8.73"/><path class="cls-3" d="M136.46,357.23a73.74,73.74,0,0,0,6.79-6.92"/><polyline class="cls-3" points="138.17 336.73 138.17 346.28 147.89 346.28 151.32 344.81"/><path class="cls-3" d="M91.2,368.45l-7.72.38s-4.1,0-5-1.19-4.3-28.21-4.3-28.21a2.18,2.18,0,0,1,2.08-2.75c2.69-.34,35.86-.68,35.86-.68s1.34.07,1.81-.54-.27-2.42,1.28-2.82,16.89-.6,16.89-.6a1.76,1.76,0,0,1,1.61,1.07c.37,1.07.24,1.81.71,2.08s.58.94,3.78.81,14-.26,14-.26,2.08-.07,2.08,1.54-.5,13.73-.5,13.73"/><path class="cls-3" d="M117.61,332.43c.08.05,2.92,2.65,5.52,2.88a7.45,7.45,0,0,0,5.31-1.11,11.85,11.85,0,0,0,2.57-2.13"/><path class="cls-3" d="M75.54,350.13s5.26-.32,8.28,1.54a22.64,22.64,0,0,1,7.86,9.26c2,4.08,4.3,9.55,6.45,12.65,2,2.94,7.63,11.1,25.59,11.89,16.88.75,27.72-13,29.13-16.75"/><path class="cls-3" d="M100.13,339.8a46.82,46.82,0,0,1-13.9,8.13c-8.26,3-10.7,2-10.7,2"/><path class="cls-3" d="M128.14,235v11.82a2.83,2.83,0,0,0,2,1.51c1.41.2,27.3,0,27.3,0s1.41-.5,1.51-1.21-.6-12.19-.6-12.19a1.67,1.67,0,0,0-1.61-1.31c-1.41-.1-25.79,0-25.79,0s-2.48-.1-2.79,1.25A.58.58,0,0,0,128.14,235Z"/><line class="cls-3" x1="128.57" y1="234.51" x2="136.13" y2="241.86"/><line class="cls-3" x1="150.71" y1="241.9" x2="157.81" y2="234.3"/><line class="cls-3" x1="128.7" y1="247.38" x2="135.25" y2="245.44"/><line class="cls-3" x1="151.54" y1="245.4" x2="158.26" y2="247.91"/><path class="cls-5" d="M135.83,243h15.25l.23-1.33a1,1,0,0,0-1-1c-1-.07-14,0-14,0s-.68.06-.76.66A5.5,5.5,0,0,0,135.83,243Z"/><path class="cls-5" d="M135.47,244.47h15.84v1.17s0,.53-.3.53H135.85s-.3.05-.34-.21S135.47,244.47,135.47,244.47Z"/><path class="cls-3" d="M50.37,215.62,47.85,226.8s-.91,1.81,1.26,2,49.52,0,49.52,0a2.56,2.56,0,0,0,2.62-2.12c.4-2.22.81-11.08.81-11.08a1.32,1.32,0,0,0-1.21-1.71c-1.61-.2-47,0-47,0S50.77,213.83,50.37,215.62Z"/><path class="cls-3" d="M54.6,217.47l-1.81,7.66s-.27.87.34,1,43.72-.27,43.72-.27a1.07,1.07,0,0,0,.87-.94c.07-.81.37-7.19.37-7.19a.84.84,0,0,0-.87-1.14l-41.4.14A1,1,0,0,0,54.6,217.47Z"/><line class="cls-3" x1="48.82" y1="223.61" x2="52.71" y2="223.61"/><polyline class="cls-3" points="55.14 217.1 57.69 221.65 97.82 221.06"/><line class="cls-3" x1="99.15" y1="223.48" x2="101.44" y2="223.48"/><path class="cls-3" d="M57.42,222"/><line class="cls-3" x1="57.68" y1="221.76" x2="56.64" y2="225.66"/><path class="cls-3" d="M123.81,180.66l-1.11,33.16s-.6,3.62,3.63,4.12,32.94.5,32.94.5,2.22.4,3-2.42-2.22-34.66-2.22-34.66-.71-3.43-3.12-3.53-29.72,0-29.72,0S123.88,178.54,123.81,180.66Z"/><path class="cls-3" d="M129.62,185.09l-.47,23.24s-.34,1.48,1.48,1.68,23.78,0,23.78,0,1.21-.27,1.41-1-1.07-23.91-1.07-23.91a1.13,1.13,0,0,0-1.21-1.07c-1.21-.07-22.57,0-22.57,0S129.64,183.88,129.62,185.09Z"/><circle class="cls-5" cx="154.88" cy="214.41" r="0.8"/><circle class="cls-5" cx="130.43" cy="214.41" r="0.8"/><rect class="cls-5" x="132.41" y="213.61" width="0.54" height="1.27"/><rect class="cls-5" x="133.39" y="213.61" width="0.54" height="1.27"/><rect class="cls-5" x="134.37" y="213.61" width="0.54" height="1.27"/><rect class="cls-5" x="135.35" y="213.61" width="0.54" height="1.27"/><rect class="cls-5" x="136.34" y="213.61" width="0.54" height="1.27"/><rect class="cls-5" x="137.32" y="213.61" width="0.54" height="1.27"/><rect class="cls-5" x="138.3" y="213.61" width="0.54" height="1.27"/><rect class="cls-5" x="139.28" y="213.61" width="0.54" height="1.27"/><rect class="cls-5" x="140.26" y="213.61" width="0.54" height="1.27"/><rect class="cls-5" x="141.25" y="213.61" width="0.54" height="1.27"/><rect class="cls-5" x="142.23" y="213.61" width="0.54" height="1.27"/><rect class="cls-5" x="143.21" y="213.61" width="0.54" height="1.27"/><rect class="cls-5" x="144.19" y="213.61" width="0.54" height="1.27"/><rect class="cls-5" x="145.18" y="213.61" width="0.54" height="1.27"/><rect class="cls-5" x="146.16" y="213.61" width="0.54" height="1.27"/><rect class="cls-5" x="147.14" y="213.61" width="0.54" height="1.27"/><rect class="cls-5" x="148.12" y="213.61" width="0.54" height="1.27"/><rect class="cls-5" x="149.1" y="213.61" width="0.54" height="1.27"/><rect class="cls-5" x="150.09" y="213.61" width="0.54" height="1.27"/><rect class="cls-5" x="151.07" y="213.61" width="0.54" height="1.27"/><rect class="cls-5" x="152.05" y="213.61" width="0.54" height="1.27"/><circle class="cls-5" cx="131.07" cy="180.38" r="0.63"/><circle class="cls-5" cx="153.1" cy="180.38" r="0.63"/><rect class="cls-5" x="132.74" y="179.99" width="0.55" height="0.79"/><rect class="cls-5" x="133.6" y="179.99" width="0.55" height="0.79"/><rect class="cls-5" x="134.45" y="179.99" width="0.55" height="0.79"/><rect class="cls-5" x="135.31" y="179.99" width="0.55" height="0.79"/><rect class="cls-5" x="136.17" y="179.99" width="0.55" height="0.79"/><rect class="cls-5" x="137.02" y="179.99" width="0.55" height="0.79"/><rect class="cls-5" x="137.88" y="179.99" width="0.55" height="0.79"/><rect class="cls-5" x="138.74" y="179.99" width="0.55" height="0.79"/><rect class="cls-5" x="139.59" y="179.99" width="0.55" height="0.79"/><rect class="cls-5" x="140.45" y="179.99" width="0.55" height="0.79"/><rect class="cls-5" x="141.31" y="179.99" width="0.55" height="0.79"/><rect class="cls-5" x="142.16" y="179.99" width="0.55" height="0.79"/><rect class="cls-5" x="143.02" y="179.99" width="0.55" height="0.79"/><rect class="cls-5" x="143.87" y="179.99" width="0.55" height="0.79"/><rect class="cls-5" x="144.73" y="179.99" width="0.55" height="0.79"/><rect class="cls-5" x="145.59" y="179.99" width="0.55" height="0.79"/><rect class="cls-5" x="146.44" y="179.99" width="0.55" height="0.79"/><rect class="cls-5" x="147.3" y="179.99" width="0.55" height="0.79"/><rect class="cls-5" x="148.16" y="179.99" width="0.55" height="0.79"/><rect class="cls-5" x="149.01" y="179.99" width="0.55" height="0.79"/><rect class="cls-5" x="149.87" y="179.99" width="0.55" height="0.79"/><rect class="cls-5" x="150.73" y="179.99" width="0.55" height="0.79"/><line class="cls-3" x1="227.42" y1="161.23" x2="38.5" y2="161.23"/><line class="cls-3" x1="82.06" y1="153.97" x2="34.9" y2="153.97"/><line class="cls-3" x1="231.02" y1="153.97" x2="183.86" y2="153.97"/><line class="cls-3" x1="259.83" y1="266.49" x2="6.09" y2="266.49"/><path class="cls-3" d="M228.4,231.52l7.44,0s1.39,0,1.71-.5c.55-.88.2-1.71-.4-3.73s-14.51-51-14.51-51-.2-1.71-1.31-2.22a9.58,9.58,0,0,0-3.32-.4H181.13s-2.42,0-2.22,1.34L187,228.21s.32,3,2,3.27c.69.1,5,.06,10.91.07"/><path class="cls-3" d="M200.95,225.56s.18,1.27.36,2.6.35,2.72.33,3a1.41,1.41,0,0,1-.34,1,4.19,4.19,0,0,0-.35.37l26.46.1a.93.93,0,0,0,.44-.5c.1-.34-1-6.48-1-6.48Z"/><line class="cls-3" x1="227.04" y1="228.48" x2="201.58" y2="228.48"/><path class="cls-3" d="M183.42,177.81s6.45,43.52,6.85,43.79,40.16,0,40.16,0a1.2,1.2,0,0,0,.67-1.31c-.2-.91-11.38-42.48-11.38-42.48a1.53,1.53,0,0,0-1.39-1.14c-1.1-.09-33.67,0-33.67,0S183.22,176.47,183.42,177.81Z"/><path class="cls-5" d="M216.92,181.76l8.91,34.75H194l-5.54-34.75h28.48m1.15-2H186.71a.52.52,0,0,0-.51.6l6,37.72a.52.52,0,0,0,.51.44h35a.52.52,0,0,0,.5-.65l-9.67-37.72a.52.52,0,0,0-.5-.39Z"/><polyline class="cls-3" points="237.9 230.73 236.28 242.61 185.46 242.61 187.5 230.35"/><polyline class="cls-3" points="187.5 230.35 185.46 242.61 177.3 188.66 178.92 174.98"/><polygon class="cls-6" points="166.52 340.1 161.78 340.1 162.94 324.11 167.84 324.11 166.52 340.1"/><polygon class="cls-6" points="210.25 340.1 205.51 340.1 208.18 324.11 213.08 324.11 210.25 340.1"/><polygon class="cls-6" points="204.95 338.26 167.53 338.26 168.62 325.4 207.08 325.4 204.95 338.26"/><polygon class="cls-6" points="191.39 349.07 178.39 349.07 175.32 346.2 195.17 346.2 191.39 349.07"/><polygon class="cls-6" points="204.7 354.98 163.57 354.98 163.8 352.07 205.2 352.07 204.7 354.98"/><line class="cls-6" x1="162.42" y1="348.97" x2="207.39" y2="348.97"/><polygon class="cls-6" points="207.02 358.27 160.46 358.27 161.78 340.1 210.25 340.1 207.02 358.27"/><path class="cls-6" d="M198.64,328.81a72.26,72.26,0,0,0-11.12-.78,76.2,76.2,0,0,0-11.31.78c2.2,2.21,7.09,6.7,10.38,6.7S195.89,331,198.64,328.81Z"/><path class="cls-6" d="M178.47,330.95a82.16,82.16,0,0,1,8.74-.45,79,79,0,0,1,8.63.45"/><path class="cls-6" d="M203.75,340.06a4.34,4.34,0,0,1-4.19,3.36H171.64a3.2,3.2,0,0,1-3.35-3.36"/><path class="cls-3" d="M100.46,381s5,8.25,24.63,8.25C143,389.23,151,378,151,378"/><path class="cls-3" d="M153.73,351s1,23.41-4.41,33.48c-6,11.23-20.15,11.88-27.55,11.41-8.68-.55-20.51-4.37-24.76-14.56-3.23-7.76-5.7-19.9-19.44-19.35"/></g></g></svg>