<svg xmlns="http://www.w3.org/2000/svg" viewBox="0 0 446 726.5"><defs><style>.cls-1,.cls-3,.cls-4{fill:none;}.cls-2{fill:#231815;}.cls-3{stroke:#00a0e9;stroke-width:8px;opacity:0.7;}.cls-3,.cls-4,.cls-5{stroke-linecap:round;stroke-linejoin:round;}.cls-4,.cls-5{stroke:#727171;}.cls-5{fill:#fff;}.cls-6{fill:#727171;}</style></defs><title>アセット 2</title><g id="レイヤー_2" data-name="レイヤー 2"><g id="レイヤー_1-2" data-name="レイヤー 1"><rect class="cls-1" y="0.5" width="446" height="726"/><path class="cls-2" d="M65,644.49l.22,1.57c-3.32,1-6.86,2.08-9.07,2.7a.51.51,0,0,1-.32.43l-.84-2c1.19-.3,2.7-.67,4.37-1.13v-7H55.79v-1.67h3.56v-6H55.44v-1.7H64.8v1.7h-3.7v6h3.48v1.67H61.11v6.48Zm5.67.92a.56.56,0,0,1-.54.35c-.67,3.48-2.08,6.13-7.29,7.58a5.86,5.86,0,0,0-1.05-1.51c4.78-1.13,6.13-3.35,6.61-6.67Zm4.45,5.37c0,.65.11.78.84.78h2.32c.65,0,.78-.43.84-3.27a4.56,4.56,0,0,0,1.57.7c-.16,3.32-.62,4.13-2.21,4.13H75.68c-1.86,0-2.32-.51-2.32-2.35v-6.26H66.13v-15H78.89v15H75.12Zm-7.26-19.73V634h9.26v-2.94Zm0,4.43v3h9.26v-3Zm0,4.48v3h9.26v-3Z"/><path class="cls-2" d="M95.58,643.9v6.91h10.91v1.62H83.06v-1.62H93.69V643.9H84.27v-1.62h9.42V638.5h-5.8V637A39.16,39.16,0,0,1,83.3,640a11,11,0,0,0-1.13-1.43c4.72-2.51,9.37-6.83,11.5-10.47l2.64.16a.63.63,0,0,1-.54.41,34.48,34.48,0,0,0,11.66,9.55,9.9,9.9,0,0,0-1.21,1.59A38.23,38.23,0,0,1,94.64,630,31.08,31.08,0,0,1,88,636.86H101.6v1.65h-6v3.78h9.64v1.62Zm-6.37,6.45a18.67,18.67,0,0,0-2.54-5.1l1.48-.57a17.66,17.66,0,0,1,2.65,5Zm13.87-4.86c-.08.16-.3.24-.59.22a40.36,40.36,0,0,1-3.1,4.7L98,649.73a32.33,32.33,0,0,0,3-5.13Z"/><path class="cls-2" d="M133,639.82a.39.39,0,0,1-.16.05.68.68,0,0,1-.41-.16c-2.05.67-5,1.78-7.29,2.75q.08.93.08,2.11c0,.86,0,1.84-.08,2.89l-2,.11c.08-1,.13-2.21.13-3.27,0-.41,0-.78,0-1.08-3.05,1.48-5.53,3.29-5.53,4.91s1.86,2.32,5.59,2.32a60.52,60.52,0,0,0,6.78-.27l0,1.81c-1.59.16-4,.22-6.8.22-5.18,0-7.48-1.24-7.48-4,0-2.38,3.13-4.67,7.18-6.69-.16-1.7-.92-2.54-2-2.54-2,0-4,1.11-6.45,3.81-.76.84-1.81,1.89-3,2.94l-1.32-1.32c2.7-2.37,5.24-4.64,6.8-10l-1.51,0h-4.51v-1.75c1.65,0,3.56,0,4.67,0l1.84,0a35.27,35.27,0,0,0,.73-3.86l2.65.32c-.05.27-.27.43-.67.49-.19,1.08-.43,2-.67,3a37,37,0,0,0,9.29-1.57l.32,1.81a40.77,40.77,0,0,1-10.12,1.51,19.66,19.66,0,0,1-1.94,4.56h0a7.18,7.18,0,0,1,4.35-1.75c1.84,0,3,1.32,3.35,3.51,2.27-1,5.13-2.13,7.29-3Z"/><path class="cls-2" d="M157.63,650.62a50.22,50.22,0,0,1-8.29.62,30.21,30.21,0,0,1-5.21-.35c-3.27-.73-4.67-2.78-4.67-5.16a8.58,8.58,0,0,1,2.75-5.75l1.57.81a7.32,7.32,0,0,0-2.37,4.78c0,1.59,1.05,3,3.37,3.54a24.34,24.34,0,0,0,4.32.3,46.22,46.22,0,0,0,8.39-.73ZM145.51,637a31.53,31.53,0,0,1,4.78-3.13v0c-2.05.24-6.75.32-9.74.32,0-.51,0-1.4,0-1.89H142c3.46,0,10.53-.05,13.93-.86l.22,2a10.29,10.29,0,0,0-2.83.81A28.58,28.58,0,0,0,147,638Zm12.09,3.83a17.91,17.91,0,0,0-3.62-3.67l.89-.84a19.72,19.72,0,0,1,3.7,3.64Zm2.83-2.56a19.21,19.21,0,0,0-3.62-3.64l.89-.86a19.87,19.87,0,0,1,3.7,3.67Z"/><path class="cls-2" d="M175.85,629.62a.5.5,0,0,1-.51.11,22.11,22.11,0,0,1-4.4,1.59v5.21h5.34v1.73h-5.34v2.05c1.24.94,4.37,3.62,5.18,4.35l-1.05,1.48c-.81-.89-2.7-2.7-4.13-4v11.17h-1.78V641.09a30.75,30.75,0,0,1-5.13,8.37,7.7,7.7,0,0,0-1-1.7,29.13,29.13,0,0,0,5.75-9.5h-5.32v-1.73h5.72v-4.75c-1.75.4-3.59.76-5.32,1.05a6.87,6.87,0,0,0-.59-1.38c3.94-.7,8.58-1.84,10.91-3.21Zm2.54,1.94,2.29.14c0,.19-.16.32-.51.38v14.58h-1.78Zm6.78-2.78,2.32.14c0,.22-.16.32-.51.38v21.57c0,1.29-.38,1.86-1.19,2.16a16.92,16.92,0,0,1-4.86.35,7.71,7.71,0,0,0-.7-1.83c1,0,1.92,0,2.67,0,2.16,0,2.27,0,2.27-.7Z"/><path class="cls-2" d="M213.27,630.21v20.51c0,2.48-1.19,2.51-6.29,2.46a7,7,0,0,0-.65-1.75c1,0,2,.05,2.75.05,2.24,0,2.38,0,2.38-.76v-5.86h-7.77v8.21h-1.75v-8.21h-7.1a15.75,15.75,0,0,1-3.46,8.61,6.63,6.63,0,0,0-1.38-1.21c3-3.4,3.32-8.26,3.32-12.12v-9.93Zm-18.17,9.93c0,.95,0,1.94-.11,3h6.94v-4.72h-6.83Zm6.83-8.21h-6.83v4.78h6.83Zm9.53,4.78v-4.78h-7.77v4.78Zm-7.77,6.42h7.77v-4.72h-7.77Z"/><path class="cls-2" d="M231.31,633.18a.7.7,0,0,1-.67.43c-1,8.39-3.78,15.71-8.26,15.71-2.27,0-4.32-2.27-4.32-6.53a11.84,11.84,0,0,1,12.15-11.9c7.8,0,11.17,4.94,11.17,10.2,0,6.42-3.72,9.53-10.26,11a10.62,10.62,0,0,0-1.13-1.65c6.21-1.19,9.39-4.21,9.39-9.31,0-4.45-2.86-8.5-9.18-8.5a7.56,7.56,0,0,0-.81.05Zm-2.59-.35a9.94,9.94,0,0,0-8.83,9.91c0,2.89,1.24,4.7,2.54,4.7C225.7,647.44,228,640.23,228.72,632.83Z"/><path class="cls-2" d="M269,634.8h-13.9c-.11,1.51-.24,3.1-.46,4.7h9.64l.41-.05,1.08.19a3.55,3.55,0,0,1-.11.57c-.57,8.13-1.11,11.15-2.19,12.23-.73.78-1.46.92-3.16.92-1,0-2.32-.05-3.67-.13a4.34,4.34,0,0,0-.65-1.78c2,.19,3.94.19,4.62.19s1,0,1.3-.3c.84-.76,1.38-3.48,1.86-10.09h-9.42c-.92,4.8-3.05,9.5-8.72,12.2a5.47,5.47,0,0,0-1.3-1.46c7.64-3.46,8.48-10.74,8.8-17.17h-8.56V633h11.17v-4.86l2.4.16c0,.19-.19.32-.54.38V633H269Z"/><path class="cls-2" d="M273.89,651.84c-.84-1.94-1.16-6-1.16-9.5a68.69,68.69,0,0,1,1.46-12.61l2.62.51a.7.7,0,0,1-.7.49,51.82,51.82,0,0,0-1.57,11.63,32,32,0,0,0,.24,5.1c.59-1.62,1.67-4.21,2.24-5.48l1.21,1.13c-.89,1.83-2.78,5.94-2.78,7.21a3.71,3.71,0,0,0,.27,1.29Zm6.86-15.9c2.27,0,4.54.05,6.8-.11-.11-2.32-.19-4.32-.24-6.32l2.73.08c0,.27-.27.49-.7.57,0,1.73.08,3.48.13,5.53a23.93,23.93,0,0,0,5.29-1.08l.24,1.89a26.06,26.06,0,0,1-5.45,1c.11,3,.24,6.15.32,7.88a19.89,19.89,0,0,1,5.51,3.43l-1.05,1.73a16.23,16.23,0,0,0-4.37-3.08c0,2.29-.46,4.86-4.51,4.86-3.16,0-5.26-1.51-5.26-3.89,0-2.75,2.78-4,5.26-4a9.35,9.35,0,0,1,2.56.35c-.08-1.7-.24-4.53-.38-7.18-.84.05-2,.08-2.75.08h-4.1Zm7.4,10.61a9.17,9.17,0,0,0-2.67-.49c-1.65,0-3.62.59-3.62,2.29,0,1.51,1.62,2.27,3.59,2.27s2.73-1,2.73-3.13Z"/><path class="cls-2" d="M319.74,650.57a49.58,49.58,0,0,1-8.21.62,30.85,30.85,0,0,1-5.29-.35c-3.27-.73-4.67-2.78-4.67-5.16a8.65,8.65,0,0,1,2.75-5.78l1.57.81a7.37,7.37,0,0,0-2.37,4.8c0,1.57,1.05,3,3.37,3.51a22.46,22.46,0,0,0,4.4.32,45,45,0,0,0,8.31-.73Zm-12.12-13.63a33.67,33.67,0,0,1,4.78-3.13v0c-2.05.24-6.75.35-9.74.32,0-.51,0-1.4,0-1.89.59,0,11,.19,15.39-.86l.22,2c-3.21.38-7.34,3.18-9.07,4.56Z"/><path class="cls-2" d="M346.57,633.72A62.26,62.26,0,0,1,335,635.29a33.63,33.63,0,0,1-1.27,7.15,13.74,13.74,0,0,1,7.67-2.86c4,0,6.48,2.16,6.48,5.8,0,5.37-5.43,7.18-14.2,7.4a8,8,0,0,0-.54-1.78c7.75-.16,12.77-1.49,12.77-5.56,0-2.43-1.62-4.1-4.75-4.1-2.4,0-6.53,1.46-8.31,4.13l-1.89-.89c.86-1,1.75-4.83,2.16-9.26h-6.32v-1.89c1.13,0,4.45,0,6.48,0,.11-1.54.16-3.27.16-4.89l2.86.27c-.05.46-.38.54-.86.59-.05,1.35-.14,2.73-.24,4a52.35,52.35,0,0,0,11.07-1.65Z"/><path class="cls-2" d="M359.56,634.07a.77.77,0,0,1-.7.46c-.22,4-.73,7.4-1.11,8h0a18.38,18.38,0,0,1,9.93-3.32c4.16,0,6.75,2.13,6.69,5.91-.08,5-4.18,7.18-14.63,7.61a8,8,0,0,0-.67-1.78c9.42-.41,13.2-1.94,13.28-5.8,0-2.59-1.78-4.16-4.94-4.16-5,0-9.5,3-10.26,4.32l-1.84-.89c.54-.51,1.49-5.34,1.54-10.64Zm.46-5.24a43.46,43.46,0,0,1,10.47,2.38l-.67,1.86a43.93,43.93,0,0,0-10.37-2.46Z"/><path class="cls-2" d="M386.75,649.57a3.78,3.78,0,1,1-3.78-3.78A3.79,3.79,0,0,1,386.75,649.57Zm-1,0a2.79,2.79,0,1,0-2.81,2.78A2.79,2.79,0,0,0,385.78,649.57Z"/><circle class="cls-3" cx="301.01" cy="487.18" r="44.08"/><circle class="cls-3" cx="238.45" cy="343.83" r="33.17"/><path class="cls-4" d="M364.27,583a6.91,6.91,0,0,1-6.56,5H88.29a6.91,6.91,0,0,1-6.56-5L50.13,450.24a4.6,4.6,0,0,1,4.64-5.85H391.22a4.6,4.6,0,0,1,4.64,5.85Z"/><path class="cls-4" d="M409.29,367.4,365.71,234.51h0A29,29,0,0,1,363,221.39L375.45,47.64l1.85-28.21C378,9,371.54.5,362.93.5H83.07C74.46.5,68,9,68.7,19.42L83,221.39a29,29,0,0,1-2.69,13.12L36.71,367.4a19.76,19.76,0,0,0-1.4,11.81l12.17,59.3a7.91,7.91,0,0,0,7.3,5.88H391.22a7.91,7.91,0,0,0,7.3-5.88l12.17-59.3A19.76,19.76,0,0,0,409.29,367.4Z"/><polygon class="cls-5" points="322.46 174.11 123.54 174.11 117.35 50.08 328.65 50.08 322.46 174.11"/><path class="cls-4" d="M249.17,490.42l-3.46,5.36V511.1s-1.33,13.24-10.24,21.79c-8.4,8.06-23.26,15.73-41.44,7.69s-20.67-24.69-20.67-29.09,1.91-26.42,2.87-27.95a12.38,12.38,0,0,1,8.81-4.59c4.21-.19,50.53,0,50.53,0s5.91-.29,7.66,1.72C246,483.83,249.17,490.42,249.17,490.42Z"/><polygon class="cls-4" points="224.03 479.15 224.03 500.28 228.34 492.67 224.03 479.15"/><path class="cls-4" d="M202.45,542.15s-.1-1-.1-2.25-1.44-3.73-3-4.88-5.89-4-7.32-6.17-.86-6.32-.86-6.32l.86-11.16s0-3.05,4.68-3.2,27.91,0,27.91,0,4.59-.29,5,2.58,1,13.64.72,15.22-3,4.94-4.74,6.35-5.46,2.41-6.17,3.56-.83,5.55-.83,5.55"/><path class="cls-4" d="M179.52,484.06s5.85,8,7.75,10.91a82.77,82.77,0,0,1,6.51,12.45"/><path class="cls-4" d="M228,508.13s6.81-6.12,9.68-9.86"/><polyline class="cls-4" points="230.42 478.92 230.42 492.53 244.27 492.53 249.17 490.43"/><path class="cls-4" d="M163.49,524.11l-11,.54s-5.84,0-7.18-1.69-6.13-40.2-6.13-40.2a3.11,3.11,0,0,1,3-3.91c3.83-.49,51.11-1,51.11-1s1.91.1,2.58-.77-.38-3.45,1.82-4,24.07-.86,24.07-.86a2.5,2.5,0,0,1,2.3,1.53c.53,1.53.33,2.58,1,3s.82,1.34,5.39,1.15,19.93-.37,19.93-.37,3-.1,3,2.19-.72,19.57-.72,19.57"/><path class="cls-4" d="M201.13,472.79c.11.07,4.16,3.77,7.86,4.1s5.38-.25,7.57-1.58a16.89,16.89,0,0,0,3.66-3"/><path class="cls-4" d="M141.17,498s7.49-.46,11.8,2.2,8.33,7.38,11.2,13.2,6.12,13.61,9.19,18c2.91,4.2,10.88,15.81,36.46,16.95,24,1.07,39.5-18.58,41.51-23.88"/><path class="cls-4" d="M176.22,483.28a66.72,66.72,0,0,1-19.81,11.58c-11.77,4.31-15.24,2.9-15.24,2.9"/><path class="cls-4" d="M216.13,334v16.85A4,4,0,0,0,219,353c2,.29,38.9,0,38.9,0s2-.72,2.15-1.72-.86-17.37-.86-17.37a2.38,2.38,0,0,0-2.3-1.87c-2-.14-36.75,0-36.75,0s-3.54-.14-4,1.78A.83.83,0,0,0,216.13,334Z"/><line class="cls-4" x1="216.75" y1="333.24" x2="227.51" y2="343.72"/><line class="cls-4" x1="248.29" y1="343.78" x2="258.41" y2="332.95"/><line class="cls-4" x1="216.93" y1="351.59" x2="226.26" y2="348.83"/><line class="cls-4" x1="249.48" y1="348.77" x2="259.05" y2="352.35"/><path class="cls-6" d="M227.09,345.28h21.73l.33-1.9a1.36,1.36,0,0,0-1.4-1.41c-1.47-.1-19.92,0-19.92,0s-1,.08-1.08.95A7.84,7.84,0,0,0,227.09,345.28Z"/><path class="cls-6" d="M226.58,347.44h22.57v1.67s0,.75-.43.75H227.12s-.43.07-.48-.3S226.58,347.44,226.58,347.44Z"/><path class="cls-4" d="M105.3,306.33l-3.59,15.94s-1.29,2.58,1.79,2.87,70.56,0,70.56,0a3.64,3.64,0,0,0,3.73-3c.57-3.16,1.15-15.79,1.15-15.79a1.89,1.89,0,0,0-1.72-2.44c-2.3-.29-67,0-67,0S105.88,303.78,105.3,306.33Z"/><path class="cls-4" d="M111.33,309l-2.58,10.91s-.38,1.24.48,1.44,62.31-.38,62.31-.38a1.52,1.52,0,0,0,1.24-1.34c.1-1.15.52-10.25.52-10.25a1.19,1.19,0,0,0-1.24-1.63l-59,.2A1.37,1.37,0,0,0,111.33,309Z"/><line class="cls-4" x1="103.1" y1="317.71" x2="108.64" y2="317.71"/><polyline class="cls-4" points="112.1 308.44 115.74 314.92 172.92 314.08"/><line class="cls-4" x1="174.82" y1="317.53" x2="178.09" y2="317.53"/><path class="cls-4" d="M115.35,315.41"/><line class="cls-4" x1="115.72" y1="315.08" x2="114.24" y2="320.65"/><path class="cls-4" d="M210,256.52l-1.58,47.25s-.86,5.15,5.17,5.87,46.94.72,46.94.72,3.16.57,4.31-3.45-3.16-49.38-3.16-49.38-1-4.88-4.45-5-42.35,0-42.35,0S210.06,253.49,210,256.52Z"/><path class="cls-4" d="M218.24,262.83l-.67,33.11s-.48,2.11,2.11,2.39,33.88,0,33.88,0,1.72-.38,2-1.44S254,262.83,254,262.83a1.61,1.61,0,0,0-1.72-1.53c-1.72-.1-32.16,0-32.16,0S218.27,261.11,218.24,262.83Z"/><circle class="cls-6" cx="254.24" cy="304.61" r="1.14"/><circle class="cls-6" cx="219.39" cy="304.61" r="1.14"/><rect class="cls-6" x="222.21" y="303.47" width="0.77" height="1.81"/><rect class="cls-6" x="223.61" y="303.47" width="0.77" height="1.81"/><rect class="cls-6" x="225.01" y="303.47" width="0.77" height="1.81"/><rect class="cls-6" x="226.41" y="303.47" width="0.77" height="1.81"/><rect class="cls-6" x="227.81" y="303.47" width="0.77" height="1.81"/><rect class="cls-6" x="229.21" y="303.47" width="0.77" height="1.81"/><rect class="cls-6" x="230.61" y="303.47" width="0.77" height="1.81"/><rect class="cls-6" x="232.01" y="303.47" width="0.77" height="1.81"/><rect class="cls-6" x="233.41" y="303.47" width="0.77" height="1.81"/><rect class="cls-6" x="234.81" y="303.47" width="0.77" height="1.81"/><rect class="cls-6" x="236.21" y="303.47" width="0.77" height="1.81"/><rect class="cls-6" x="237.61" y="303.47" width="0.77" height="1.81"/><rect class="cls-6" x="239.01" y="303.47" width="0.77" height="1.81"/><rect class="cls-6" x="240.41" y="303.47" width="0.77" height="1.81"/><rect class="cls-6" x="241.81" y="303.47" width="0.77" height="1.81"/><rect class="cls-6" x="243.21" y="303.47" width="0.77" height="1.81"/><rect class="cls-6" x="244.61" y="303.47" width="0.77" height="1.81"/><rect class="cls-6" x="246.01" y="303.47" width="0.77" height="1.81"/><rect class="cls-6" x="247.41" y="303.47" width="0.77" height="1.81"/><rect class="cls-6" x="248.8" y="303.47" width="0.77" height="1.81"/><rect class="cls-6" x="250.2" y="303.47" width="0.77" height="1.81"/><circle class="cls-6" cx="220.31" cy="256.12" r="0.9"/><circle class="cls-6" cx="251.7" cy="256.12" r="0.9"/><rect class="cls-6" x="222.69" y="255.56" width="0.79" height="1.12"/><rect class="cls-6" x="223.91" y="255.56" width="0.79" height="1.12"/><rect class="cls-6" x="225.13" y="255.56" width="0.79" height="1.12"/><rect class="cls-6" x="226.35" y="255.56" width="0.79" height="1.12"/><rect class="cls-6" x="227.57" y="255.56" width="0.79" height="1.12"/><rect class="cls-6" x="228.79" y="255.56" width="0.79" height="1.12"/><rect class="cls-6" x="230.01" y="255.56" width="0.79" height="1.12"/><rect class="cls-6" x="231.23" y="255.56" width="0.79" height="1.12"/><rect class="cls-6" x="232.45" y="255.56" width="0.79" height="1.12"/><rect class="cls-6" x="233.67" y="255.56" width="0.79" height="1.12"/><rect class="cls-6" x="234.89" y="255.56" width="0.79" height="1.12"/><rect class="cls-6" x="236.11" y="255.56" width="0.79" height="1.12"/><rect class="cls-6" x="237.33" y="255.56" width="0.79" height="1.12"/><rect class="cls-6" x="238.55" y="255.56" width="0.79" height="1.12"/><rect class="cls-6" x="239.77" y="255.56" width="0.79" height="1.12"/><rect class="cls-6" x="240.99" y="255.56" width="0.79" height="1.12"/><rect class="cls-6" x="242.21" y="255.56" width="0.79" height="1.12"/><rect class="cls-6" x="243.43" y="255.56" width="0.79" height="1.12"/><rect class="cls-6" x="244.65" y="255.56" width="0.79" height="1.12"/><rect class="cls-6" x="245.87" y="255.56" width="0.79" height="1.12"/><rect class="cls-6" x="247.09" y="255.56" width="0.79" height="1.12"/><rect class="cls-6" x="248.31" y="255.56" width="0.79" height="1.12"/><line class="cls-4" x1="357.6" y1="228.83" x2="88.4" y2="228.83"/><line class="cls-4" x1="150.47" y1="218.48" x2="83.27" y2="218.48"/><line class="cls-4" x1="362.73" y1="218.48" x2="295.53" y2="218.48"/><line class="cls-4" x1="403.79" y1="378.83" x2="42.21" y2="378.83"/><path class="cls-4" d="M359,329l10.6-.06s2,0,2.44-.72c.79-1.25.29-2.44-.57-5.31s-20.67-72.64-20.67-72.64-.29-2.44-1.87-3.16a13.66,13.66,0,0,0-4.74-.57H291.65s-3.45,0-3.16,1.91L300,324.27s.45,4.3,2.87,4.66c1,.15,7.07.09,15.54.1"/><path class="cls-4" d="M319.88,320.5s.26,1.81.52,3.7.5,3.87.46,4.22a2,2,0,0,1-.49,1.36,6,6,0,0,0-.49.53l37.71.14a1.33,1.33,0,0,0,.62-.72c.14-.48-1.48-9.24-1.48-9.24Z"/><line class="cls-4" x1="357.06" y1="324.66" x2="320.79" y2="324.66"/><path class="cls-4" d="M294.9,252.46s9.19,62,9.76,62.4,57.23,0,57.23,0a1.71,1.71,0,0,0,1-1.87c-.29-1.29-16.22-60.53-16.22-60.53a2.17,2.17,0,0,0-2-1.63c-1.57-.13-48,0-48,0S294.62,250.55,294.9,252.46Z"/><path class="cls-6" d="M344.08,256.23l13.65,53.22H308.39l-8.49-53.22h44.18m.2-1H299.59a.74.74,0,0,0-.73.86l8.57,53.74a.74.74,0,0,0,.73.62h49.91a.74.74,0,0,0,.72-.92L345,255.79a.74.74,0,0,0-.72-.56Z"/><polyline class="cls-4" points="372.54 327.87 370.23 344.79 297.81 344.79 300.71 327.33"/><polyline class="cls-4" points="300.71 327.33 297.81 344.79 286.18 267.91 288.49 248.42"/><polygon class="cls-4" points="270.82 483.71 264.06 483.71 265.71 460.93 272.7 460.93 270.82 483.71"/><polygon class="cls-4" points="333.13 483.71 326.38 483.71 330.19 460.93 337.18 460.93 333.13 483.71"/><polygon class="cls-4" points="325.59 481.1 272.26 481.1 273.81 462.78 328.62 462.78 325.59 481.1"/><polygon class="cls-4" points="306.26 496.51 287.74 496.51 283.37 492.41 311.65 492.41 306.26 496.51"/><polygon class="cls-4" points="325.23 504.93 266.62 504.93 266.94 500.78 325.94 500.78 325.23 504.93"/><line class="cls-4" x1="264.98" y1="496.36" x2="329.06" y2="496.36"/><polygon class="cls-4" points="328.54 509.61 262.19 509.61 264.06 483.71 333.13 483.71 328.54 509.61"/><path class="cls-4" d="M316.59,467.63a103,103,0,0,0-15.84-1.11,108.59,108.59,0,0,0-16.12,1.11c3.14,3.14,10.1,9.55,14.79,9.55S312.67,470.77,316.59,467.63Z"/><path class="cls-4" d="M287.86,470.67a117.08,117.08,0,0,1,12.45-.63,112.61,112.61,0,0,1,12.29.63"/><path class="cls-4" d="M323.87,483.66s-1,4.78-6,4.78H278.12c-4.92,0-4.78-4.78-4.78-4.78"/><path class="cls-4" d="M176.68,542s7.13,11.76,35.09,11.76c25.47,0,36.87-16,36.87-16"/><path class="cls-4" d="M252.6,499.28S254,532.64,246.31,547c-8.53,16-28.72,16.93-39.26,16.26-12.38-.79-29.23-6.23-35.28-20.75-4.61-11.06-8.13-28.36-27.71-27.57"/></g></g></svg>