<?xml version="1.0" encoding="utf-8"?>
<!-- Generator: Adobe Illustrator 21.1.0, SVG Export Plug-In . SVG Version: 6.00 Build 0)  -->
<svg version="1.1" id="レイヤー_1" xmlns="http://www.w3.org/2000/svg" xmlns:xlink="http://www.w3.org/1999/xlink" x="0px"
	 y="0px" viewBox="0 0 377.1 588.5" style="enable-background:new 0 0 377.1 588.5;" xml:space="preserve">
<style type="text/css">
	.st0{opacity:0.7;fill:none;stroke:#00A0E9;stroke-width:8;stroke-linecap:round;stroke-linejoin:round;enable-background:new    ;}
	.st1{fill:none;stroke:#727171;stroke-linecap:round;stroke-linejoin:round;}
	.st2{fill:#FFFFFF;stroke:#727171;stroke-linecap:round;stroke-linejoin:round;}
	.st3{fill:#727171;}
	.st4{opacity:0.7;fill:#00A0E9;enable-background:new    ;}
</style>
<title>アセット 1</title>
<g id="レイヤー_2">
	<g id="レイヤー_1-2">
		<g id="レイヤー_2-2">
			<g id="レイヤー_1-2-2">
				<circle class="st0" cx="266.5" cy="487.2" r="44.1"/>
				<circle class="st0" cx="204" cy="343.8" r="33.2"/>
				<path class="st1" d="M329.8,583c-0.8,2.9-3.5,5-6.6,5H53.8c-3.1,0-5.7-2.1-6.6-5L15.7,450.2c-0.7-2.4,0.7-5,3.2-5.7
					c0.5-0.1,1-0.2,1.5-0.2h336.5c2.5-0.1,4.7,1.8,4.8,4.4c0,0.5,0,1-0.2,1.5L329.8,583z"/>
				<path class="st1" d="M374.8,367.4l-43.6-132.9l0,0c-1.9-4.1-2.8-8.6-2.7-13.1L341,47.6l1.9-28.2c0.7-10.4-5.8-18.9-14.4-18.9
					H48.6C40,0.5,33.5,9,34.2,19.4l14.3,202c0.1,4.5-0.8,9-2.7,13.1L2.2,367.4c-1.7,3.7-2.2,7.8-1.4,11.8L13,438.5
					c0.9,3.3,3.8,5.7,7.3,5.9h336.5c3.5-0.2,6.4-2.5,7.3-5.9l12.2-59.3C377,375.2,376.5,371.1,374.8,367.4z"/>
				<polygon class="st2" points="288,174.1 89.1,174.1 82.9,50.1 294.2,50.1 				"/>
				<path class="st1" d="M214.7,490.4l-3.5,5.4v15.3c0,0-1.3,13.2-10.2,21.8c-8.4,8.1-23.3,15.7-41.4,7.7s-20.7-24.7-20.7-29.1
					s1.9-26.4,2.9-28c2.2-2.7,5.4-4.4,8.8-4.6c4.2-0.2,50.5,0,50.5,0s5.9-0.3,7.7,1.7C211.5,483.8,214.7,490.4,214.7,490.4z"/>
				<polygon class="st1" points="189.6,479.2 189.6,500.3 193.9,492.7 				"/>
				<path class="st1" d="M168,542.2c0,0-0.1-1-0.1-2.2s-1.4-3.7-3-4.9s-5.9-4-7.3-6.2s-0.9-6.3-0.9-6.3l0.9-11.2c0,0,0-3,4.7-3.2
					s27.9,0,27.9,0s4.6-0.3,5,2.6s1,13.6,0.7,15.2s-3,4.9-4.7,6.3s-5.5,2.4-6.2,3.6s-0.8,5.5-0.8,5.5"/>
				<path class="st1" d="M145.1,484.1c0,0,5.9,8,7.8,10.9c2.5,4,4.7,8.1,6.5,12.5"/>
				<path class="st1" d="M193.5,508.1c0,0,6.8-6.1,9.7-9.9"/>
				<polyline class="st1" points="196,478.9 196,492.5 209.8,492.5 214.7,490.4 				"/>
				<path class="st1" d="M129,524.1l-11,0.5c0,0-5.8,0-7.2-1.7s-6.1-40.2-6.1-40.2c-0.4-1.7,0.5-3.4,2.2-3.8
					c0.3-0.1,0.5-0.1,0.8-0.1c3.8-0.5,51.1-1,51.1-1s1.9,0.1,2.6-0.8s-0.4-3.5,1.8-4s24.1-0.9,24.1-0.9c1,0,1.9,0.6,2.3,1.5
					c0.5,1.5,0.3,2.6,1,3s0.8,1.3,5.4,1.1s19.9-0.4,19.9-0.4s3-0.1,3,2.2s-0.7,19.6-0.7,19.6"/>
				<path class="st1" d="M166.7,472.8c0.1,0.1,4.2,3.8,7.9,4.1s5.4-0.2,7.6-1.6c1.4-0.8,2.6-1.8,3.7-3"/>
				<path class="st1" d="M106.7,498c0,0,7.5-0.5,11.8,2.2s8.3,7.4,11.2,13.2s6.1,13.6,9.2,18c2.9,4.2,10.9,15.8,36.5,17
					c24,1.1,39.5-18.6,41.5-23.9"/>
				<path class="st1" d="M141.8,483.3c-5.9,5-12.6,8.9-19.8,11.6c-11.8,4.3-15.2,2.9-15.2,2.9"/>
				<path class="st1" d="M181.7,334v16.9c0.6,1.1,1.6,1.9,2.9,2.1c2,0.3,38.9,0,38.9,0s2-0.7,2.1-1.7s-0.9-17.4-0.9-17.4
					c-0.2-1.1-1.2-1.9-2.3-1.9c-2-0.1-36.8,0-36.8,0s-3.5-0.1-4,1.8C181.7,333.9,181.7,333.9,181.7,334z"/>
				<line class="st1" x1="182.3" y1="333.2" x2="193" y2="343.7"/>
				<line class="st1" x1="213.8" y1="343.8" x2="223.9" y2="333"/>
				<line class="st1" x1="182.5" y1="351.6" x2="191.8" y2="348.8"/>
				<line class="st1" x1="215" y1="348.8" x2="224.6" y2="352.4"/>
				<path class="st3" d="M192.6,345.3h21.7l0.3-1.9c0-0.8-0.6-1.4-1.3-1.4c0,0,0,0,0,0h-0.1c-1.5-0.1-19.9,0-19.9,0s-1,0.1-1.1,1
					C192.3,343.8,192.4,344.5,192.6,345.3z"/>
				<path class="st3" d="M192.1,347.4h22.6v1.7c0,0,0,0.8-0.4,0.8h-21.6c0,0-0.4,0.1-0.5-0.3S192.1,347.4,192.1,347.4z"/>
				<path class="st1" d="M70.8,306.3l-3.6,15.9c0,0-1.2,2.6,1.8,2.9s70.6,0,70.6,0c1.8,0.1,3.4-1.2,3.7-3c0.6-3.2,1.1-15.8,1.1-15.8
					c0.3-1-0.3-2.1-1.3-2.4c-0.2,0-0.3-0.1-0.5-0.1c-2.3-0.3-67,0-67,0S71.4,303.8,70.8,306.3z"/>
				<path class="st1" d="M76.9,309l-2.6,10.9c0,0-0.4,1.2,0.5,1.4s62.3-0.4,62.3-0.4c0.7-0.1,1.2-0.7,1.2-1.3
					c0.1-1.1,0.5-10.2,0.5-10.2c0.2-0.6,0-1.3-0.7-1.6c-0.2-0.1-0.4-0.1-0.6-0.1l-59,0.2c-0.7-0.2-1.5,0.2-1.7,0.9c0,0,0,0,0,0
					L76.9,309z"/>
				<line class="st1" x1="68.6" y1="317.7" x2="74.2" y2="317.7"/>
				<polyline class="st1" points="77.6,308.4 81.3,314.9 138.5,314.1 				"/>
				<line class="st1" x1="140.4" y1="317.5" x2="143.6" y2="317.5"/>
				<path class="st1" d="M80.9,315.4"/>
				<line class="st1" x1="81.3" y1="315.1" x2="79.8" y2="320.7"/>
				<path class="st1" d="M175.5,256.5l-1.6,47.2c0,0-0.9,5.1,5.2,5.9s46.9,0.7,46.9,0.7s3.2,0.6,4.3-3.5s-3.2-49.4-3.2-49.4
					s-1-4.9-4.4-5s-42.4,0-42.4,0S175.6,253.5,175.5,256.5z"/>
				<path class="st1" d="M183.8,262.8l-0.7,33.1c0,0-0.5,2.1,2.1,2.4s33.9,0,33.9,0s1.7-0.4,2-1.4s-1.5-34.1-1.5-34.1
					c0-0.9-0.8-1.6-1.7-1.5l0,0c-1.7-0.1-32.2,0-32.2,0S183.8,261.1,183.8,262.8z"/>
				<circle class="st3" cx="219.8" cy="304.6" r="1.1"/>
				<circle class="st3" cx="184.9" cy="304.6" r="1.1"/>
				<rect x="187.7" y="303.5" class="st3" width="0.8" height="1.8"/>
				<rect x="189.1" y="303.5" class="st3" width="0.8" height="1.8"/>
				<rect x="190.5" y="303.5" class="st3" width="0.8" height="1.8"/>
				<rect x="191.9" y="303.5" class="st3" width="0.8" height="1.8"/>
				<rect x="193.3" y="303.5" class="st3" width="0.8" height="1.8"/>
				<rect x="194.7" y="303.5" class="st3" width="0.8" height="1.8"/>
				<rect x="196.1" y="303.5" class="st3" width="0.8" height="1.8"/>
				<rect x="197.5" y="303.5" class="st3" width="0.8" height="1.8"/>
				<rect x="198.9" y="303.5" class="st3" width="0.8" height="1.8"/>
				<rect x="200.3" y="303.5" class="st3" width="0.8" height="1.8"/>
				<rect x="201.7" y="303.5" class="st3" width="0.8" height="1.8"/>
				<rect x="203.1" y="303.5" class="st3" width="0.8" height="1.8"/>
				<rect x="204.5" y="303.5" class="st3" width="0.8" height="1.8"/>
				<rect x="205.9" y="303.5" class="st3" width="0.8" height="1.8"/>
				<rect x="207.3" y="303.5" class="st3" width="0.8" height="1.8"/>
				<rect x="208.7" y="303.5" class="st3" width="0.8" height="1.8"/>
				<rect x="210.1" y="303.5" class="st3" width="0.8" height="1.8"/>
				<rect x="211.5" y="303.5" class="st3" width="0.8" height="1.8"/>
				<rect x="212.9" y="303.5" class="st3" width="0.8" height="1.8"/>
				<rect x="214.3" y="303.5" class="st3" width="0.8" height="1.8"/>
				<rect x="215.7" y="303.5" class="st3" width="0.8" height="1.8"/>
				<circle class="st3" cx="185.8" cy="256.1" r="0.9"/>
				<circle class="st3" cx="217.2" cy="256.1" r="0.9"/>
				<rect x="188.2" y="255.6" class="st3" width="0.8" height="1.1"/>
				<rect x="189.4" y="255.6" class="st3" width="0.8" height="1.1"/>
				<rect x="190.7" y="255.6" class="st3" width="0.8" height="1.1"/>
				<rect x="191.9" y="255.6" class="st3" width="0.8" height="1.1"/>
				<rect x="193.1" y="255.6" class="st3" width="0.8" height="1.1"/>
				<rect x="194.3" y="255.6" class="st3" width="0.8" height="1.1"/>
				<rect x="195.5" y="255.6" class="st3" width="0.8" height="1.1"/>
				<rect x="196.8" y="255.6" class="st3" width="0.8" height="1.1"/>
				<rect x="198" y="255.6" class="st3" width="0.8" height="1.1"/>
				<rect x="199.2" y="255.6" class="st3" width="0.8" height="1.1"/>
				<rect x="200.4" y="255.6" class="st3" width="0.8" height="1.1"/>
				<rect x="201.6" y="255.6" class="st3" width="0.8" height="1.1"/>
				<rect x="202.9" y="255.6" class="st3" width="0.8" height="1.1"/>
				<rect x="204.1" y="255.6" class="st3" width="0.8" height="1.1"/>
				<rect x="205.3" y="255.6" class="st3" width="0.8" height="1.1"/>
				<rect x="206.5" y="255.6" class="st3" width="0.8" height="1.1"/>
				<rect x="207.8" y="255.6" class="st3" width="0.8" height="1.1"/>
				<rect x="209" y="255.6" class="st3" width="0.8" height="1.1"/>
				<rect x="210.2" y="255.6" class="st3" width="0.8" height="1.1"/>
				<rect x="211.4" y="255.6" class="st3" width="0.8" height="1.1"/>
				<rect x="212.6" y="255.6" class="st3" width="0.8" height="1.1"/>
				<rect x="213.9" y="255.6" class="st3" width="0.8" height="1.1"/>
				<line class="st1" x1="323.1" y1="228.8" x2="53.9" y2="228.8"/>
				<line class="st1" x1="116" y1="218.5" x2="48.8" y2="218.5"/>
				<line class="st1" x1="328.3" y1="218.5" x2="261.1" y2="218.5"/>
				<line class="st1" x1="369.3" y1="378.8" x2="7.7" y2="378.8"/>
				<path class="st1" d="M324.5,329l10.6-0.1c0,0,2,0,2.4-0.7c0.8-1.2,0.3-2.4-0.6-5.3s-20.7-72.6-20.7-72.6s-0.3-2.4-1.9-3.2
					c-1.5-0.5-3.1-0.7-4.7-0.6h-52.5c0,0-3.4,0-3.2,1.9l11.5,75.8c0,0,0.5,4.3,2.9,4.7c1,0.1,7.1,0.1,15.5,0.1"/>
				<path class="st1" d="M285.4,320.5c0,0,0.3,1.8,0.5,3.7c0.2,1.4,0.4,2.8,0.5,4.2c0,0.5-0.2,1-0.5,1.4c-0.2,0.2-0.3,0.3-0.5,0.5
					l37.7,0.1c0.3-0.2,0.5-0.4,0.6-0.7c0.1-0.5-1.5-9.2-1.5-9.2L285.4,320.5z"/>
				<line class="st1" x1="322.6" y1="324.7" x2="286.3" y2="324.7"/>
				<path class="st1" d="M260.4,252.5c0,0,9.2,62,9.8,62.4s57.2,0,57.2,0c0.7-0.3,1.1-1.1,1-1.9c-0.3-1.3-16.2-60.5-16.2-60.5
					c-0.2-0.9-1-1.6-2-1.6c-1.6-0.1-48,0-48,0S260.1,250.6,260.4,252.5z"/>
				<path class="st3" d="M309.6,256.2l13.6,53.2h-49.3l-8.5-53.2H309.6 M309.8,255.2h-44.7c-0.4,0-0.7,0.3-0.7,0.7c0,0,0,0.1,0,0.1
					l8.6,53.7c0.1,0.4,0.4,0.6,0.7,0.6h49.9c0.4,0,0.7-0.3,0.7-0.7c0-0.1,0-0.1,0-0.2l-13.8-53.7
					C310.5,255.5,310.2,255.2,309.8,255.2L309.8,255.2z"/>
				<polyline class="st1" points="338.1,327.9 335.8,344.8 263.4,344.8 266.2,327.3 				"/>
				<polyline class="st1" points="266.2,327.3 263.4,344.8 251.7,267.9 254,248.4 				"/>
				<polygon class="st1" points="236.4,483.7 229.6,483.7 231.2,460.9 238.2,460.9 				"/>
				<polygon class="st1" points="298.7,483.7 291.9,483.7 295.7,460.9 302.7,460.9 				"/>
				<polygon class="st1" points="291.1,481.1 237.8,481.1 239.4,462.8 294.1,462.8 				"/>
				<polygon class="st1" points="271.8,496.5 253.3,496.5 248.9,492.4 277.2,492.4 				"/>
				<polygon class="st1" points="290.8,504.9 232.1,504.9 232.5,500.8 291.5,500.8 				"/>
				<line class="st1" x1="230.5" y1="496.4" x2="294.6" y2="496.4"/>
				<polygon class="st1" points="294.1,509.6 227.7,509.6 229.6,483.7 298.7,483.7 				"/>
				<path class="st1" d="M282.1,467.6c-5.2-0.8-10.5-1.1-15.8-1.1c-5.4,0-10.8,0.3-16.1,1.1c3.1,3.1,10.1,9.5,14.8,9.5
					S278.2,470.8,282.1,467.6z"/>
				<path class="st1" d="M253.4,470.7c4.1-0.4,8.3-0.6,12.4-0.6c4.1,0,8.2,0.2,12.3,0.6"/>
				<path class="st1" d="M289.4,483.7c-0.6,2.8-3.1,4.8-6,4.8h-39.8c-4.9,0-4.8-4.8-4.8-4.8"/>
				<path class="st1" d="M142.2,542c0,0,7.1,11.8,35.1,11.8c25.5,0,36.9-16,36.9-16"/>
				<path class="st1" d="M218.1,499.3c0,0,1.4,33.4-6.3,47.7c-8.5,16-28.7,16.9-39.3,16.3c-12.4-0.8-29.2-6.2-35.3-20.8
					c-4.6-11.1-8.1-28.4-27.7-27.6"/>
			</g>
		</g>
		<polygon class="st4" points="232.3,401.3 204,384.3 175.7,401.3 187.2,401.3 187.2,412.8 220.8,412.8 220.8,401.3 		"/>
		<polygon class="st4" points="294.8,555.5 266.5,538.6 238.3,555.5 249.7,555.5 249.7,567 283.4,567 283.4,555.5 		"/>
	</g>
</g>
</svg>
