<svg xmlns="http://www.w3.org/2000/svg" viewBox="0 0 377.09 653.35"><defs><style>.cls-1{fill:#231815;}.cls-2,.cls-3{fill:none;}.cls-2{stroke:#00a0e9;stroke-width:8px;opacity:0.7;}.cls-2,.cls-3,.cls-4{stroke-linecap:round;stroke-linejoin:round;}.cls-3,.cls-4{stroke:#727171;}.cls-4{fill:#fff;}.cls-5{fill:#727171;}</style></defs><title>アセット 1</title><g id="レイヤー_2" data-name="レイヤー 2"><g id="レイヤー_1-2" data-name="レイヤー 1"><path class="cls-1" d="M71,644.49l.22,1.57c-3.32,1-6.86,2.08-9.07,2.7a.51.51,0,0,1-.32.43l-.84-2c1.19-.3,2.7-.67,4.37-1.13v-7H61.83v-1.67H65.4v-6H61.48v-1.7h9.37v1.7h-3.7v6h3.48v1.67H67.15v6.48Zm5.67.92a.56.56,0,0,1-.54.35c-.67,3.48-2.08,6.13-7.29,7.58a5.86,5.86,0,0,0-1.05-1.51c4.78-1.13,6.13-3.35,6.61-6.67Zm4.45,5.37c0,.65.11.78.84.78h2.32c.65,0,.78-.43.84-3.27a4.56,4.56,0,0,0,1.57.7c-.16,3.32-.62,4.13-2.21,4.13H81.73c-1.86,0-2.32-.51-2.32-2.35v-6.26H72.17v-15H84.94v15H81.16ZM73.9,631.05V634h9.26v-2.94Zm0,4.43v3h9.26v-3Zm0,4.48v3h9.26v-3Z"/><path class="cls-1" d="M101.63,643.9v6.91h10.91v1.62H89.1v-1.62H99.74V643.9H90.32v-1.62h9.42V638.5h-5.8V637A39.16,39.16,0,0,1,89.35,640a11,11,0,0,0-1.13-1.43c4.72-2.51,9.37-6.83,11.5-10.47l2.64.16a.63.63,0,0,1-.54.41,34.48,34.48,0,0,0,11.66,9.55,9.9,9.9,0,0,0-1.21,1.59A38.23,38.23,0,0,1,100.68,630a31.08,31.08,0,0,1-6.61,6.83h13.58v1.65h-6v3.78h9.64v1.62Zm-6.37,6.45a18.67,18.67,0,0,0-2.54-5.1l1.48-.57a17.66,17.66,0,0,1,2.65,5Zm13.87-4.86c-.08.16-.3.24-.59.22a40.36,40.36,0,0,1-3.1,4.7l-1.35-.67a32.33,32.33,0,0,0,3-5.13Z"/><path class="cls-1" d="M124.39,641.85,121.26,643v8.15c0,1.94-.89,2.24-4.48,2.19a7.83,7.83,0,0,0-.59-1.67c1.27,0,2.43,0,2.78,0s.51-.13.51-.51V643.6c-1.27.46-2.43.86-3.35,1.16a.44.44,0,0,1-.32.43l-.76-2.13c1.21-.32,2.75-.78,4.43-1.32v-6.32h-4.1v-1.7h4.1v-5.45l2.32.14c0,.22-.16.32-.54.38v4.94h3.1v1.7h-3.1v5.75l2.92-.92ZM137.27,640l1.21.54c-.05.14-.16.19-.24.27a17.76,17.76,0,0,1-4.91,7.67,18.93,18.93,0,0,0,7.29,3.21,6.5,6.5,0,0,0-1.21,1.62,19.59,19.59,0,0,1-7.53-3.64,23.58,23.58,0,0,1-7.72,3.64,5.86,5.86,0,0,0-1-1.59,20.87,20.87,0,0,0,7.37-3.29,17.72,17.72,0,0,1-4-6.26l1.38-.41H125.5v-1.67h11.44Zm-8.42-9v1.05a8.26,8.26,0,0,1-3.7,7.26,7.22,7.22,0,0,0-1.24-1.32,6.56,6.56,0,0,0,3.21-6v-2.73H136V636c0,.59.11.7.62.7h1.62c.54,0,.65-.4.7-3.32a5.29,5.29,0,0,0,1.54.7c-.13,3.35-.57,4.18-2.05,4.18h-2.08c-1.62,0-2.11-.46-2.11-2.27v-5Zm-.67,10.72a15.83,15.83,0,0,0,3.75,5.56,15.13,15.13,0,0,0,4-5.56Z"/><path class="cls-1" d="M154.14,629.94H156c0,4.83.62,15.3,11.53,21.78a9.91,9.91,0,0,0-1.46,1.54,23.94,23.94,0,0,1-11.12-15.71c-1.94,7.21-5.45,12.61-11.12,15.74a12.46,12.46,0,0,0-1.51-1.38c6-3.1,9.45-8.85,11.15-16.71l1.11.27a27.76,27.76,0,0,1-.35-3.67h-6.88V630h6.83Z"/><path class="cls-1" d="M171.37,630.67h21.27V653H190.7V650.7H173.23v2.46h-1.86Zm1.86,18.19H190.7V632.48H173.23Z"/><path class="cls-1" d="M198.94,651.84c-.84-1.94-1.16-6-1.16-9.5a68.69,68.69,0,0,1,1.46-12.61l2.62.51a.7.7,0,0,1-.7.49,51.82,51.82,0,0,0-1.57,11.63,32,32,0,0,0,.24,5.1c.59-1.62,1.67-4.21,2.24-5.48l1.21,1.13c-.89,1.83-2.78,5.94-2.78,7.21a3.71,3.71,0,0,0,.27,1.29Zm6.86-15.9c2.27,0,4.54.05,6.8-.11-.11-2.32-.19-4.32-.24-6.32l2.73.08c0,.27-.27.49-.7.57,0,1.73.08,3.48.13,5.53a23.93,23.93,0,0,0,5.29-1.08l.24,1.89a26.06,26.06,0,0,1-5.45,1c.11,3,.24,6.15.32,7.88a19.89,19.89,0,0,1,5.51,3.43l-1.05,1.73a16.23,16.23,0,0,0-4.37-3.08c0,2.29-.46,4.86-4.51,4.86-3.16,0-5.26-1.51-5.26-3.89,0-2.75,2.78-4,5.26-4a9.35,9.35,0,0,1,2.56.35c-.08-1.7-.24-4.53-.38-7.18-.84.05-2,.08-2.75.08h-4.1Zm7.4,10.61a9.17,9.17,0,0,0-2.67-.49c-1.65,0-3.62.59-3.62,2.29,0,1.51,1.62,2.27,3.59,2.27s2.73-1,2.73-3.13Z"/><path class="cls-1" d="M244.78,650.57a49.58,49.58,0,0,1-8.21.62,30.85,30.85,0,0,1-5.29-.35c-3.27-.73-4.67-2.78-4.67-5.16a8.65,8.65,0,0,1,2.75-5.78l1.57.81a7.37,7.37,0,0,0-2.37,4.8c0,1.57,1.05,3,3.37,3.51a22.46,22.46,0,0,0,4.4.32,45,45,0,0,0,8.31-.73Zm-12.12-13.63a33.67,33.67,0,0,1,4.78-3.13v0c-2.05.24-6.75.35-9.74.32,0-.51,0-1.4,0-1.89.59,0,11,.19,15.39-.86l.22,2c-3.21.38-7.34,3.18-9.07,4.56Z"/><path class="cls-1" d="M271.62,633.72A62.26,62.26,0,0,1,260,635.29a33.63,33.63,0,0,1-1.27,7.15,13.74,13.74,0,0,1,7.67-2.86c4,0,6.48,2.16,6.48,5.8,0,5.37-5.43,7.18-14.2,7.4a8,8,0,0,0-.54-1.78c7.75-.16,12.77-1.49,12.77-5.56,0-2.43-1.62-4.1-4.75-4.1-2.4,0-6.53,1.46-8.31,4.13l-1.89-.89c.86-1,1.75-4.83,2.16-9.26h-6.32v-1.89c1.13,0,4.45,0,6.48,0,.11-1.54.16-3.27.16-4.89l2.86.27c-.05.46-.38.54-.86.59-.05,1.35-.14,2.73-.24,4a52.35,52.35,0,0,0,11.07-1.65Z"/><path class="cls-1" d="M284.61,634.07a.77.77,0,0,1-.7.46c-.22,4-.73,7.4-1.11,8h0a18.38,18.38,0,0,1,9.93-3.32c4.16,0,6.75,2.13,6.69,5.91-.08,5-4.18,7.18-14.63,7.61a8,8,0,0,0-.67-1.78c9.42-.41,13.2-1.94,13.28-5.8,0-2.59-1.78-4.16-4.94-4.16-5,0-9.5,3-10.26,4.32l-1.84-.89c.54-.51,1.49-5.34,1.54-10.64Zm.46-5.24a43.46,43.46,0,0,1,10.47,2.38l-.67,1.86a43.93,43.93,0,0,0-10.37-2.46Z"/><path class="cls-1" d="M311.8,649.57a3.78,3.78,0,1,1-3.78-3.78A3.79,3.79,0,0,1,311.8,649.57Zm-1,0a2.79,2.79,0,1,0-2.81,2.78A2.79,2.79,0,0,0,310.83,649.57Z"/><circle class="cls-2" cx="266.56" cy="487.18" r="44.08"/><circle class="cls-2" cx="204" cy="343.83" r="33.17"/><path class="cls-3" d="M329.82,583a6.91,6.91,0,0,1-6.56,5H53.83a6.91,6.91,0,0,1-6.56-5L15.68,450.24a4.6,4.6,0,0,1,4.64-5.85H356.77a4.6,4.6,0,0,1,4.64,5.85Z"/><path class="cls-3" d="M374.83,367.4,331.26,234.51h0a29,29,0,0,1-2.69-13.13L341,47.64l1.85-28.21C343.53,9,337.08.5,328.47.5H48.62C40,.5,33.56,9,34.24,19.42l14.28,202a29,29,0,0,1-2.69,13.12L2.26,367.4A19.76,19.76,0,0,0,.85,379.2L13,438.51a7.91,7.91,0,0,0,7.3,5.88H356.77a7.91,7.91,0,0,0,7.3-5.88l12.17-59.3A19.76,19.76,0,0,0,374.83,367.4Z"/><polygon class="cls-4" points="288.01 174.11 89.08 174.11 82.9 50.08 294.19 50.08 288.01 174.11"/><path class="cls-3" d="M214.71,490.42l-3.46,5.36V511.1s-1.33,13.24-10.24,21.79c-8.4,8.06-23.26,15.73-41.44,7.69s-20.67-24.69-20.67-29.09,1.91-26.42,2.87-27.95a12.38,12.38,0,0,1,8.81-4.59c4.21-.19,50.53,0,50.53,0s5.91-.29,7.66,1.72C211.51,483.83,214.71,490.42,214.71,490.42Z"/><polygon class="cls-3" points="189.57 479.15 189.57 500.28 193.88 492.67 189.57 479.15"/><path class="cls-3" d="M168,542.15s-.1-1-.1-2.25-1.44-3.73-3-4.88-5.89-4-7.32-6.17-.86-6.32-.86-6.32l.86-11.16s0-3.05,4.68-3.2,27.91,0,27.91,0,4.59-.29,5,2.58,1,13.64.72,15.22-3,4.94-4.74,6.35-5.46,2.41-6.17,3.56-.83,5.55-.83,5.55"/><path class="cls-3" d="M145.07,484.06s5.85,8,7.75,10.91a82.77,82.77,0,0,1,6.51,12.45"/><path class="cls-3" d="M193.53,508.13s6.81-6.12,9.68-9.86"/><polyline class="cls-3" points="195.97 478.92 195.97 492.53 209.81 492.53 214.71 490.43"/><path class="cls-3" d="M129,524.11l-11,.54s-5.84,0-7.18-1.69-6.13-40.2-6.13-40.2a3.11,3.11,0,0,1,3-3.91c3.83-.49,51.11-1,51.11-1s1.91.1,2.58-.77-.38-3.45,1.82-4,24.07-.86,24.07-.86a2.5,2.5,0,0,1,2.3,1.53c.53,1.53.33,2.58,1,3s.82,1.34,5.39,1.15,19.93-.37,19.93-.37,3-.1,3,2.19-.72,19.57-.72,19.57"/><path class="cls-3" d="M166.67,472.79c.11.07,4.16,3.77,7.86,4.1s5.38-.25,7.57-1.58a16.89,16.89,0,0,0,3.66-3"/><path class="cls-3" d="M106.71,498s7.49-.46,11.8,2.2,8.33,7.38,11.2,13.2,6.12,13.61,9.19,18c2.91,4.2,10.88,15.81,36.46,16.95,24,1.07,39.5-18.58,41.51-23.88"/><path class="cls-3" d="M141.77,483.28A66.72,66.72,0,0,1,122,494.86c-11.77,4.31-15.24,2.9-15.24,2.9"/><path class="cls-3" d="M181.68,334v16.85a4,4,0,0,0,2.87,2.15c2,.29,38.9,0,38.9,0s2-.72,2.15-1.72-.86-17.37-.86-17.37a2.38,2.38,0,0,0-2.3-1.87c-2-.14-36.75,0-36.75,0s-3.54-.14-4,1.78A.83.83,0,0,0,181.68,334Z"/><line class="cls-3" x1="182.29" y1="333.24" x2="193.05" y2="343.72"/><line class="cls-3" x1="213.83" y1="343.78" x2="223.96" y2="332.95"/><line class="cls-3" x1="182.47" y1="351.59" x2="191.81" y2="348.83"/><line class="cls-3" x1="215.02" y1="348.77" x2="224.59" y2="352.35"/><path class="cls-5" d="M192.64,345.28h21.73l.33-1.9a1.36,1.36,0,0,0-1.4-1.41c-1.47-.1-19.92,0-19.92,0s-1,.08-1.08.95A7.84,7.84,0,0,0,192.64,345.28Z"/><path class="cls-5" d="M192.12,347.44H214.7v1.67s0,.75-.43.75H192.66s-.43.07-.48-.3S192.12,347.44,192.12,347.44Z"/><path class="cls-3" d="M70.85,306.33l-3.59,15.94s-1.29,2.58,1.79,2.87,70.56,0,70.56,0a3.64,3.64,0,0,0,3.73-3c.57-3.16,1.15-15.79,1.15-15.79a1.89,1.89,0,0,0-1.72-2.44c-2.3-.29-67,0-67,0S71.42,303.78,70.85,306.33Z"/><path class="cls-3" d="M76.88,309l-2.58,10.91s-.38,1.24.48,1.44,62.31-.38,62.31-.38a1.52,1.52,0,0,0,1.24-1.34c.1-1.15.52-10.25.52-10.25a1.19,1.19,0,0,0-1.24-1.63l-59,.2A1.37,1.37,0,0,0,76.88,309Z"/><line class="cls-3" x1="68.65" y1="317.71" x2="74.18" y2="317.71"/><polyline class="cls-3" points="77.64 308.44 81.28 314.92 138.47 314.08"/><line class="cls-3" x1="140.37" y1="317.53" x2="143.63" y2="317.53"/><path class="cls-3" d="M80.9,315.41"/><line class="cls-3" x1="81.27" y1="315.08" x2="79.78" y2="320.65"/><path class="cls-3" d="M175.5,256.52l-1.58,47.25s-.86,5.15,5.17,5.87,46.94.72,46.94.72,3.16.57,4.31-3.45-3.16-49.38-3.16-49.38-1-4.88-4.45-5-42.35,0-42.35,0S175.6,253.49,175.5,256.52Z"/><path class="cls-3" d="M183.78,262.83l-.67,33.11s-.48,2.11,2.11,2.39,33.88,0,33.88,0,1.72-.38,2-1.44-1.53-34.07-1.53-34.07a1.61,1.61,0,0,0-1.72-1.53c-1.72-.1-32.16,0-32.16,0S183.82,261.11,183.78,262.83Z"/><circle class="cls-5" cx="219.78" cy="304.61" r="1.14"/><circle class="cls-5" cx="184.93" cy="304.61" r="1.14"/><rect class="cls-5" x="187.75" y="303.47" width="0.77" height="1.81"/><rect class="cls-5" x="189.15" y="303.47" width="0.77" height="1.81"/><rect class="cls-5" x="190.55" y="303.47" width="0.77" height="1.81"/><rect class="cls-5" x="191.95" y="303.47" width="0.77" height="1.81"/><rect class="cls-5" x="193.35" y="303.47" width="0.77" height="1.81"/><rect class="cls-5" x="194.75" y="303.47" width="0.77" height="1.81"/><rect class="cls-5" x="196.15" y="303.47" width="0.77" height="1.81"/><rect class="cls-5" x="197.55" y="303.47" width="0.77" height="1.81"/><rect class="cls-5" x="198.95" y="303.47" width="0.77" height="1.81"/><rect class="cls-5" x="200.35" y="303.47" width="0.77" height="1.81"/><rect class="cls-5" x="201.75" y="303.47" width="0.77" height="1.81"/><rect class="cls-5" x="203.15" y="303.47" width="0.77" height="1.81"/><rect class="cls-5" x="204.55" y="303.47" width="0.77" height="1.81"/><rect class="cls-5" x="205.95" y="303.47" width="0.77" height="1.81"/><rect class="cls-5" x="207.35" y="303.47" width="0.77" height="1.81"/><rect class="cls-5" x="208.75" y="303.47" width="0.77" height="1.81"/><rect class="cls-5" x="210.15" y="303.47" width="0.77" height="1.81"/><rect class="cls-5" x="211.55" y="303.47" width="0.77" height="1.81"/><rect class="cls-5" x="212.95" y="303.47" width="0.77" height="1.81"/><rect class="cls-5" x="214.35" y="303.47" width="0.77" height="1.81"/><rect class="cls-5" x="215.75" y="303.47" width="0.77" height="1.81"/><circle class="cls-5" cx="185.85" cy="256.12" r="0.9"/><circle class="cls-5" cx="217.24" cy="256.12" r="0.9"/><rect class="cls-5" x="188.23" y="255.56" width="0.79" height="1.12"/><rect class="cls-5" x="189.45" y="255.56" width="0.79" height="1.12"/><rect class="cls-5" x="190.67" y="255.56" width="0.79" height="1.12"/><rect class="cls-5" x="191.89" y="255.56" width="0.79" height="1.12"/><rect class="cls-5" x="193.11" y="255.56" width="0.79" height="1.12"/><rect class="cls-5" x="194.33" y="255.56" width="0.79" height="1.12"/><rect class="cls-5" x="195.55" y="255.56" width="0.79" height="1.12"/><rect class="cls-5" x="196.77" y="255.56" width="0.79" height="1.12"/><rect class="cls-5" x="197.99" y="255.56" width="0.79" height="1.12"/><rect class="cls-5" x="199.22" y="255.56" width="0.79" height="1.12"/><rect class="cls-5" x="200.44" y="255.56" width="0.79" height="1.12"/><rect class="cls-5" x="201.66" y="255.56" width="0.79" height="1.12"/><rect class="cls-5" x="202.88" y="255.56" width="0.79" height="1.12"/><rect class="cls-5" x="204.1" y="255.56" width="0.79" height="1.12"/><rect class="cls-5" x="205.32" y="255.56" width="0.79" height="1.12"/><rect class="cls-5" x="206.54" y="255.56" width="0.79" height="1.12"/><rect class="cls-5" x="207.76" y="255.56" width="0.79" height="1.12"/><rect class="cls-5" x="208.98" y="255.56" width="0.79" height="1.12"/><rect class="cls-5" x="210.2" y="255.56" width="0.79" height="1.12"/><rect class="cls-5" x="211.42" y="255.56" width="0.79" height="1.12"/><rect class="cls-5" x="212.64" y="255.56" width="0.79" height="1.12"/><rect class="cls-5" x="213.86" y="255.56" width="0.79" height="1.12"/><line class="cls-3" x1="323.15" y1="228.83" x2="53.94" y2="228.83"/><line class="cls-3" x1="116.02" y1="218.48" x2="48.81" y2="218.48"/><line class="cls-3" x1="328.28" y1="218.48" x2="261.07" y2="218.48"/><line class="cls-3" x1="369.33" y1="378.83" x2="7.75" y2="378.83"/><path class="cls-3" d="M324.54,329l10.6-.06s2,0,2.44-.72c.79-1.25.29-2.44-.57-5.31s-20.67-72.64-20.67-72.64-.29-2.44-1.87-3.16a13.66,13.66,0,0,0-4.74-.57H257.19s-3.45,0-3.16,1.91l11.48,75.84s.45,4.3,2.87,4.66c1,.15,7.07.09,15.54.1"/><path class="cls-3" d="M285.42,320.5s.26,1.81.52,3.7.5,3.87.46,4.22a2,2,0,0,1-.49,1.36,6,6,0,0,0-.49.53l37.71.14a1.33,1.33,0,0,0,.62-.72c.14-.48-1.48-9.24-1.48-9.24Z"/><line class="cls-3" x1="322.61" y1="324.66" x2="286.33" y2="324.66"/><path class="cls-3" d="M260.44,252.46s9.19,62,9.76,62.4,57.23,0,57.23,0a1.71,1.71,0,0,0,1-1.87c-.29-1.29-16.22-60.53-16.22-60.53a2.17,2.17,0,0,0-2-1.63c-1.57-.13-48,0-48,0S260.16,250.55,260.44,252.46Z"/><path class="cls-5" d="M309.63,256.23l13.65,53.22H273.93l-8.49-53.22h44.18m.2-1H265.14a.74.74,0,0,0-.73.86L273,309.83a.74.74,0,0,0,.73.62h49.91a.74.74,0,0,0,.72-.92l-13.79-53.74a.74.74,0,0,0-.72-.56Z"/><polyline class="cls-3" points="338.08 327.87 335.78 344.79 263.36 344.79 266.26 327.33"/><polyline class="cls-3" points="266.26 327.33 263.36 344.79 251.72 267.91 254.03 248.42"/><polygon class="cls-3" points="236.36 483.71 229.61 483.71 231.26 460.93 238.25 460.93 236.36 483.71"/><polygon class="cls-3" points="298.68 483.71 291.92 483.71 295.73 460.93 302.72 460.93 298.68 483.71"/><polygon class="cls-3" points="291.13 481.1 237.81 481.1 239.36 462.78 294.16 462.78 291.13 481.1"/><polygon class="cls-3" points="271.8 496.51 253.28 496.51 248.91 492.41 277.2 492.41 271.8 496.51"/><polygon class="cls-3" points="290.77 504.93 232.16 504.93 232.49 500.78 291.48 500.78 290.77 504.93"/><line class="cls-3" x1="230.52" y1="496.36" x2="294.6" y2="496.36"/><polygon class="cls-3" points="294.08 509.61 227.73 509.61 229.61 483.71 298.68 483.71 294.08 509.61"/><path class="cls-3" d="M282.14,467.63a103,103,0,0,0-15.84-1.11,108.59,108.59,0,0,0-16.12,1.11c3.14,3.14,10.1,9.55,14.79,9.55S278.21,470.77,282.14,467.63Z"/><path class="cls-3" d="M253.4,470.67a117.08,117.08,0,0,1,12.45-.63,112.61,112.61,0,0,1,12.29.63"/><path class="cls-3" d="M289.41,483.66s-1,4.78-6,4.78H243.66c-4.92,0-4.78-4.78-4.78-4.78"/><path class="cls-3" d="M142.23,542s7.13,11.76,35.09,11.76c25.47,0,36.87-16,36.87-16"/><path class="cls-3" d="M218.14,499.28s1.36,33.36-6.29,47.71c-8.53,16-28.72,16.93-39.26,16.26-12.38-.79-29.23-6.23-35.28-20.75-4.61-11.06-8.13-28.36-27.71-27.57"/></g></g></svg>