<svg xmlns="http://www.w3.org/2000/svg" viewBox="0 0 538.88 414.24"><defs><style>.cls-1,.cls-3,.cls-6{fill:none;}.cls-1{stroke:#00a0e9;stroke-width:8px;opacity:0.7;}.cls-1,.cls-3,.cls-4,.cls-6{stroke-linecap:round;stroke-linejoin:round;}.cls-2{fill:#231815;}.cls-3,.cls-4,.cls-6{stroke:#727171;}.cls-3,.cls-4{stroke-width:2px;}.cls-4{fill:#dcdddd;}.cls-5{fill:#727171;}.cls-6{stroke-width:1.86px;}</style></defs><title>アセット 2</title><g id="レイヤー_2" data-name="レイヤー 2"><g id="レイヤー_1-2" data-name="レイヤー 1"><circle class="cls-1" cx="219.23" cy="205.01" r="50.46"/><path class="cls-2" d="M322.19,189.15a15.62,15.62,0,0,1,3.74,2.06l-.76,1.12a17.18,17.18,0,0,0-3.7-2.16ZM322,200.93a61.53,61.53,0,0,0,3.48-6.6l1,.84a65.75,65.75,0,0,1-3.18,6.22.44.44,0,0,1,.1.28.53.53,0,0,1-.06.24Zm1.26-17.24a15.26,15.26,0,0,1,3.64,2.2l-.78,1.1a15.07,15.07,0,0,0-3.62-2.32Zm16.8,10.62H334.4a9.77,9.77,0,0,0,5.92,6.62,5.31,5.31,0,0,0-.94,1.18c-3.12-1.34-5.16-4-6.26-7.58-.58,2.9-2.14,5.58-6.14,7.6a5.43,5.43,0,0,0-1-1c3.78-1.84,5.26-4.24,5.84-6.84h-4.92V193H332a22.65,22.65,0,0,0,.12-2.62v-2.28h-4v-1.28h4v-3.32l1.74.12c0,.14-.14.24-.4.28v2.92h4.72V193h1.9Zm-6.62-6.18v2.3a22.52,22.52,0,0,1-.12,2.6h3.52v-4.9Z"/><path class="cls-2" d="M342.19,189.15a15.62,15.62,0,0,1,3.74,2.06l-.76,1.12a17.18,17.18,0,0,0-3.7-2.16Zm-.14,11.78a64,64,0,0,0,3.62-6.6l1,.84a67.73,67.73,0,0,1-3.3,6.24.44.44,0,0,1,.1.28.4.4,0,0,1-.06.22Zm1.22-17.24a15.26,15.26,0,0,1,3.64,2.2l-.78,1.1a15.07,15.07,0,0,0-3.62-2.32Zm13.56,10.5v-1.3l1.72.12c0,.14-.12.24-.4.28v8.8h-1.32v-3.72H349.9a7,7,0,0,1-2.54,3.74,6,6,0,0,0-1.06-.78,6.83,6.83,0,0,0,2.66-5.92v-2.5l1.68.1c0,.14-.12.24-.38.28v.9Zm.38-7.24.7.22c-.06.12-.2.18-.42.18a9.17,9.17,0,0,1-2.66,2.9,25.55,25.55,0,0,0,5.5,1.62,3.6,3.6,0,0,0-.76,1.2,23.19,23.19,0,0,1-6-2,22.24,22.24,0,0,1-6.32,2.2,5.53,5.53,0,0,0-.66-1.16,20,20,0,0,0,5.76-1.8,11.67,11.67,0,0,1-3.06-3.12l.48-.2H347.3v-1.22h5.54V183.5l1.76.1c0,.14-.12.24-.4.28v1.84H360v1.22Zm-7,8.42a10.91,10.91,0,0,1-.12,1.84h6.7v-1.84Zm.4-8.42a10.21,10.21,0,0,0,2.94,2.64,7.86,7.86,0,0,0,2.56-2.64Z"/><path class="cls-2" d="M367.88,189.89c-.06.14-.2.22-.44.24a66,66,0,0,1-1.22,6.88l2.22-.46c.08.6.1.86.12,1.12-2.36.58-4.82,1.16-6.38,1.52a.37.37,0,0,1-.26.3l-.5-1.54c1.14-.2,2.62-.48,4.22-.82l-.48-.14a71.21,71.21,0,0,0,1.16-7.48Zm.26-2.26v1.22h-6.4v-1.22h2.62v-3.88l1.62.1c0,.14-.12.24-.38.28v3.5Zm-4.86,2.06a35.82,35.82,0,0,1,.84,6.64l-1.12.18a37.06,37.06,0,0,0-.78-6.64Zm16.84,2.46h-5.34c-.14.62-.36,1.42-.58,2.1h5.24v6.54c0,1.26-.64,1.3-2.34,1.3a4.9,4.9,0,0,0-.4-1.1c1.5,0,1.5,0,1.5-.22v-5.34h-2v6.36h-1.1v-6.36h-1.92v6.42h-1.1v-6.42H370.3v6.66h-1.24v-7.84h3.84c.18-.62.34-1.4.48-2.1h-5v-1.22h11.78Zm-.64-7.52c0,.14-.14.24-.4.28v4.38h-9.7v-4.76l1.64.1c0,.14-.12.24-.4.28v3.18h2.86V183.5l1.68.1c0,.14-.12.24-.38.28v4.2h3v-3.56Z"/><path class="cls-2" d="M398.68,193.35h-6.24a21.05,21.05,0,0,0,7.78,6.36,6.16,6.16,0,0,0-1,1.16,22.87,22.87,0,0,1-7.76-6.78v8h-1.4v-7.8a22.78,22.78,0,0,1-7.64,6.68,8,8,0,0,0-1-1.16,20.29,20.29,0,0,0,7.7-6.42H383V192h7.08v-3.7h-8.14V187h8.14v-3.5l1.82.1c0,.14-.14.24-.42.28V187h8.3v1.34h-8.3V192h7.22Z"/><path class="cls-2" d="M412,187.14a.52.52,0,0,1-.5.32c-.72,6.22-2.8,11.64-6.12,11.64-1.68,0-3.2-1.68-3.2-4.84a8.78,8.78,0,0,1,9-8.82c5.78,0,8.28,3.66,8.28,7.56,0,4.76-2.76,7.06-7.6,8.18A7.89,7.89,0,0,0,411,200c4.6-.88,7-3.12,7-6.9,0-3.3-2.12-6.3-6.8-6.3a5.66,5.66,0,0,0-.6,0Zm-1.92-.26a7.36,7.36,0,0,0-6.54,7.34c0,2.14.92,3.48,1.88,3.48C407.8,197.71,409.54,192.37,410,186.88Z"/><path class="cls-2" d="M428.2,192.39l.18,1.16-2.42.86v6c0,1.44-.66,1.66-3.32,1.62a5.86,5.86,0,0,0-.44-1.24c.94,0,1.8,0,2.06,0s.38-.1.38-.38v-5.58c-.94.32-1.8.62-2.48.84a.32.32,0,0,1-.24.32l-.56-1.58c.9-.24,2-.58,3.28-1v-4.7h-3v-1.26h3v-4l1.72.1c0,.16-.12.24-.4.28v3.66h2.3v1.26H426v4.28Zm2.52-3.1c0,.7.24.84,1.64.84h5c1.18,0,1.38-.36,1.5-2.6a3.37,3.37,0,0,0,1.24.5c-.2,2.68-.66,3.34-2.66,3.34h-5.1c-2.3,0-2.94-.42-2.94-2.08V183.5l1.74.1c0,.14-.14.24-.4.28v2.72a38.36,38.36,0,0,0,6.78-1.92l1.16,1.06a.32.32,0,0,1-.24.08.5.5,0,0,1-.16,0,46.15,46.15,0,0,1-7.54,1.92Zm-1,12.8v-8.92h9.18v8.78h-1.34v-.82H431v1Zm7.84-7.76H431v2.22h6.56ZM431,199.95h6.56v-2.26H431Z"/><path class="cls-2" d="M446.74,194c-.06.14-.2.2-.44.2a18.83,18.83,0,0,1-4,6.12,8,8,0,0,0-1.12-.8,15.93,15.93,0,0,0,3.88-6.06Zm13-2.64h-8.26v9c0,.9-.22,1.3-.88,1.52a15.71,15.71,0,0,1-3.62.22,5.24,5.24,0,0,0-.5-1.34c.84,0,1.64,0,2.24,0,1.3,0,1.38,0,1.38-.44v-9h-8.2V190h17.84ZM458,185v1.32H443.72V185Zm.78,15.26A24.72,24.72,0,0,0,455.1,194l1.24-.54a25.94,25.94,0,0,1,3.76,6.2Z"/><path class="cls-2" d="M466.06,185c-.06.22-.26.34-.66.32a48,48,0,0,0-1.06,9,22,22,0,0,0,.26,4c.38-1,1.24-3.08,1.52-3.78l.84.88c-.82,2-1.42,3.16-1.7,4.06a3.44,3.44,0,0,0-.16.94,2.1,2.1,0,0,0,.1.62l-1.42.26a22,22,0,0,1-.88-6.88,58.45,58.45,0,0,1,1.06-9.74Zm12.74,14.62c-.72,0-1.46.06-2.2.06a27.51,27.51,0,0,1-3.72-.22c-2.46-.36-3.6-1.72-3.6-3.32,0-1.38.76-2.54,1.88-3.86l1.3.56a4.73,4.73,0,0,0-1.7,3.14c0,2.32,3.4,2.32,5.48,2.32.84,0,1.74,0,2.58-.1Zm-9.26-12.22a65.35,65.35,0,0,0,8.72-.76l.12,1.4a75.65,75.65,0,0,1-8.8.74Z"/><path class="cls-2" d="M484.38,193a28.28,28.28,0,0,1-2.26,2.5,9.7,9.7,0,0,0-.76-1.16,25.37,25.37,0,0,0,4.92-6.44l1.52.62c-.06.14-.22.18-.46.18-.48.84-1,1.7-1.62,2.52l.38.14a.49.49,0,0,1-.42.26v10.48h-1.3Zm3-8.82a.45.45,0,0,1-.46.16,32.64,32.64,0,0,1-4.68,4.54,6.23,6.23,0,0,0-.8-1,21.92,21.92,0,0,0,4.38-4.32Zm7.26,10.72v5.38a9.47,9.47,0,0,0,1.9.16c.42,0,3.18,0,3.78,0a3.89,3.89,0,0,0-.44,1.28h-3.42c-3.06,0-5.22-.76-6.58-3.84a9.42,9.42,0,0,1-2.34,4.28,6.73,6.73,0,0,0-1-.86c1.92-1.78,2.66-5.14,2.9-9.12l1.68.22c0,.14-.14.22-.38.26a31.76,31.76,0,0,1-.42,3.22c.64,2.22,1.66,3.4,3,4v-10.4h-5.06v-1.3H496l-.78-.34a28.37,28.37,0,0,0,2.16-4.34l1.56.64c-.06.12-.22.18-.44.18a37.82,37.82,0,0,1-2,3.86h3.42v1.3h-5.22v4.16h4.44v1.26Zm-4.16-11.26a26.51,26.51,0,0,1,2.18,3.92l-1.18.56a28.36,28.36,0,0,0-2.12-4Z"/><path class="cls-2" d="M503.61,191.41c.36-.08,1.1-.28,1.78-.48a29.85,29.85,0,0,1,7.24-1.42c2.7,0,5.12,1.44,5.12,4.7,0,4.4-4.36,6-9.7,6.44a9.66,9.66,0,0,0-.4-1.22c4.7-.34,8.68-1.7,8.68-5.14,0-2.5-1.78-3.58-3.9-3.56a24.85,24.85,0,0,0-6.7,1.46l-1.28.44a.5.5,0,0,1-.32.34Z"/><path class="cls-2" d="M522.44,186.2c1.5-.06,13.82-.94,16.42-1l0,1.5c-.26,0-.5,0-.74,0a5.76,5.76,0,0,0-3.42,1c-3,1.8-5.9,5-5.9,7.6,0,2.8,2,4.46,6.92,5.1l-.66,1.4c-5.68-.82-7.8-2.94-7.8-6.5,0-2.82,2.78-6.24,6.44-8.54-2.12.14-8.1.6-10.68.84a.6.6,0,0,1-.44.32Z"/><path class="cls-2" d="M327.58,220.55l.16,1.14c-.74.26-1.52.5-2.24.74v6c0,1.46-.62,1.66-3.18,1.62a6.26,6.26,0,0,0-.42-1.26c.56,0,1,0,1.42,0,.82,0,.92,0,.92-.4v-5.62l-2.06.64a.41.41,0,0,1-.28.32l-.48-1.54c.78-.2,1.76-.46,2.82-.76v-4.56h-2.62v-1.26h2.62V211.5l1.64.1c0,.16-.12.24-.38.28v3.8h2.42v1.26H325.5v4.2Zm12.36,3.9h-4.62a12.7,12.7,0,0,0,4.9,3.62,6.6,6.6,0,0,0-.92,1.06,14.72,14.72,0,0,1-5.08-4.26v5.2h-1.28v-5.12a13.81,13.81,0,0,1-5,4.26,5,5,0,0,0-.9-1,13,13,0,0,0,4.88-3.72H327.4v-1.18h5.54v-1.68l1.68.1c0,.14-.14.24-.4.28v1.3h5.72Zm-6.9-7.26v4.4h-5v-4.4Zm-1.14,3.38v-2.34h-2.76v2.34Zm5.3-8.52v4.16h-7.06V212Zm-1.28,3.12v-2.08h-4.56v2.08Zm-1.62,6.42v-4.4h5.18v4.4Zm1.1-3.36v2.34h2.92v-2.34Z"/><path class="cls-2" d="M344.46,218.61a21.56,21.56,0,0,1-2.58,3.42,11.35,11.35,0,0,0-.72-1.26,25.44,25.44,0,0,0,5.18-9.12l1.64.54c-.08.14-.22.2-.46.2a36.3,36.3,0,0,1-1.9,4.22l.56.16c0,.14-.14.22-.38.26v13.06h-1.34Zm15.74-2.4h-6.42v3.08h5.94v1.26h-5.94v3.22H360V225h-6.22v5h-1.36V216.2h-1.86a21.07,21.07,0,0,1-2.82,4.52,9,9,0,0,0-1-.92,23.73,23.73,0,0,0,4.12-8l1.72.5a.49.49,0,0,1-.48.22c-.28.8-.58,1.62-.92,2.42h9Z"/><path class="cls-2" d="M368.06,212.36c0,.24-.22.38-.62.44-.16,2.32-.36,7.62-.36,10.58s1.48,4.42,4,4.42,4.92-1.22,7.2-3.8a8,8,0,0,0,.9,1.18,10.85,10.85,0,0,1-8.12,4.06c-3.64,0-5.5-2.1-5.5-5.88,0-2.52.18-8.72.32-11.18Z"/><path class="cls-2" d="M382.44,214.2c1.5-.06,13.82-.94,16.42-1l0,1.5c-.26,0-.5,0-.74,0a5.76,5.76,0,0,0-3.42,1c-3,1.8-5.9,5-5.9,7.6,0,2.8,2,4.46,6.92,5.1l-.66,1.4c-5.68-.82-7.8-2.94-7.8-6.5,0-2.82,2.78-6.24,6.44-8.54-2.12.14-8.1.6-10.68.84a.6.6,0,0,1-.44.32Z"/><path class="cls-2" d="M414.12,229.93a60.76,60.76,0,0,0-7.84-7.44c-1-.8-1.36-1.36-1.36-2.08a2.56,2.56,0,0,1,1.06-1.82c1.82-1.68,5.24-4.92,7.16-6.88l1.7,1.12a.59.59,0,0,1-.44.2,1,1,0,0,1-.24,0c-2,1.92-5.12,4.64-6.76,6.18-.48.46-.86.86-.86,1.18s.36.74,1.06,1.26a66.54,66.54,0,0,1,7.9,7.26Z"/><path class="cls-2" d="M433.86,215.89a25,25,0,0,1-6.14,1.14,52.81,52.81,0,0,1-3.66,12.5l-1.44-.54a42.8,42.8,0,0,0,3.62-11.9c-.4,0-3.08,0-3.68,0l0-1.36c.32,0,.74,0,1.2,0,.18,0,2.18,0,2.7,0,.2-1.28.4-2.68.52-3.9l2.06.2c0,.22-.3.38-.58.4-.12.88-.32,2-.5,3.18a23.2,23.2,0,0,0,5.6-1.12Zm5.34,13.22c-.78.06-1.62.1-2.44.1a17.9,17.9,0,0,1-4.16-.4,2.78,2.78,0,0,1-2.22-2.76,4.82,4.82,0,0,1,1.24-2.9l1.2.52a3.68,3.68,0,0,0-1,2.22c0,1.58,1.52,1.94,4.78,1.94.88,0,1.8,0,2.6-.12Zm-7.82-9.54a23.88,23.88,0,0,1,7.26-1v1.36a22.6,22.6,0,0,0-6.92.9Zm3.52-6.94a15,15,0,0,1,2.78,2.72l-.74.64a14,14,0,0,0-2.7-2.74Zm2.58-1.32a13.66,13.66,0,0,1,2.76,2.7l-.74.64a15.59,15.59,0,0,0-2.68-2.72Z"/><path class="cls-2" d="M458.88,216.1a38.82,38.82,0,0,1-6.66,1.1c.78,2.72,1.62,4.34,3.78,5.28l-1,1.22c-.92-.7-1.86-1.24-4.46-1.38l-.24-1.18a19.4,19.4,0,0,1,2.22.3,10.85,10.85,0,0,1-1.78-4.14c-.9.08-2.12.12-3.32.12s-3.42,0-4.7-.06V216c1.2.06,2.9.06,4.72.06,1,0,2.18,0,3-.1-.24-1.08-.46-2.56-.7-4.1l2.14,0c0,.24-.2.38-.52.46.12,1.14.32,2.4.54,3.5a34,34,0,0,0,6.66-1.18Zm-3.58,13.16c-1,0-2,.06-3.72.06-4.18,0-7.14-1.28-7.14-4a5,5,0,0,1,1.8-3.36l1.08.86a3.51,3.51,0,0,0-1.44,2.46c0,2,2.56,2.62,5.74,2.62,1.74,0,2.76,0,3.78-.1Z"/><path class="cls-2" d="M464.92,214.2c0,.18-.26.3-.54.32a32.87,32.87,0,0,0-.38,5c0,.74,0,1.46.08,2.1.24,3.4,1.62,5.46,3.16,5.44.8,0,1.84-2,2.56-4.28a7,7,0,0,0,1.16.86c-.92,2.7-2.08,4.9-3.74,4.94-2.54,0-4.3-3-4.58-6.88-.06-.76-.08-1.6-.08-2.5a47.67,47.67,0,0,1,.3-5.38Zm13.26,9.3a10,10,0,0,0-5-7.52l.88-1.08a11,11,0,0,1,5.64,8.14Z"/><path class="cls-2" d="M487.1,227.29a2.8,2.8,0,1,1-2.8-2.8A2.81,2.81,0,0,1,487.1,227.29Zm-.72,0a2.07,2.07,0,1,0-2.08,2.06A2.07,2.07,0,0,0,486.38,227.29Z"/><path class="cls-3" d="M232.1,409.74a4.85,4.85,0,0,1-4.61,3.5H38.43a4.85,4.85,0,0,1-4.61-3.5L11.65,316.61a3.23,3.23,0,0,1,3.26-4.11H251a3.23,3.23,0,0,1,3.26,4.11Z"/><path class="cls-3" d="M263.69,258.47l-30.58-93.25h0a20.36,20.36,0,0,1-1.89-9.21l8.72-121.93,1.3-19.8C241.72,7,237.2,1,231.15,1H34.77c-6,0-10.57,6-10.09,13.28L34.7,156a20.36,20.36,0,0,1-1.89,9.21L2.23,258.47a13.87,13.87,0,0,0-1,8.29l8.54,41.62a5.55,5.55,0,0,0,5.12,4.13H251a5.55,5.55,0,0,0,5.12-4.13l8.54-41.62A13.87,13.87,0,0,0,263.69,258.47Z"/><polygon class="cls-4" points="202.76 122.83 63.16 122.83 58.82 35.79 207.1 35.79 202.76 122.83"/><path class="cls-3" d="M151.32,344.81l-2.43,3.76v10.75s-.94,9.29-7.19,15.29c-5.89,5.66-16.32,11-29.08,5.39a23.49,23.49,0,0,1-14.51-20.42c0-3.09,1.34-18.54,2-19.61a8.69,8.69,0,0,1,6.18-3.22c3-.13,35.46,0,35.46,0s4.15-.2,5.37,1.21A40.73,40.73,0,0,1,151.32,344.81Z"/><polygon class="cls-3" points="133.68 336.9 133.68 351.72 136.71 346.38 133.68 336.9"/><path class="cls-3" d="M118.54,381.11s-.07-.67-.07-1.58a5.57,5.57,0,0,0-2.12-3.43c-1.11-.81-4.13-2.82-5.14-4.33s-.6-4.43-.6-4.43l.6-7.83s0-2.14,3.28-2.24,19.58,0,19.58,0,3.22-.2,3.53,1.81a82.48,82.48,0,0,1,.5,10.68c-.2,1.11-2.12,3.47-3.32,4.45s-3.83,1.69-4.33,2.5-.58,3.9-.58,3.9"/><path class="cls-3" d="M102.45,340.34s4.11,5.62,5.44,7.66a58.08,58.08,0,0,1,4.57,8.73"/><path class="cls-3" d="M136.46,357.23a73.74,73.74,0,0,0,6.79-6.92"/><polyline class="cls-3" points="138.17 336.73 138.17 346.28 147.89 346.28 151.32 344.81"/><path class="cls-3" d="M91.2,368.45l-7.72.38s-4.1,0-5-1.19-4.3-28.21-4.3-28.21a2.18,2.18,0,0,1,2.08-2.75c2.69-.34,35.86-.68,35.86-.68s1.34.07,1.81-.54-.27-2.42,1.28-2.82,16.89-.6,16.89-.6a1.76,1.76,0,0,1,1.61,1.07c.37,1.07.24,1.81.71,2.08s.58.94,3.78.81,14-.26,14-.26,2.08-.07,2.08,1.54-.5,13.73-.5,13.73"/><path class="cls-3" d="M117.61,332.43c.08.05,2.92,2.65,5.52,2.88a7.45,7.45,0,0,0,5.31-1.11,11.85,11.85,0,0,0,2.57-2.13"/><path class="cls-3" d="M75.54,350.13s5.26-.32,8.28,1.54a22.64,22.64,0,0,1,7.86,9.26c2,4.08,4.3,9.55,6.45,12.65,2,2.94,7.63,11.1,25.59,11.89,16.88.75,27.72-13,29.13-16.75"/><path class="cls-3" d="M100.13,339.8a46.82,46.82,0,0,1-13.9,8.13c-8.26,3-10.7,2-10.7,2"/><path class="cls-3" d="M128.14,235v11.82a2.83,2.83,0,0,0,2,1.51c1.41.2,27.3,0,27.3,0s1.41-.5,1.51-1.21-.6-12.19-.6-12.19a1.67,1.67,0,0,0-1.61-1.31c-1.41-.1-25.79,0-25.79,0s-2.48-.1-2.79,1.25A.58.58,0,0,0,128.14,235Z"/><line class="cls-3" x1="128.57" y1="234.51" x2="136.13" y2="241.86"/><line class="cls-3" x1="150.71" y1="241.9" x2="157.81" y2="234.3"/><line class="cls-3" x1="128.7" y1="247.38" x2="135.25" y2="245.44"/><line class="cls-3" x1="151.54" y1="245.4" x2="158.26" y2="247.91"/><path class="cls-5" d="M135.83,243h15.25l.23-1.33a1,1,0,0,0-1-1c-1-.07-14,0-14,0s-.68.06-.76.66A5.5,5.5,0,0,0,135.83,243Z"/><path class="cls-5" d="M135.47,244.47h15.84v1.17s0,.53-.3.53H135.85s-.3.05-.34-.21S135.47,244.47,135.47,244.47Z"/><path class="cls-3" d="M50.37,215.62,47.85,226.8s-.91,1.81,1.26,2,49.52,0,49.52,0a2.56,2.56,0,0,0,2.62-2.12c.4-2.22.81-11.08.81-11.08a1.32,1.32,0,0,0-1.21-1.71c-1.61-.2-47,0-47,0S50.77,213.83,50.37,215.62Z"/><path class="cls-3" d="M54.6,217.47l-1.81,7.66s-.27.87.34,1,43.72-.27,43.72-.27a1.07,1.07,0,0,0,.87-.94c.07-.81.37-7.19.37-7.19a.84.84,0,0,0-.87-1.14l-41.4.14A1,1,0,0,0,54.6,217.47Z"/><line class="cls-3" x1="48.82" y1="223.61" x2="52.71" y2="223.61"/><polyline class="cls-3" points="55.14 217.1 57.69 221.65 97.82 221.06"/><line class="cls-3" x1="99.15" y1="223.48" x2="101.44" y2="223.48"/><path class="cls-3" d="M57.42,222"/><line class="cls-3" x1="57.68" y1="221.76" x2="56.64" y2="225.66"/><path class="cls-3" d="M123.81,180.66l-1.11,33.16s-.6,3.62,3.63,4.12,32.94.5,32.94.5,2.22.4,3-2.42-2.22-34.66-2.22-34.66-.71-3.43-3.12-3.53-29.72,0-29.72,0S123.88,178.54,123.81,180.66Z"/><path class="cls-3" d="M129.62,185.09l-.47,23.24s-.34,1.48,1.48,1.68,23.78,0,23.78,0,1.21-.27,1.41-1-1.07-23.91-1.07-23.91a1.13,1.13,0,0,0-1.21-1.07c-1.21-.07-22.57,0-22.57,0S129.64,183.88,129.62,185.09Z"/><circle class="cls-5" cx="154.88" cy="214.41" r="0.8"/><circle class="cls-5" cx="130.43" cy="214.41" r="0.8"/><rect class="cls-5" x="132.41" y="213.61" width="0.54" height="1.27"/><rect class="cls-5" x="133.39" y="213.61" width="0.54" height="1.27"/><rect class="cls-5" x="134.37" y="213.61" width="0.54" height="1.27"/><rect class="cls-5" x="135.35" y="213.61" width="0.54" height="1.27"/><rect class="cls-5" x="136.34" y="213.61" width="0.54" height="1.27"/><rect class="cls-5" x="137.32" y="213.61" width="0.54" height="1.27"/><rect class="cls-5" x="138.3" y="213.61" width="0.54" height="1.27"/><rect class="cls-5" x="139.28" y="213.61" width="0.54" height="1.27"/><rect class="cls-5" x="140.26" y="213.61" width="0.54" height="1.27"/><rect class="cls-5" x="141.25" y="213.61" width="0.54" height="1.27"/><rect class="cls-5" x="142.23" y="213.61" width="0.54" height="1.27"/><rect class="cls-5" x="143.21" y="213.61" width="0.54" height="1.27"/><rect class="cls-5" x="144.19" y="213.61" width="0.54" height="1.27"/><rect class="cls-5" x="145.18" y="213.61" width="0.54" height="1.27"/><rect class="cls-5" x="146.16" y="213.61" width="0.54" height="1.27"/><rect class="cls-5" x="147.14" y="213.61" width="0.54" height="1.27"/><rect class="cls-5" x="148.12" y="213.61" width="0.54" height="1.27"/><rect class="cls-5" x="149.1" y="213.61" width="0.54" height="1.27"/><rect class="cls-5" x="150.09" y="213.61" width="0.54" height="1.27"/><rect class="cls-5" x="151.07" y="213.61" width="0.54" height="1.27"/><rect class="cls-5" x="152.05" y="213.61" width="0.54" height="1.27"/><circle class="cls-5" cx="131.07" cy="180.38" r="0.63"/><circle class="cls-5" cx="153.1" cy="180.38" r="0.63"/><rect class="cls-5" x="132.74" y="179.99" width="0.55" height="0.79"/><rect class="cls-5" x="133.6" y="179.99" width="0.55" height="0.79"/><rect class="cls-5" x="134.45" y="179.99" width="0.55" height="0.79"/><rect class="cls-5" x="135.31" y="179.99" width="0.55" height="0.79"/><rect class="cls-5" x="136.17" y="179.99" width="0.55" height="0.79"/><rect class="cls-5" x="137.02" y="179.99" width="0.55" height="0.79"/><rect class="cls-5" x="137.88" y="179.99" width="0.55" height="0.79"/><rect class="cls-5" x="138.74" y="179.99" width="0.55" height="0.79"/><rect class="cls-5" x="139.59" y="179.99" width="0.55" height="0.79"/><rect class="cls-5" x="140.45" y="179.99" width="0.55" height="0.79"/><rect class="cls-5" x="141.31" y="179.99" width="0.55" height="0.79"/><rect class="cls-5" x="142.16" y="179.99" width="0.55" height="0.79"/><rect class="cls-5" x="143.02" y="179.99" width="0.55" height="0.79"/><rect class="cls-5" x="143.87" y="179.99" width="0.55" height="0.79"/><rect class="cls-5" x="144.73" y="179.99" width="0.55" height="0.79"/><rect class="cls-5" x="145.59" y="179.99" width="0.55" height="0.79"/><rect class="cls-5" x="146.44" y="179.99" width="0.55" height="0.79"/><rect class="cls-5" x="147.3" y="179.99" width="0.55" height="0.79"/><rect class="cls-5" x="148.16" y="179.99" width="0.55" height="0.79"/><rect class="cls-5" x="149.01" y="179.99" width="0.55" height="0.79"/><rect class="cls-5" x="149.87" y="179.99" width="0.55" height="0.79"/><rect class="cls-5" x="150.73" y="179.99" width="0.55" height="0.79"/><line class="cls-3" x1="227.42" y1="161.23" x2="38.5" y2="161.23"/><line class="cls-3" x1="82.06" y1="153.97" x2="34.9" y2="153.97"/><line class="cls-3" x1="231.02" y1="153.97" x2="183.86" y2="153.97"/><line class="cls-3" x1="259.83" y1="266.49" x2="6.09" y2="266.49"/><path class="cls-3" d="M228.4,231.52l7.44,0s1.39,0,1.71-.5c.55-.88.2-1.71-.4-3.73s-14.51-51-14.51-51-.2-1.71-1.31-2.22a9.58,9.58,0,0,0-3.32-.4H181.13s-2.42,0-2.22,1.34L187,228.21s.32,3,2,3.27c.69.1,5,.06,10.91.07"/><path class="cls-3" d="M200.95,225.56s.18,1.27.36,2.6.35,2.72.33,3a1.41,1.41,0,0,1-.34,1,4.19,4.19,0,0,0-.35.37l26.46.1a.93.93,0,0,0,.44-.5c.1-.34-1-6.48-1-6.48Z"/><line class="cls-3" x1="227.04" y1="228.48" x2="201.58" y2="228.48"/><path class="cls-3" d="M183.42,177.81s6.45,43.52,6.85,43.79,40.16,0,40.16,0a1.2,1.2,0,0,0,.67-1.31c-.2-.91-11.38-42.48-11.38-42.48a1.53,1.53,0,0,0-1.39-1.14c-1.1-.09-33.67,0-33.67,0S183.22,176.47,183.42,177.81Z"/><path class="cls-5" d="M216.92,181.76l8.91,34.75H194l-5.54-34.75h28.48m1.15-2H186.71a.52.52,0,0,0-.51.6l6,37.72a.52.52,0,0,0,.51.44h35a.52.52,0,0,0,.5-.65l-9.67-37.72a.52.52,0,0,0-.5-.39Z"/><polyline class="cls-3" points="237.9 230.73 236.28 242.61 185.46 242.61 187.5 230.35"/><polyline class="cls-3" points="187.5 230.35 185.46 242.61 177.3 188.66 178.92 174.98"/><polygon class="cls-6" points="166.52 340.1 161.78 340.1 162.94 324.11 167.84 324.11 166.52 340.1"/><polygon class="cls-6" points="210.25 340.1 205.51 340.1 208.18 324.11 213.08 324.11 210.25 340.1"/><polygon class="cls-6" points="204.95 338.26 167.53 338.26 168.62 325.4 207.08 325.4 204.95 338.26"/><polygon class="cls-6" points="191.39 349.07 178.39 349.07 175.32 346.2 195.17 346.2 191.39 349.07"/><polygon class="cls-6" points="204.7 354.98 163.57 354.98 163.8 352.07 205.2 352.07 204.7 354.98"/><line class="cls-6" x1="162.42" y1="348.97" x2="207.39" y2="348.97"/><polygon class="cls-6" points="207.02 358.27 160.46 358.27 161.78 340.1 210.25 340.1 207.02 358.27"/><path class="cls-6" d="M198.64,328.81a72.26,72.26,0,0,0-11.12-.78,76.2,76.2,0,0,0-11.31.78c2.2,2.21,7.09,6.7,10.38,6.7S195.89,331,198.64,328.81Z"/><path class="cls-6" d="M178.47,330.95a82.16,82.16,0,0,1,8.74-.45,79,79,0,0,1,8.63.45"/><path class="cls-6" d="M203.75,340.06a4.34,4.34,0,0,1-4.19,3.36H171.64a3.2,3.2,0,0,1-3.35-3.36"/><path class="cls-3" d="M100.46,381s5,8.25,24.63,8.25C143,389.23,151,378,151,378"/><path class="cls-3" d="M153.73,351s1,23.41-4.41,33.48c-6,11.23-20.15,11.88-27.55,11.41-8.68-.55-20.51-4.37-24.76-14.56-3.23-7.76-5.7-19.9-19.44-19.35"/></g></g></svg>