<svg xmlns="http://www.w3.org/2000/svg" viewBox="0 0 360.24 478.9"><defs><style>.cls-1,.cls-2{fill:none;}.cls-1{stroke:#00a0e9;stroke-width:8px;}.cls-1,.cls-2,.cls-3{stroke-linecap:round;stroke-linejoin:round;}.cls-1,.cls-5{opacity:0.7;isolation:isolate;}.cls-2,.cls-3{stroke:#727171;}.cls-3{fill:#fff;}.cls-4{fill:#727171;}.cls-5{fill:#00a0e9;}</style></defs><title>アセット 5</title><g id="レイヤー_2" data-name="レイヤー 2"><g id="レイヤー_1-2" data-name="レイヤー 1"><g id="レイヤー_2-2" data-name="レイヤー 2"><g id="レイヤー_1-2-2" data-name="レイヤー 1-2"><circle class="cls-1" cx="253.44" cy="237" r="58.5"/><path class="cls-2" d="M268.34,474.3a5.77,5.77,0,0,1-5.3,4.1H43.84a5.46,5.46,0,0,1-5.3-4.1L12.84,366.4a3.66,3.66,0,0,1,2.6-4.6,2.46,2.46,0,0,1,1.2-.1h273.6a3.72,3.72,0,0,1,3.9,3.6,4.87,4.87,0,0,1-.1,1.2Z"/><path class="cls-2" d="M304.94,299l-35.4-108.1h0a23.11,23.11,0,0,1-2.2-10.7l10.1-141.3,1.5-23c.6-8.5-4.7-15.4-11.7-15.4H39.64c-7,0-12.2,6.9-11.7,15.4l11.6,164.3a23.37,23.37,0,0,1-2.2,10.7L1.94,299a15.15,15.15,0,0,0-1.1,9.6l9.9,48.2a6.4,6.4,0,0,0,5.9,4.8h273.6a6.4,6.4,0,0,0,5.9-4.8l9.9-48.2A15.78,15.78,0,0,0,304.94,299Z"/><polygon class="cls-3" points="234.34 141.8 72.54 141.8 67.54 40.9 239.34 40.9 234.34 141.8"/><path class="cls-2" d="M174.74,399.1l-2.8,4.4V416s-1.1,10.8-8.3,17.7c-6.8,6.6-18.9,12.8-33.7,6.2s-16.8-20-16.8-23.6,1.6-21.5,2.3-22.7a10.19,10.19,0,0,1,7.2-3.7c3.4-.2,41.1,0,41.1,0s4.8-.2,6.2,1.4A46.49,46.49,0,0,1,174.74,399.1Z"/><polygon class="cls-2" points="154.24 389.9 154.24 407.1 157.74 400.9 154.24 389.9"/><path class="cls-2" d="M136.74,441.1a16.17,16.17,0,0,1-.1-1.8,6.92,6.92,0,0,0-2.4-4c-1.3-.9-4.8-3.3-6-5s-.7-5.1-.7-5.1l.7-9.1s0-2.5,3.8-2.6,22.7,0,22.7,0,3.7-.2,4.1,2.1a85.15,85.15,0,0,1,.6,12.4c-.2,1.3-2.4,4-3.9,5.2s-4.4,2-5,2.9-.7,4.5-.7,4.5"/><path class="cls-2" d="M118,393.9s4.8,6.5,6.3,8.9a74.6,74.6,0,0,1,5.3,10.1"/><path class="cls-2" d="M157.44,413.5a99.4,99.4,0,0,0,7.9-8"/><polyline class="cls-2" points="159.44 389.7 159.44 400.8 170.74 400.8 174.74 399.1"/><path class="cls-2" d="M105,426.5l-9,.4s-4.8,0-5.8-1.4-5-32.7-5-32.7a2.47,2.47,0,0,1,1.8-3.1,1.27,1.27,0,0,1,.6-.1c3.1-.4,41.6-.8,41.6-.8s1.6.1,2.1-.6-.3-2.8,1.5-3.3,19.6-.7,19.6-.7a2.12,2.12,0,0,1,1.9,1.2c.4,1.2.3,2.1.8,2.4s.7,1.1,4.4.9,16.2-.3,16.2-.3,2.4-.1,2.4,1.8-.6,15.9-.6,15.9"/><path class="cls-2" d="M135.64,384.7c.1.1,3.4,3.1,6.4,3.3a9,9,0,0,0,6.2-1.2,14.25,14.25,0,0,0,3-2.5"/><path class="cls-2" d="M86.84,405.2s6.1-.4,9.6,1.8a26.17,26.17,0,0,1,9.1,10.7c2.3,4.7,5,11.1,7.5,14.7,2.4,3.4,8.9,12.9,29.7,13.8,19.6.9,32.1-15.1,33.8-19.4"/><path class="cls-2" d="M115.34,393.2a54.41,54.41,0,0,1-16.1,9.4c-9.6,3.5-12.4,2.4-12.4,2.4"/><path class="cls-2" d="M147.84,271.8v13.7a3.47,3.47,0,0,0,2.3,1.8c1.6.2,31.6,0,31.6,0s1.6-.6,1.8-1.4-.7-14.1-.7-14.1a1.93,1.93,0,0,0-1.9-1.5c-1.6-.1-29.9,0-29.9,0s-2.9-.1-3.2,1.5Z"/><line class="cls-2" x1="148.34" y1="271.2" x2="157.14" y2="279.7"/><line class="cls-2" x1="174.04" y1="279.8" x2="182.24" y2="271"/><line class="cls-2" x1="148.44" y1="286.1" x2="156.14" y2="283.9"/><line class="cls-2" x1="174.94" y1="283.8" x2="182.74" y2="286.8"/><path class="cls-4" d="M156.74,281h17.7l.3-1.5a1.11,1.11,0,0,0-1.1-1.1h-.1c-1.2-.1-16.2,0-16.2,0s-.8.1-.9.8A6.15,6.15,0,0,0,156.74,281Z"/><path class="cls-4" d="M156.34,282.8h18.4v1.4s0,.6-.4.6h-17.6s-.4.1-.4-.2Z"/><path class="cls-2" d="M57.74,249.3l-2.9,13s-1.1,2.1,1.5,2.3,57.4,0,57.4,0a3,3,0,0,0,3-2.5c.5-2.6.9-12.8.9-12.8a1.46,1.46,0,0,0-1-1.9c-.1,0-.3-.1-.4-.1-1.9-.2-54.5,0-54.5,0S58.14,247.3,57.74,249.3Z"/><path class="cls-2" d="M62.64,251.5l-2.1,8.9s-.3,1,.4,1.2,50.7-.3,50.7-.3a1.28,1.28,0,0,0,1-1.1c.1-.9.4-8.3.4-8.3a1,1,0,0,0-.6-1.3c-.1,0-.2-.1-.4-.1l-48,.2c-.6-.3-1.2.1-1.4.8Z"/><line class="cls-2" x1="55.94" y1="258.6" x2="60.44" y2="258.6"/><polyline class="cls-2" points="63.24 251 66.14 256.3 112.74 255.6"/><line class="cls-2" x1="114.24" y1="258.4" x2="116.94" y2="258.4"/><path class="cls-2" d="M65.84,256.7"/><line class="cls-2" x1="66.14" y1="256.4" x2="64.94" y2="261"/><path class="cls-2" d="M142.84,208.8l-1.3,38.4s-.7,4.2,4.2,4.8,38.2.6,38.2.6,2.6.5,3.5-2.8-2.6-40.2-2.6-40.2-.8-4-3.6-4.1-34.4,0-34.4,0S142.94,206.3,142.84,208.8Z"/><path class="cls-2" d="M149.54,213.9l-.5,26.9s-.4,1.7,1.7,1.9,27.5,0,27.5,0,1.4-.3,1.6-1.2-1.2-27.7-1.2-27.7a1.35,1.35,0,0,0-1.4-1.3h0c-1.4-.1-26.1,0-26.1,0A1.57,1.57,0,0,0,149.54,213.9Z"/><circle class="cls-4" cx="178.84" cy="247.9" r="0.9"/><circle class="cls-4" cx="150.44" cy="247.9" r="0.9"/><rect class="cls-4" x="152.84" y="247" width="0.6" height="1.5"/><rect class="cls-4" x="153.94" y="247" width="0.6" height="1.5"/><rect class="cls-4" x="155.04" y="247" width="0.6" height="1.5"/><rect class="cls-4" x="156.24" y="247" width="0.6" height="1.5"/><rect class="cls-4" x="157.34" y="247" width="0.6" height="1.5"/><rect class="cls-4" x="158.44" y="247" width="0.6" height="1.5"/><rect class="cls-4" x="159.64" y="247" width="0.6" height="1.5"/><rect class="cls-4" x="160.74" y="247" width="0.6" height="1.5"/><rect class="cls-4" x="161.94" y="247" width="0.6" height="1.5"/><rect class="cls-4" x="163.04" y="247" width="0.6" height="1.5"/><rect class="cls-4" x="164.14" y="247" width="0.6" height="1.5"/><rect class="cls-4" x="165.34" y="247" width="0.6" height="1.5"/><rect class="cls-4" x="166.44" y="247" width="0.6" height="1.5"/><rect class="cls-4" x="167.64" y="247" width="0.6" height="1.5"/><rect class="cls-4" x="168.74" y="247" width="0.6" height="1.5"/><rect class="cls-4" x="169.84" y="247" width="0.6" height="1.5"/><rect class="cls-4" x="171.04" y="247" width="0.6" height="1.5"/><rect class="cls-4" x="172.14" y="247" width="0.6" height="1.5"/><rect class="cls-4" x="173.24" y="247" width="0.6" height="1.5"/><rect class="cls-4" x="174.44" y="247" width="0.6" height="1.5"/><rect class="cls-4" x="175.54" y="247" width="0.6" height="1.5"/><circle class="cls-4" cx="151.24" cy="208.5" r="0.7"/><circle class="cls-4" cx="176.74" cy="208.5" r="0.7"/><rect class="cls-4" x="153.14" y="208" width="0.6" height="0.9"/><rect class="cls-4" x="154.14" y="208" width="0.6" height="0.9"/><rect class="cls-4" x="155.14" y="208" width="0.6" height="0.9"/><rect class="cls-4" x="156.14" y="208" width="0.6" height="0.9"/><rect class="cls-4" x="157.14" y="208" width="0.6" height="0.9"/><rect class="cls-4" x="158.14" y="208" width="0.6" height="0.9"/><rect class="cls-4" x="159.14" y="208" width="0.6" height="0.9"/><rect class="cls-4" x="160.14" y="208" width="0.6" height="0.9"/><rect class="cls-4" x="161.14" y="208" width="0.6" height="0.9"/><rect class="cls-4" x="162.14" y="208" width="0.6" height="0.9"/><rect class="cls-4" x="163.14" y="208" width="0.6" height="0.9"/><rect class="cls-4" x="164.14" y="208" width="0.6" height="0.9"/><rect class="cls-4" x="165.14" y="208" width="0.6" height="0.9"/><rect class="cls-4" x="166.04" y="208" width="0.6" height="0.9"/><rect class="cls-4" x="167.04" y="208" width="0.6" height="0.9"/><rect class="cls-4" x="168.04" y="208" width="0.6" height="0.9"/><rect class="cls-4" x="169.04" y="208" width="0.6" height="0.9"/><rect class="cls-4" x="170.04" y="208" width="0.6" height="0.9"/><rect class="cls-4" x="171.04" y="208" width="0.6" height="0.9"/><rect class="cls-4" x="172.04" y="208" width="0.6" height="0.9"/><rect class="cls-4" x="173.04" y="208" width="0.6" height="0.9"/><rect class="cls-4" x="174.04" y="208" width="0.6" height="0.9"/><line class="cls-2" x1="262.94" y1="186.3" x2="43.94" y2="186.3"/><line class="cls-2" x1="94.44" y1="177.9" x2="39.74" y2="177.9"/><line class="cls-2" x1="267.04" y1="177.9" x2="212.44" y2="177.9"/><line class="cls-2" x1="300.44" y1="308.3" x2="6.44" y2="308.3"/><path class="cls-2" d="M264,267.8h8.6s1.6,0,2-.6c.6-1,.2-2-.5-4.3s-16.8-59.1-16.8-59.1-.2-2-1.5-2.6a12.28,12.28,0,0,0-3.9-.5h-42.7s-2.8,0-2.6,1.6l9.3,61.7s.4,3.5,2.3,3.8c.8.1,5.8.1,12.6.1"/><path class="cls-2" d="M232.24,260.8l.4,3c.2,1.5.4,3.1.4,3.4a1.5,1.5,0,0,1-.4,1.1l-.4.4,30.7.1a1,1,0,0,0,.5-.6c.1-.4-1.2-7.5-1.2-7.5Z"/><line class="cls-2" x1="262.44" y1="264.2" x2="232.94" y2="264.2"/><path class="cls-2" d="M211.94,205.5s7.5,50.4,7.9,50.8,46.5,0,46.5,0a1.41,1.41,0,0,0,.8-1.5c-.2-1-13.2-49.2-13.2-49.2a1.81,1.81,0,0,0-1.6-1.3c-1.3-.1-39,0-39,0S211.64,204,211.94,205.5Z"/><path class="cls-4" d="M251.74,208.8l11,42.9H223l-6.8-42.9h35.5m.4-1h-36.4a.65.65,0,0,0-.6.6v.1l7,43.7a.56.56,0,0,0,.6.5h40.5a.65.65,0,0,0,.6-.6V252l-11.2-43.7c-.1-.3-.3-.5-.5-.5Z"/><polyline class="cls-2" points="275.04 266.8 273.14 280.6 214.24 280.6 216.64 266.4"/><polyline class="cls-2" points="216.64 266.4 214.24 280.6 204.84 218.1 206.74 202.2"/><polygon class="cls-2" points="192.34 393.6 186.84 393.6 188.14 375.1 193.84 375.1 192.34 393.6"/><polygon class="cls-2" points="243.04 393.6 237.54 393.6 240.64 375.1 246.34 375.1 243.04 393.6"/><polygon class="cls-2" points="236.84 391.5 193.54 391.5 194.74 376.6 239.34 376.6 236.84 391.5"/><polygon class="cls-2" points="221.14 404 206.14 404 202.54 400.7 225.54 400.7 221.14 404"/><polygon class="cls-2" points="236.54 410.8 188.94 410.8 189.14 407.5 237.14 407.5 236.54 410.8"/><line class="cls-2" x1="187.54" y1="403.9" x2="239.74" y2="403.9"/><polygon class="cls-2" points="239.24 414.7 185.34 414.7 186.84 393.6 243.04 393.6 239.24 414.7"/><path class="cls-2" d="M229.54,380.5a93.24,93.24,0,0,0-12.9-.9,95,95,0,0,0-13.1.9c2.6,2.6,8.2,7.8,12,7.8S226.34,383.1,229.54,380.5Z"/><path class="cls-2" d="M206.14,383a85.4,85.4,0,0,1,10.1-.5c3.3,0,6.7.2,10,.5"/><path class="cls-2" d="M235.44,393.6a4.94,4.94,0,0,1-4.9,3.9h-32.3a3.76,3.76,0,0,1-3.9-3.5v-.4"/><path class="cls-2" d="M115.74,441s5.8,9.6,28.5,9.6c20.7,0,30-13,30-13"/><path class="cls-2" d="M177.54,406.3s1.1,27.1-5.1,38.8c-6.9,13-23.4,13.8-31.9,13.2-10.1-.6-23.8-5.1-28.7-16.9-3.8-9-6.6-23.1-22.5-22.4"/></g></g><polygon class="cls-5" points="345.33 204.45 323.28 237 345.33 269.55 345.33 256.32 360.24 256.32 360.24 217.68 345.33 217.68 345.33 204.45"/></g></g></svg>