<svg xmlns="http://www.w3.org/2000/svg" viewBox="0 0 726 500"><defs><style>.cls-1,.cls-2,.cls-4{fill:none;}.cls-2{stroke:#00a0e9;stroke-width:8px;opacity:0.7;}.cls-2,.cls-4,.cls-5{stroke-linecap:round;stroke-linejoin:round;}.cls-3{fill:#231815;}.cls-4,.cls-5{stroke:#727171;}.cls-5{fill:#fff;}.cls-6{fill:#727171;}</style></defs><title>アセット 1</title><g id="レイヤー_2" data-name="レイヤー 2"><g id="レイヤー_1-2" data-name="レイヤー 1"><rect class="cls-1" width="726" height="500"/><circle class="cls-2" cx="299.18" cy="247.22" r="58.48"/><path class="cls-3" d="M418.51,228.84a18.1,18.1,0,0,1,4.33,2.39l-.88,1.3a20,20,0,0,0-4.29-2.5Zm-.21,13.65a71.34,71.34,0,0,0,4-7.65l1.21,1a76.4,76.4,0,0,1-3.69,7.21.51.51,0,0,1,.12.32.62.62,0,0,1-.07.28Zm1.46-20a17.68,17.68,0,0,1,4.22,2.55l-.9,1.27a17.47,17.47,0,0,0-4.2-2.69Zm19.47,12.31h-6.58a11.32,11.32,0,0,0,6.86,7.67,6.16,6.16,0,0,0-1.09,1.37c-3.62-1.55-6-4.61-7.25-8.78-.67,3.36-2.48,6.47-7.12,8.81a6.28,6.28,0,0,0-1.21-1.14c4.38-2.13,6.1-4.91,6.77-7.93h-5.7v-1.48h6a26.43,26.43,0,0,0,.14-3v-2.64h-4.64v-1.48H430v-3.85l2,.14c0,.16-.16.28-.46.32v3.38H437v7.16h2.2Zm-7.67-7.16v2.67a26,26,0,0,1-.14,3h4.08v-5.68Z"/><path class="cls-3" d="M441.69,228.84a18.1,18.1,0,0,1,4.33,2.39l-.88,1.3a20,20,0,0,0-4.29-2.5Zm-.16,13.65a74.25,74.25,0,0,0,4.19-7.65l1.18,1a78.63,78.63,0,0,1-3.82,7.23.51.51,0,0,1,.12.32.47.47,0,0,1-.07.26Zm1.41-20a17.68,17.68,0,0,1,4.22,2.55l-.9,1.27a17.47,17.47,0,0,0-4.2-2.69Zm15.71,12.17v-1.51l2,.14c0,.16-.14.28-.46.32v10.2h-1.53v-4.31h-8a8.12,8.12,0,0,1-2.94,4.33,7,7,0,0,0-1.23-.9,7.91,7.91,0,0,0,3.08-6.86v-2.9l1.95.12c0,.16-.14.28-.44.32v1Zm.44-8.39.81.25q-.1.21-.49.21a10.63,10.63,0,0,1-3.08,3.36,29.61,29.61,0,0,0,6.37,1.88,4.17,4.17,0,0,0-.88,1.39,26.86,26.86,0,0,1-6.91-2.36,25.76,25.76,0,0,1-7.32,2.55,6.47,6.47,0,0,0-.76-1.34,23.22,23.22,0,0,0,6.68-2.09,13.53,13.53,0,0,1-3.55-3.62l.56-.23H447.6v-1.41H454v-2.57l2,.12c0,.16-.14.28-.46.32v2.13h6.77v1.41ZM451,236.05a12.63,12.63,0,0,1-.14,2.13h7.76v-2.13Zm.46-9.76a11.84,11.84,0,0,0,3.41,3.06,9.11,9.11,0,0,0,3-3.06Z"/><path class="cls-3" d="M471.45,229.7c-.07.16-.23.25-.51.28a76.56,76.56,0,0,1-1.41,8l2.57-.53c.09.7.12,1,.14,1.3-2.73.67-5.59,1.34-7.39,1.76a.43.43,0,0,1-.3.35L464,239c1.32-.23,3-.56,4.89-1l-.56-.16a82,82,0,0,0,1.34-8.67Zm.3-2.62v1.41h-7.42v-1.41h3v-4.5l1.88.12c0,.16-.14.28-.44.32v4.06Zm-5.63,2.39a41.63,41.63,0,0,1,1,7.7l-1.3.21a43,43,0,0,0-.9-7.7Zm19.52,2.85h-6.19c-.16.72-.42,1.65-.67,2.43h6.07v7.58c0,1.46-.74,1.51-2.71,1.51a5.66,5.66,0,0,0-.46-1.27c1.74,0,1.74,0,1.74-.25v-6.19h-2.27v7.37h-1.27v-7.37h-2.23v7.44h-1.27v-7.44h-2.11v7.72h-1.44v-9.09h4.45c.21-.72.39-1.62.56-2.43H472v-1.41h13.65Zm-.74-8.71c0,.16-.16.28-.46.32V229H473.19v-5.52l1.9.12c0,.16-.14.28-.46.32v3.69h3.31v-5.31l1.95.12c0,.16-.14.28-.44.32v4.87H483v-4.13Z"/><path class="cls-3" d="M507.15,233.71h-7.23a24.39,24.39,0,0,0,9,7.37,7.11,7.11,0,0,0-1.16,1.34,26.49,26.49,0,0,1-9-7.86v9.23h-1.62v-9a26.39,26.39,0,0,1-8.85,7.74,9.17,9.17,0,0,0-1.14-1.34,23.5,23.5,0,0,0,8.92-7.44H489v-1.53h8.21v-4.29h-9.43v-1.55h9.43v-4.06l2.11.12c0,.16-.16.28-.49.32v3.62h9.62v1.55h-9.62v4.29h8.37Z"/><path class="cls-3" d="M522.54,226.53a.6.6,0,0,1-.58.37c-.83,7.21-3.25,13.49-7.09,13.49-1.95,0-3.71-1.95-3.71-5.61a10.17,10.17,0,0,1,10.43-10.22c6.7,0,9.6,4.24,9.6,8.76,0,5.52-3.2,8.18-8.81,9.48a9.15,9.15,0,0,0-1-1.41c5.33-1,8.07-3.62,8.07-8,0-3.82-2.46-7.3-7.88-7.3a6.51,6.51,0,0,0-.7,0Zm-2.23-.3a8.53,8.53,0,0,0-7.58,8.51c0,2.48,1.07,4,2.18,4C517.72,238.76,519.74,232.57,520.32,226.22Z"/><path class="cls-3" d="M541.36,232.6l.21,1.34-2.8,1v7c0,1.67-.77,1.92-3.85,1.88a6.72,6.72,0,0,0-.51-1.44c1.09,0,2.09,0,2.39,0s.44-.12.44-.44V235.5c-1.09.37-2.09.72-2.87,1a.38.38,0,0,1-.28.37l-.65-1.83c1-.28,2.36-.67,3.8-1.11v-5.45h-3.52V227h3.52v-4.68l2,.12c0,.19-.14.28-.46.32V227h2.67v1.46h-2.67v5Zm2.92-3.59c0,.81.28,1,1.9,1H552c1.37,0,1.6-.42,1.74-3a3.91,3.91,0,0,0,1.44.58c-.23,3.11-.77,3.87-3.08,3.87h-5.91c-2.67,0-3.41-.49-3.41-2.41v-6.7l2,.12c0,.16-.16.28-.46.32v3.15a44.41,44.41,0,0,0,7.86-2.23l1.34,1.23a.37.37,0,0,1-.28.09.57.57,0,0,1-.19,0,53.44,53.44,0,0,1-8.74,2.23Zm-1.18,14.83V233.5h10.64v10.18h-1.55v-1h-7.6v1.11Zm9.09-9h-7.6v2.57h7.6Zm-7.6,6.51h7.6v-2.62h-7.6Z"/><path class="cls-3" d="M562.85,234.48c-.07.16-.23.23-.51.23a21.82,21.82,0,0,1-4.66,7.09,9.27,9.27,0,0,0-1.3-.93,18.46,18.46,0,0,0,4.5-7Zm15.07-3.06h-9.57V241.8c0,1-.25,1.51-1,1.76a18.17,18.17,0,0,1-4.2.25,6.05,6.05,0,0,0-.58-1.55c1,0,1.9,0,2.6,0,1.51,0,1.6,0,1.6-.51V231.42h-9.5v-1.53h20.67ZM575.85,224v1.53h-16.5V224Zm.9,17.69a28.65,28.65,0,0,0-4.22-7.28l1.44-.63a30,30,0,0,1,4.36,7.19Z"/><path class="cls-3" d="M585.24,224c-.07.25-.3.39-.76.37a55.57,55.57,0,0,0-1.23,10.43,25.51,25.51,0,0,0,.3,4.59c.44-1.14,1.44-3.57,1.76-4.38l1,1c-1,2.34-1.65,3.66-2,4.71a4,4,0,0,0-.19,1.09,2.46,2.46,0,0,0,.12.72l-1.65.3a25.44,25.44,0,0,1-1-8,67.79,67.79,0,0,1,1.23-11.29ZM600,241c-.83,0-1.69.07-2.55.07a31.94,31.94,0,0,1-4.31-.25c-2.85-.42-4.17-2-4.17-3.85,0-1.6.88-2.94,2.18-4.47l1.51.65c-1.16,1.21-2,2.32-2,3.64,0,2.69,3.94,2.69,6.35,2.69,1,0,2,0,3-.12ZM589.28,226.8a75.7,75.7,0,0,0,10.11-.88l.14,1.62a87.76,87.76,0,0,1-10.2.86Z"/><path class="cls-3" d="M606.48,233.29a32.75,32.75,0,0,1-2.62,2.9,11.14,11.14,0,0,0-.88-1.34,29.36,29.36,0,0,0,5.7-7.46l1.76.72c-.07.16-.25.21-.53.21-.56,1-1.21,2-1.88,2.92l.44.16a.56.56,0,0,1-.49.3v12.15h-1.51Zm3.45-10.22a.53.53,0,0,1-.53.19,37.89,37.89,0,0,1-5.42,5.26,7.25,7.25,0,0,0-.93-1.21,25.39,25.39,0,0,0,5.08-5Zm8.41,12.42v6.23a11,11,0,0,0,2.2.19c.49,0,3.69,0,4.38,0a4.52,4.52,0,0,0-.51,1.48h-4c-3.55,0-6-.88-7.63-4.45a10.91,10.91,0,0,1-2.71,5,7.74,7.74,0,0,0-1.14-1c2.23-2.06,3.08-6,3.36-10.57l1.95.25c0,.16-.16.25-.44.3a36.27,36.27,0,0,1-.49,3.73c.74,2.57,1.92,3.94,3.45,4.66V229.21h-5.86v-1.51h8.95l-.9-.39a32.83,32.83,0,0,0,2.5-5l1.81.74c-.07.14-.25.21-.51.21a43.69,43.69,0,0,1-2.36,4.47h4v1.51h-6V234h5.15v1.46Zm-4.82-13A30.67,30.67,0,0,1,616,227l-1.37.65a32.85,32.85,0,0,0-2.46-4.66Z"/><path class="cls-3" d="M628.78,231.46c.42-.09,1.27-.32,2.06-.56a34.59,34.59,0,0,1,8.39-1.65c3.13,0,5.93,1.67,5.93,5.45,0,5.1-5.05,7-11.24,7.46a11.21,11.21,0,0,0-.46-1.41c5.45-.39,10.06-2,10.06-6,0-2.9-2.06-4.15-4.52-4.13a28.8,28.8,0,0,0-7.76,1.69c-.53.19-1.11.39-1.48.51a.58.58,0,0,1-.37.39Z"/><path class="cls-3" d="M650.59,225.44c1.74-.07,16-1.09,19-1.11l0,1.74c-.3,0-.58,0-.86,0a6.68,6.68,0,0,0-4,1.18C661.34,229.31,658,233,658,236c0,3.25,2.27,5.17,8,5.91l-.76,1.62c-6.58-1-9-3.41-9-7.53,0-3.27,3.22-7.23,7.46-9.9-2.46.16-9.39.7-12.38,1a.7.7,0,0,1-.51.37Z"/><path class="cls-3" d="M424.75,265.23l.19,1.32c-.86.3-1.76.58-2.6.86v7c0,1.69-.72,1.92-3.69,1.88a7.21,7.21,0,0,0-.49-1.46c.65,0,1.21,0,1.65,0,1,0,1.07,0,1.07-.46V267.9l-2.39.74a.48.48,0,0,1-.32.37l-.56-1.78c.9-.23,2-.53,3.27-.88v-5.28h-3V259.6h3v-4.84l1.9.12c0,.19-.14.28-.44.32v4.4h2.8v1.46h-2.8v4.87Zm14.32,4.52h-5.35a14.73,14.73,0,0,0,5.68,4.2,7.65,7.65,0,0,0-1.07,1.23,17,17,0,0,1-5.89-4.94v6H431v-5.93a16,16,0,0,1-5.84,4.94,5.73,5.73,0,0,0-1-1.21,15.12,15.12,0,0,0,5.66-4.31h-5.19v-1.37H431v-1.95l1.95.12c0,.16-.16.28-.46.32v1.51h6.63Zm-8-8.41v5.1h-5.79v-5.1Zm-1.32,3.92v-2.71h-3.2v2.71Zm6.14-9.87v4.82h-8.18v-4.82ZM434.41,259v-2.41h-5.28V259Zm-1.88,7.44v-5.1h6v5.1Zm1.27-3.89v2.71h3.38v-2.71Z"/><path class="cls-3" d="M444.31,263a25,25,0,0,1-3,4,13,13,0,0,0-.83-1.46,29.48,29.48,0,0,0,6-10.57l1.9.63c-.09.16-.25.23-.53.23a42,42,0,0,1-2.2,4.89l.65.19c0,.16-.16.25-.44.3v15.14h-1.55Zm18.24-2.78h-7.44v3.57H462v1.46h-6.88V269h7.21v1.48h-7.21v5.82h-1.58V260.21h-2.16a24.44,24.44,0,0,1-3.27,5.24,10.46,10.46,0,0,0-1.18-1.07,27.5,27.5,0,0,0,4.77-9.32l2,.58a.57.57,0,0,1-.56.25c-.32.93-.67,1.88-1.07,2.8h10.48Z"/><path class="cls-3" d="M471.66,255.76c0,.28-.25.44-.72.51-.19,2.69-.42,8.83-.42,12.26s1.72,5.12,4.64,5.12,5.7-1.41,8.34-4.4a9.17,9.17,0,0,0,1,1.37c-2.71,3.08-6,4.71-9.41,4.71-4.22,0-6.37-2.43-6.37-6.81,0-2.92.21-10.11.37-13Z"/><path class="cls-3" d="M488.33,257.89c1.74-.07,16-1.09,19-1.11l0,1.74c-.3,0-.58,0-.86,0a6.68,6.68,0,0,0-4,1.18c-3.48,2.09-6.84,5.82-6.84,8.81,0,3.24,2.27,5.17,8,5.91L503,276c-6.58-1-9-3.41-9-7.53,0-3.27,3.22-7.23,7.46-9.9-2.46.16-9.39.7-12.38,1a.7.7,0,0,1-.51.37Z"/><path class="cls-3" d="M525,276.11a70.33,70.33,0,0,0-9.09-8.62c-1.16-.93-1.58-1.58-1.58-2.41a3,3,0,0,1,1.23-2.11c2.11-1.95,6.07-5.7,8.3-8l2,1.3a.68.68,0,0,1-.51.23,1.15,1.15,0,0,1-.28,0c-2.32,2.23-5.93,5.38-7.83,7.16-.56.53-1,1-1,1.37s.42.86,1.23,1.46a77.19,77.19,0,0,1,9.16,8.41Z"/><path class="cls-3" d="M547.92,259.83a29,29,0,0,1-7.12,1.32,61.15,61.15,0,0,1-4.24,14.49L534.9,275a49.6,49.6,0,0,0,4.19-13.79c-.46,0-3.57,0-4.26,0l0-1.58c.37,0,.86,0,1.39,0,.21,0,2.53,0,3.13,0,.23-1.48.46-3.11.6-4.52l2.39.23c0,.25-.35.44-.67.46-.14,1-.37,2.27-.58,3.69a26.85,26.85,0,0,0,6.49-1.3Zm6.19,15.32c-.9.07-1.88.12-2.83.12a20.76,20.76,0,0,1-4.82-.46,3.22,3.22,0,0,1-2.57-3.2,5.59,5.59,0,0,1,1.44-3.36l1.39.6a4.26,4.26,0,0,0-1.21,2.57c0,1.83,1.76,2.25,5.54,2.25,1,0,2.09,0,3-.14ZM545,264.1a27.68,27.68,0,0,1,8.41-1.18v1.58a26.19,26.19,0,0,0-8,1Zm4.08-8a17.37,17.37,0,0,1,3.22,3.15l-.86.74a16.23,16.23,0,0,0-3.13-3.18Zm3-1.53a15.81,15.81,0,0,1,3.2,3.13l-.86.74a18,18,0,0,0-3.11-3.15Z"/><path class="cls-3" d="M576.92,260.09a45,45,0,0,1-7.72,1.27c.9,3.15,1.88,5,4.38,6.12l-1.14,1.41c-1.07-.81-2.16-1.44-5.17-1.6l-.28-1.37a22.55,22.55,0,0,1,2.57.35,12.57,12.57,0,0,1-2.06-4.8c-1,.09-2.46.14-3.85.14s-4,0-5.45-.07V260c1.39.07,3.36.07,5.47.07,1.18,0,2.53,0,3.45-.12-.28-1.25-.53-3-.81-4.75l2.48,0c0,.28-.23.44-.6.53.14,1.32.37,2.78.63,4.06a39.39,39.39,0,0,0,7.72-1.37Zm-4.15,15.25c-1.11,0-2.29.07-4.31.07-4.84,0-8.27-1.48-8.27-4.59a5.75,5.75,0,0,1,2.09-3.89l1.25,1a4.07,4.07,0,0,0-1.67,2.85c0,2.29,3,3,6.65,3,2,0,3.2,0,4.38-.12Z"/><path class="cls-3" d="M583.92,257.89c0,.21-.3.35-.63.37a38.1,38.1,0,0,0-.44,5.77c0,.86,0,1.69.09,2.43.28,3.94,1.88,6.33,3.66,6.3.93,0,2.13-2.36,3-5a8,8,0,0,0,1.34,1c-1.07,3.13-2.41,5.68-4.33,5.73-2.94,0-5-3.52-5.31-8-.07-.88-.09-1.85-.09-2.9a55.37,55.37,0,0,1,.35-6.23Zm15.37,10.78a11.56,11.56,0,0,0-5.84-8.72l1-1.25a12.73,12.73,0,0,1,6.54,9.43Z"/><path class="cls-3" d="M609.63,273a3.25,3.25,0,1,1-3.25-3.24A3.25,3.25,0,0,1,609.63,273Zm-.83,0a2.4,2.4,0,1,0-2.41,2.39A2.39,2.39,0,0,0,608.79,273Z"/><path class="cls-4" d="M314.1,484.51a5.62,5.62,0,0,1-5.34,4.06H89.63a5.62,5.62,0,0,1-5.34-4.06L58.6,376.57a3.74,3.74,0,0,1,3.78-4.76H336a3.74,3.74,0,0,1,3.78,4.76Z"/><path class="cls-4" d="M350.71,309.19,315.26,201.11h0a23.6,23.6,0,0,1-2.19-10.68L323.18,49.12l1.51-22.95c.56-8.46-4.69-15.39-11.69-15.39H85.39c-7,0-12.25,6.93-11.69,15.39L85.31,190.44a23.6,23.6,0,0,1-2.19,10.67L47.68,309.19a16.07,16.07,0,0,0-1.14,9.6L56.44,367a6.43,6.43,0,0,0,5.93,4.78H336a6.43,6.43,0,0,0,5.93-4.78l9.9-48.23A16.07,16.07,0,0,0,350.71,309.19Z"/><polygon class="cls-5" points="280.09 151.98 118.3 151.98 113.27 51.1 285.12 51.1 280.09 151.98"/><path class="cls-4" d="M220.48,409.25l-2.82,4.36v12.45s-1.09,10.77-8.33,17.72c-6.83,6.56-18.92,12.79-33.71,6.25S158.81,430,158.81,426.38s1.56-21.48,2.34-22.73a10.07,10.07,0,0,1,7.16-3.74c3.43-.16,41.1,0,41.1,0s4.81-.24,6.23,1.4A47.2,47.2,0,0,1,220.48,409.25Z"/><polygon class="cls-4" points="200.03 400.08 200.03 417.27 203.53 411.08 200.03 400.08"/><path class="cls-4" d="M182.48,451.32s-.08-.78-.08-1.83a6.45,6.45,0,0,0-2.45-4c-1.28-.93-4.79-3.27-6-5s-.7-5.14-.7-5.14l.7-9.08s0-2.48,3.81-2.6,22.7,0,22.7,0,3.74-.23,4.09,2.1a95.59,95.59,0,0,1,.58,12.38c-.23,1.28-2.45,4-3.85,5.16s-4.44,2-5,2.89-.68,4.52-.68,4.52"/><path class="cls-4" d="M163.83,404.07s4.76,6.51,6.31,8.87a67.32,67.32,0,0,1,5.29,10.12"/><path class="cls-4" d="M203.25,423.65a85.46,85.46,0,0,0,7.87-8"/><polyline class="cls-4" points="205.23 399.89 205.23 410.96 216.49 410.96 220.48 409.25"/><path class="cls-4" d="M150.79,436.65l-9,.44s-4.75,0-5.84-1.38S131,403,131,403a2.53,2.53,0,0,1,2.41-3.18c3.11-.4,41.57-.79,41.57-.79s1.56.08,2.1-.62-.31-2.8,1.48-3.27,19.58-.7,19.58-.7a2,2,0,0,1,1.87,1.25c.43,1.25.27,2.1.82,2.41s.67,1.09,4.38.93,16.21-.3,16.21-.3,2.41-.09,2.41,1.78-.58,15.92-.58,15.92"/><path class="cls-4" d="M181.41,394.9c.09.06,3.39,3.07,6.39,3.33A8.63,8.63,0,0,0,194,397a13.73,13.73,0,0,0,3-2.47"/><path class="cls-4" d="M132.64,415.42s6.09-.37,9.59,1.79a26.24,26.24,0,0,1,9.11,10.74c2.34,4.73,5,11.07,7.47,14.66,2.37,3.41,8.85,12.86,29.66,13.79,19.56.87,32.12-15.11,33.76-19.42"/><path class="cls-4" d="M161.15,403.44A54.26,54.26,0,0,1,145,412.86c-9.57,3.5-12.4,2.36-12.4,2.36"/><path class="cls-4" d="M193.61,282v13.7a3.28,3.28,0,0,0,2.34,1.75c1.63.23,31.64,0,31.64,0s1.63-.58,1.75-1.4-.7-14.13-.7-14.13a1.94,1.94,0,0,0-1.87-1.52c-1.63-.12-29.89,0-29.89,0s-2.88-.12-3.23,1.45A.67.67,0,0,0,193.61,282Z"/><line class="cls-4" x1="194.11" y1="281.41" x2="202.86" y2="289.93"/><line class="cls-4" x1="219.76" y1="289.98" x2="227.99" y2="281.17"/><line class="cls-4" x1="194.25" y1="296.33" x2="201.85" y2="294.08"/><line class="cls-4" x1="220.73" y1="294.04" x2="228.51" y2="296.95"/><path class="cls-6" d="M202.52,291.2H220.2l.27-1.55a1.11,1.11,0,0,0-1.14-1.15c-1.2-.08-16.2,0-16.2,0s-.79.07-.88.77A6.37,6.37,0,0,0,202.52,291.2Z"/><path class="cls-6" d="M202.1,293h18.36v1.36s0,.61-.35.61H202.54s-.35.06-.39-.24S202.1,293,202.1,293Z"/><path class="cls-4" d="M103.47,259.52l-2.92,13s-1.05,2.1,1.46,2.34,57.39,0,57.39,0a3,3,0,0,0,3-2.45c.47-2.57.93-12.84.93-12.84a1.53,1.53,0,0,0-1.4-2c-1.87-.23-54.53,0-54.53,0S103.93,257.45,103.47,259.52Z"/><path class="cls-4" d="M108.37,261.66l-2.1,8.87s-.31,1,.39,1.17,50.67-.31,50.67-.31a1.24,1.24,0,0,0,1-1.09c.08-.93.43-8.33.43-8.33a1,1,0,0,0-1-1.32l-48,.16A1.11,1.11,0,0,0,108.37,261.66Z"/><line class="cls-4" x1="101.68" y1="268.78" x2="106.18" y2="268.78"/><polyline class="cls-4" points="108.99 261.23 111.95 266.51 158.46 265.83"/><line class="cls-4" x1="160.01" y1="268.63" x2="162.67" y2="268.63"/><path class="cls-4" d="M111.64,266.91"/><line class="cls-4" x1="111.94" y1="266.63" x2="110.73" y2="271.16"/><path class="cls-4" d="M188.59,219l-1.28,38.43s-.7,4.19,4.2,4.77,38.18.58,38.18.58,2.57.47,3.5-2.8-2.57-40.17-2.57-40.17-.82-4-3.62-4.09-34.44,0-34.44,0S188.67,216.54,188.59,219Z"/><path class="cls-4" d="M195.32,224.14l-.54,26.93s-.39,1.71,1.71,1.95S224,253,224,253s1.4-.31,1.63-1.17-1.25-27.71-1.25-27.71a1.31,1.31,0,0,0-1.4-1.25c-1.4-.08-26.15,0-26.15,0S195.35,222.74,195.32,224.14Z"/><circle class="cls-6" cx="224.6" cy="258.12" r="0.93"/><circle class="cls-6" cx="196.25" cy="258.12" r="0.93"/><rect class="cls-6" x="198.55" y="257.19" width="0.62" height="1.48"/><rect class="cls-6" x="199.69" y="257.19" width="0.62" height="1.48"/><rect class="cls-6" x="200.83" y="257.19" width="0.62" height="1.48"/><rect class="cls-6" x="201.97" y="257.19" width="0.62" height="1.48"/><rect class="cls-6" x="203.1" y="257.19" width="0.62" height="1.48"/><rect class="cls-6" x="204.24" y="257.19" width="0.62" height="1.48"/><rect class="cls-6" x="205.38" y="257.19" width="0.62" height="1.48"/><rect class="cls-6" x="206.52" y="257.19" width="0.62" height="1.48"/><rect class="cls-6" x="207.66" y="257.19" width="0.62" height="1.48"/><rect class="cls-6" x="208.8" y="257.19" width="0.62" height="1.48"/><rect class="cls-6" x="209.93" y="257.19" width="0.62" height="1.48"/><rect class="cls-6" x="211.07" y="257.19" width="0.62" height="1.48"/><rect class="cls-6" x="212.21" y="257.19" width="0.62" height="1.48"/><rect class="cls-6" x="213.35" y="257.19" width="0.62" height="1.48"/><rect class="cls-6" x="214.49" y="257.19" width="0.62" height="1.48"/><rect class="cls-6" x="215.63" y="257.19" width="0.62" height="1.48"/><rect class="cls-6" x="216.77" y="257.19" width="0.62" height="1.48"/><rect class="cls-6" x="217.9" y="257.19" width="0.62" height="1.48"/><rect class="cls-6" x="219.04" y="257.19" width="0.62" height="1.48"/><rect class="cls-6" x="220.18" y="257.19" width="0.62" height="1.48"/><rect class="cls-6" x="221.32" y="257.19" width="0.62" height="1.48"/><circle class="cls-6" cx="197" cy="218.68" r="0.73"/><circle class="cls-6" cx="222.54" cy="218.68" r="0.73"/><rect class="cls-6" x="198.94" y="218.23" width="0.64" height="0.91"/><rect class="cls-6" x="199.93" y="218.23" width="0.64" height="0.91"/><rect class="cls-6" x="200.92" y="218.23" width="0.64" height="0.91"/><rect class="cls-6" x="201.92" y="218.23" width="0.64" height="0.91"/><rect class="cls-6" x="202.91" y="218.23" width="0.64" height="0.91"/><rect class="cls-6" x="203.9" y="218.23" width="0.64" height="0.91"/><rect class="cls-6" x="204.89" y="218.23" width="0.64" height="0.91"/><rect class="cls-6" x="205.89" y="218.23" width="0.64" height="0.91"/><rect class="cls-6" x="206.88" y="218.23" width="0.64" height="0.91"/><rect class="cls-6" x="207.87" y="218.23" width="0.64" height="0.91"/><rect class="cls-6" x="208.86" y="218.23" width="0.64" height="0.91"/><rect class="cls-6" x="209.86" y="218.23" width="0.64" height="0.91"/><rect class="cls-6" x="210.85" y="218.23" width="0.64" height="0.91"/><rect class="cls-6" x="211.84" y="218.23" width="0.64" height="0.91"/><rect class="cls-6" x="212.83" y="218.23" width="0.64" height="0.91"/><rect class="cls-6" x="213.83" y="218.23" width="0.64" height="0.91"/><rect class="cls-6" x="214.82" y="218.23" width="0.64" height="0.91"/><rect class="cls-6" x="215.81" y="218.23" width="0.64" height="0.91"/><rect class="cls-6" x="216.8" y="218.23" width="0.64" height="0.91"/><rect class="cls-6" x="217.8" y="218.23" width="0.64" height="0.91"/><rect class="cls-6" x="218.79" y="218.23" width="0.64" height="0.91"/><rect class="cls-6" x="219.78" y="218.23" width="0.64" height="0.91"/><line class="cls-4" x1="308.67" y1="196.48" x2="89.72" y2="196.48"/><line class="cls-4" x1="140.2" y1="188.07" x2="85.54" y2="188.07"/><line class="cls-4" x1="312.84" y1="188.07" x2="258.18" y2="188.07"/><line class="cls-4" x1="346.23" y1="318.49" x2="52.15" y2="318.49"/><path class="cls-4" d="M309.8,277.95l8.62,0s1.61,0,2-.58c.64-1,.23-2-.47-4.32s-16.81-59.08-16.81-59.08-.23-2-1.52-2.57a11.11,11.11,0,0,0-3.85-.47H255s-2.81,0-2.57,1.56l9.34,61.69s.37,3.49,2.34,3.79c.8.12,5.75.07,12.64.08"/><path class="cls-4" d="M278,271s.21,1.47.42,3,.41,3.15.38,3.43a1.63,1.63,0,0,1-.4,1.11,4.85,4.85,0,0,0-.4.43l30.67.12a1.08,1.08,0,0,0,.51-.58c.12-.39-1.21-7.51-1.21-7.51Z"/><line class="cls-4" x1="308.23" y1="274.43" x2="278.73" y2="274.43"/><path class="cls-4" d="M257.67,215.7s7.47,50.44,7.94,50.75,46.55,0,46.55,0a1.39,1.39,0,0,0,.78-1.52c-.23-1.05-13.19-49.23-13.19-49.23a1.77,1.77,0,0,0-1.62-1.32c-1.28-.11-39,0-39,0S257.44,214.15,257.67,215.7Z"/><path class="cls-6" d="M297.53,219l11,42.91H268.8L262,219h35.57m.31-1H261.49a.6.6,0,0,0-.59.7l7,43.71a.6.6,0,0,0,.59.51H309a.6.6,0,0,0,.58-.75l-11.21-43.71a.6.6,0,0,0-.58-.45Z"/><polyline class="cls-4" points="320.82 277.04 318.94 290.8 260.04 290.8 262.4 276.6"/><polyline class="cls-4" points="262.4 276.6 260.04 290.8 250.58 228.27 252.46 212.42"/><polygon class="cls-4" points="238.09 403.79 232.59 403.79 233.93 385.26 239.62 385.26 238.09 403.79"/><polygon class="cls-4" points="288.77 403.79 283.27 403.79 286.37 385.26 292.06 385.26 288.77 403.79"/><polygon class="cls-4" points="282.63 401.67 239.26 401.67 240.52 386.76 285.09 386.76 282.63 401.67"/><polygon class="cls-4" points="266.91 414.2 251.85 414.2 248.29 410.87 271.3 410.87 266.91 414.2"/><polygon class="cls-4" points="282.34 421.04 234.67 421.04 234.93 417.67 282.92 417.67 282.34 421.04"/><line class="cls-4" x1="233.33" y1="414.08" x2="285.45" y2="414.08"/><polygon class="cls-4" points="285.03 424.86 231.06 424.86 232.59 403.79 288.77 403.79 285.03 424.86"/><path class="cls-4" d="M275.31,390.71a83.75,83.75,0,0,0-12.89-.9,88.32,88.32,0,0,0-13.11.9c2.55,2.56,8.21,7.77,12,7.77S272.12,393.26,275.31,390.71Z"/><path class="cls-4" d="M251.94,393.19a95.23,95.23,0,0,1,10.13-.52,91.59,91.59,0,0,1,10,.52"/><path class="cls-4" d="M281.23,403.75a5,5,0,0,1-4.86,3.89H244a3.71,3.71,0,0,1-3.89-3.89"/><path class="cls-4" d="M161.52,451.18s5.79,9.56,28.54,9.56c20.72,0,30-13,30-13"/><path class="cls-4" d="M223.26,416.45s1.11,27.13-5.12,38.81c-6.93,13-23.36,13.77-31.93,13.22-10.07-.64-23.77-5.06-28.69-16.88-3.75-9-6.61-23.07-22.53-22.42"/></g></g></svg>