<svg xmlns="http://www.w3.org/2000/svg" viewBox="0 0 726 500"><defs><style>.cls-1,.cls-2,.cls-6{fill:none;}.cls-1{stroke:#00a0e9;stroke-width:8px;}.cls-1,.cls-2,.cls-3{stroke-linecap:round;stroke-linejoin:round;}.cls-1,.cls-5{opacity:0.7;isolation:isolate;}.cls-2,.cls-3{stroke:#727171;}.cls-3{fill:#fff;}.cls-4{fill:#727171;}.cls-5{fill:#00a0e9;}</style></defs><title>アセット 1</title><g id="レイヤー_2" data-name="レイヤー 2"><g id="レイヤー_1-2" data-name="レイヤー 1"><g id="レイヤー_2-2" data-name="レイヤー 2"><g id="レイヤー_1-2-2" data-name="レイヤー 1-2"><g id="レイヤー_2-2-2" data-name="レイヤー 2-2"><g id="レイヤー_1-2-2-2" data-name="レイヤー 1-2-2"><circle class="cls-1" cx="463" cy="247.55" r="58.5"/><path class="cls-2" d="M477.9,484.85a5.77,5.77,0,0,1-5.3,4.1H253.4a5.46,5.46,0,0,1-5.3-4.1l-25.7-107.9a3.66,3.66,0,0,1,2.45-4.56l.15,0a2.46,2.46,0,0,1,1.2-.1H499.8a3.72,3.72,0,0,1,3.9,3.53v.07a4.87,4.87,0,0,1-.1,1.2Z"/><path class="cls-2" d="M514.5,309.55l-35.4-108.1h0a23.11,23.11,0,0,1-2.2-10.7L487,49.45l1.5-23c.6-8.5-4.7-15.4-11.7-15.4H249.2c-7,0-12.2,6.9-11.7,15.4l11.6,164.3a23.37,23.37,0,0,1-2.2,10.7l-35.4,108.1a15.15,15.15,0,0,0-1.1,9.6l9.9,48.2a6.4,6.4,0,0,0,5.9,4.8H499.8a6.4,6.4,0,0,0,5.9-4.8l9.9-48.2A15.78,15.78,0,0,0,514.5,309.55Z"/><polygon class="cls-3" points="443.9 152.35 282.1 152.35 277.1 51.45 448.9 51.45 443.9 152.35"/><path class="cls-2" d="M384.3,409.65l-2.8,4.4v12.5s-1.1,10.8-8.3,17.7c-6.8,6.6-18.9,12.8-33.7,6.2s-16.8-20-16.8-23.6,1.6-21.5,2.3-22.7a10.19,10.19,0,0,1,7.2-3.7c3.4-.2,41.1,0,41.1,0s4.8-.2,6.2,1.4A46.49,46.49,0,0,1,384.3,409.65Z"/><polygon class="cls-2" points="363.8 400.45 363.8 417.65 367.3 411.45 363.8 400.45"/><path class="cls-2" d="M346.3,451.65a16.17,16.17,0,0,1-.1-1.8,6.92,6.92,0,0,0-2.4-4c-1.3-.9-4.8-3.3-6-5s-.7-5.1-.7-5.1l.7-9.1s0-2.5,3.8-2.6,22.7,0,22.7,0,3.7-.2,4.1,2.1a85.15,85.15,0,0,1,.6,12.4c-.2,1.3-2.4,4-3.9,5.2s-4.4,2-5,2.9-.7,4.5-.7,4.5"/><path class="cls-2" d="M327.56,404.45s4.8,6.5,6.3,8.9a74.6,74.6,0,0,1,5.3,10.1"/><path class="cls-2" d="M367,424a99.4,99.4,0,0,0,7.9-8"/><polyline class="cls-2" points="369 400.25 369 411.35 380.3 411.35 384.3 409.65"/><path class="cls-2" d="M314.56,437l-9,.4s-4.8,0-5.8-1.4-5-32.7-5-32.7a2.47,2.47,0,0,1,1.67-3.07l.13,0a1.27,1.27,0,0,1,.6-.1c3.1-.4,41.6-.8,41.6-.8s1.6.1,2.1-.6-.3-2.8,1.5-3.3,19.6-.7,19.6-.7a2.12,2.12,0,0,1,1.9,1.2c.4,1.2.3,2.1.8,2.4s.7,1.1,4.4.9,16.2-.3,16.2-.3,2.4-.1,2.4,1.8-.6,15.9-.6,15.9"/><path class="cls-2" d="M345.2,395.25c.1.1,3.4,3.1,6.4,3.3a9,9,0,0,0,6.2-1.2,14.25,14.25,0,0,0,3-2.5"/><path class="cls-2" d="M296.4,415.75s6.1-.4,9.6,1.8a26.17,26.17,0,0,1,9.1,10.7c2.3,4.7,5,11.1,7.5,14.7,2.4,3.4,8.9,12.9,29.7,13.8,19.6.9,32.1-15.1,33.8-19.4"/><path class="cls-2" d="M324.9,403.75a54.41,54.41,0,0,1-16.1,9.4c-9.6,3.5-12.4,2.4-12.4,2.4"/><path class="cls-2" d="M357.4,282.35V296a3.47,3.47,0,0,0,2.3,1.8c1.6.2,31.6,0,31.6,0s1.6-.6,1.8-1.4-.7-14.1-.7-14.1a1.93,1.93,0,0,0-1.9-1.5c-1.6-.1-29.9,0-29.9,0s-2.9-.1-3.2,1.5Z"/><line class="cls-2" x1="357.9" y1="281.75" x2="366.7" y2="290.25"/><line class="cls-2" x1="383.6" y1="290.35" x2="391.8" y2="281.55"/><line class="cls-2" x1="358" y1="296.65" x2="365.7" y2="294.45"/><line class="cls-2" x1="384.5" y1="294.35" x2="392.3" y2="297.35"/><path class="cls-4" d="M366.3,291.55H384l.3-1.5a1.11,1.11,0,0,0-1.1-1.1h-.1c-1.2-.1-16.2,0-16.2,0s-.8.1-.9.8A6.15,6.15,0,0,0,366.3,291.55Z"/><path class="cls-4" d="M365.9,293.35h18.4v1.4s0,.6-.4.6H366.3s-.4.1-.4-.2Z"/><path class="cls-2" d="M267.3,259.85l-2.9,13s-1.1,2.1,1.5,2.3,57.4,0,57.4,0a3,3,0,0,0,3-2.5c.5-2.6.9-12.8.9-12.8a1.46,1.46,0,0,0-.89-1.86l-.11,0c-.1,0-.3-.1-.4-.1-1.9-.2-54.5,0-54.5,0S267.7,257.85,267.3,259.85Z"/><path class="cls-2" d="M272.2,262l-2.1,8.9s-.3,1,.4,1.2,50.7-.3,50.7-.3a1.28,1.28,0,0,0,1-1.1c.1-.9.4-8.3.4-8.3a1,1,0,0,0-.58-1.29h0c-.1,0-.2-.1-.4-.1l-48,.2C273,260.95,272.4,261.35,272.2,262Z"/><line class="cls-2" x1="265.5" y1="269.15" x2="270" y2="269.15"/><polyline class="cls-2" points="272.8 261.55 275.7 266.85 322.3 266.15"/><line class="cls-2" x1="323.8" y1="268.95" x2="326.5" y2="268.95"/><path class="cls-2" d="M275.4,267.25"/><line class="cls-2" x1="275.7" y1="266.95" x2="274.5" y2="271.55"/><path class="cls-2" d="M352.4,219.35l-1.3,38.4s-.7,4.2,4.2,4.8,38.2.6,38.2.6,2.6.5,3.5-2.8-2.6-40.2-2.6-40.2-.8-4-3.6-4.1-34.4,0-34.4,0S352.5,216.85,352.4,219.35Z"/><path class="cls-2" d="M359.1,224.45l-.5,26.9s-.4,1.7,1.7,1.9,27.5,0,27.5,0,1.4-.3,1.6-1.2-1.2-27.7-1.2-27.7a1.35,1.35,0,0,0-1.4-1.3h0c-1.4-.1-26.1,0-26.1,0A1.57,1.57,0,0,0,359.1,224.45Z"/><circle class="cls-4" cx="388.4" cy="258.45" r="0.9"/><circle class="cls-4" cx="360" cy="258.45" r="0.9"/><rect class="cls-4" x="362.4" y="257.55" width="0.6" height="1.5"/><rect class="cls-4" x="363.5" y="257.55" width="0.6" height="1.5"/><rect class="cls-4" x="364.6" y="257.55" width="0.6" height="1.5"/><rect class="cls-4" x="365.8" y="257.55" width="0.6" height="1.5"/><rect class="cls-4" x="366.9" y="257.55" width="0.6" height="1.5"/><rect class="cls-4" x="368" y="257.55" width="0.6" height="1.5"/><rect class="cls-4" x="369.2" y="257.55" width="0.6" height="1.5"/><rect class="cls-4" x="370.3" y="257.55" width="0.6" height="1.5"/><rect class="cls-4" x="371.5" y="257.55" width="0.6" height="1.5"/><rect class="cls-4" x="372.6" y="257.55" width="0.6" height="1.5"/><rect class="cls-4" x="373.7" y="257.55" width="0.6" height="1.5"/><rect class="cls-4" x="374.9" y="257.55" width="0.6" height="1.5"/><rect class="cls-4" x="376" y="257.55" width="0.6" height="1.5"/><rect class="cls-4" x="377.2" y="257.55" width="0.6" height="1.5"/><rect class="cls-4" x="378.3" y="257.55" width="0.6" height="1.5"/><rect class="cls-4" x="379.4" y="257.55" width="0.6" height="1.5"/><rect class="cls-4" x="380.6" y="257.55" width="0.6" height="1.5"/><rect class="cls-4" x="381.7" y="257.55" width="0.6" height="1.5"/><rect class="cls-4" x="382.8" y="257.55" width="0.6" height="1.5"/><rect class="cls-4" x="384" y="257.55" width="0.6" height="1.5"/><rect class="cls-4" x="385.1" y="257.55" width="0.6" height="1.5"/><circle class="cls-4" cx="360.8" cy="219.05" r="0.7"/><circle class="cls-4" cx="386.3" cy="219.05" r="0.7"/><rect class="cls-4" x="362.7" y="218.55" width="0.6" height="0.9"/><rect class="cls-4" x="363.7" y="218.55" width="0.6" height="0.9"/><rect class="cls-4" x="364.7" y="218.55" width="0.6" height="0.9"/><rect class="cls-4" x="365.7" y="218.55" width="0.6" height="0.9"/><rect class="cls-4" x="366.7" y="218.55" width="0.6" height="0.9"/><rect class="cls-4" x="367.7" y="218.55" width="0.6" height="0.9"/><rect class="cls-4" x="368.7" y="218.55" width="0.6" height="0.9"/><rect class="cls-4" x="369.7" y="218.55" width="0.6" height="0.9"/><rect class="cls-4" x="370.7" y="218.55" width="0.6" height="0.9"/><rect class="cls-4" x="371.7" y="218.55" width="0.6" height="0.9"/><rect class="cls-4" x="372.7" y="218.55" width="0.6" height="0.9"/><rect class="cls-4" x="373.7" y="218.55" width="0.6" height="0.9"/><rect class="cls-4" x="374.7" y="218.55" width="0.6" height="0.9"/><rect class="cls-4" x="375.6" y="218.55" width="0.6" height="0.9"/><rect class="cls-4" x="376.6" y="218.55" width="0.6" height="0.9"/><rect class="cls-4" x="377.6" y="218.55" width="0.6" height="0.9"/><rect class="cls-4" x="378.6" y="218.55" width="0.6" height="0.9"/><rect class="cls-4" x="379.6" y="218.55" width="0.6" height="0.9"/><rect class="cls-4" x="380.6" y="218.55" width="0.6" height="0.9"/><rect class="cls-4" x="381.6" y="218.55" width="0.6" height="0.9"/><rect class="cls-4" x="382.6" y="218.55" width="0.6" height="0.9"/><rect class="cls-4" x="383.6" y="218.55" width="0.6" height="0.9"/><line class="cls-2" x1="472.5" y1="196.85" x2="253.5" y2="196.85"/><line class="cls-2" x1="304" y1="188.45" x2="249.3" y2="188.45"/><line class="cls-2" x1="476.6" y1="188.45" x2="422" y2="188.45"/><line class="cls-2" x1="510" y1="318.85" x2="216" y2="318.85"/><path class="cls-2" d="M473.56,278.35h8.6s1.6,0,2-.6c.6-1,.2-2-.5-4.3s-16.8-59.1-16.8-59.1-.2-2-1.5-2.6a12.28,12.28,0,0,0-3.9-.5h-42.7s-2.8,0-2.6,1.6l9.3,61.7s.4,3.5,2.3,3.8c.8.1,5.8.1,12.6.1"/><path class="cls-2" d="M441.8,271.35l.4,3c.2,1.5.4,3.1.4,3.4a1.5,1.5,0,0,1-.4,1.1l-.4.4,30.7.1a1,1,0,0,0,.5-.6c.1-.4-1.2-7.5-1.2-7.5Z"/><line class="cls-2" x1="472" y1="274.75" x2="442.5" y2="274.75"/><path class="cls-2" d="M421.5,216s7.5,50.4,7.9,50.8,46.5,0,46.5,0a1.41,1.41,0,0,0,.8-1.5c-.2-1-13.2-49.2-13.2-49.2a1.81,1.81,0,0,0-1.6-1.3c-1.3-.1-39,0-39,0S421.2,214.55,421.5,216Z"/><path class="cls-4" d="M461.3,219.35l11,42.9H432.56l-6.8-42.9h35.5m.4-1h-36.4a.65.65,0,0,0-.6.6v.1l7,43.7a.56.56,0,0,0,.6.5h40.5a.65.65,0,0,0,.6-.6v-.1l-11.2-43.7c-.1-.3-.3-.5-.5-.5Z"/><polyline class="cls-2" points="484.6 277.35 482.7 291.15 423.8 291.15 426.2 276.95"/><polyline class="cls-2" points="426.2 276.95 423.8 291.15 414.4 228.65 416.3 212.75"/><polygon class="cls-2" points="401.9 404.15 396.4 404.15 397.7 385.65 403.4 385.65 401.9 404.15"/><polygon class="cls-2" points="452.6 404.15 447.1 404.15 450.2 385.65 455.9 385.65 452.6 404.15"/><polygon class="cls-2" points="446.4 402.05 403.1 402.05 404.3 387.15 448.9 387.15 446.4 402.05"/><polygon class="cls-2" points="430.7 414.55 415.7 414.55 412.1 411.25 435.1 411.25 430.7 414.55"/><polygon class="cls-2" points="446.1 421.35 398.5 421.35 398.7 418.05 446.7 418.05 446.1 421.35"/><line class="cls-2" x1="397.1" y1="414.45" x2="449.3" y2="414.45"/><polygon class="cls-2" points="448.8 425.25 394.9 425.25 396.4 404.15 452.6 404.15 448.8 425.25"/><path class="cls-2" d="M439.1,391a93.24,93.24,0,0,0-12.9-.9,95,95,0,0,0-13.1.9c2.6,2.6,8.2,7.8,12,7.8S435.9,393.65,439.1,391Z"/><path class="cls-2" d="M415.7,393.55a85.4,85.4,0,0,1,10.1-.5c3.3,0,6.7.2,10,.5"/><path class="cls-2" d="M445,404.15a4.94,4.94,0,0,1-4.9,3.9H407.8a3.76,3.76,0,0,1-3.9-3.5v-.4"/><path class="cls-2" d="M325.3,451.55s5.8,9.6,28.5,9.6c20.7,0,30-13,30-13"/><path class="cls-2" d="M387.1,416.85s1.1,27.1-5.1,38.8c-6.9,13-23.4,13.8-31.9,13.2-10.1-.6-23.8-5.1-28.7-16.9-3.8-9-6.6-23.1-22.5-22.4"/></g></g><polygon class="cls-5" points="554.89 215 532.84 247.55 554.89 280.1 554.89 266.87 569.8 266.87 569.8 228.23 554.89 228.23 554.89 215"/></g></g><rect class="cls-6" width="726" height="500"/></g></g></svg>