<svg xmlns="http://www.w3.org/2000/svg" viewBox="0 0 38 39.9"><defs><style>.cls-1{fill:#fff;}</style></defs><title>アセット 1</title><g id="レイヤー_2" data-name="レイヤー 2"><g id="レイヤー_1-2" data-name="レイヤー 1"><polygon class="cls-1" points="31 35.1 26.1 22.3 12.6 22.3 12.6 7 14 7 14 20.9 27 20.9 31.8 33.3 36 31.7 36.5 33 31 35.1"/><polygon class="cls-1" points="30.4 36.6 25.3 23.4 11.5 23.4 11.5 5.8 15.2 5.8 15.2 19.7 27.8 19.7 32.5 31.8 36.7 30.2 38 33.7 30.4 36.6"/><rect class="cls-1" x="13.2" y="14.9" width="11.4" height="1.4"/><rect class="cls-1" x="12.1" y="13.7" width="13.6" height="3.7"/><circle class="cls-1" cx="15.5" cy="5.1" r="3.8"/><path class="cls-1" d="M15.5,10a5,5,0,0,1-5-5,5,5,0,0,1,10,0A5,5,0,0,1,15.5,10Zm0-7.6a2.7,2.7,0,1,0,2.7,2.7A2.69,2.69,0,0,0,15.5,2.4Z"/><path class="cls-1" d="M13.8,38.8A12.68,12.68,0,0,1,9.2,14.3l.5,1.3a11.28,11.28,0,0,0,4.1,21.8A11.24,11.24,0,0,0,23.4,32l1.2.7A12.5,12.5,0,0,1,13.8,38.8Z"/><path class="cls-1" d="M13.8,39.9A13.8,13.8,0,0,1,8.9,13.2l1.1-.4,1.3,3.4-1.1.4a10.08,10.08,0,0,0,3.6,19.5,10,10,0,0,0,8.6-4.8l.6-1,3.1,1.9-.6,1A13.12,13.12,0,0,1,13.8,39.9Z"/></g></g></svg>