<?xml version="1.0" encoding="utf-8"?>
<!-- Generator: Adobe Illustrator 25.0.1, SVG Export Plug-In . SVG Version: 6.00 Build 0)  -->
<svg version="1.1" id="レイヤー_1" xmlns="http://www.w3.org/2000/svg" xmlns:xlink="http://www.w3.org/1999/xlink" x="0px"
	 y="0px" width="150px" height="100px" viewBox="0 0 150 100" style="enable-background:new 0 0 150 100;" xml:space="preserve">
<style type="text/css">
	.st0{fill:none;stroke:#333333;stroke-width:2;stroke-miterlimit:10;}
</style>
<g>
	<g>
		<path class="st0" d="M125.9,6.1H28c-3.3,0-6,2.7-6,6v80.6c0,3.3,2.7,6,6,6h97.9c3.3,0,6-2.7,6-6V12.1
			C131.9,8.8,129.2,6.1,125.9,6.1z"/>
		<g>
			<circle cx="40.2" cy="34.9" r="2.7"/>
			<circle cx="58.7" cy="34.9" r="2.7"/>
			<circle cx="77.2" cy="34.9" r="2.7"/>
			<circle cx="95.7" cy="34.9" r="2.7"/>
			<circle cx="114.1" cy="34.9" r="2.7"/>
			<circle cx="40.2" cy="48.9" r="2.7"/>
			<circle cx="58.7" cy="48.9" r="2.7"/>
			<circle cx="77.2" cy="48.9" r="2.7"/>
			<circle cx="95.7" cy="48.9" r="2.7"/>
			<circle cx="114.1" cy="48.9" r="2.7"/>
			<circle cx="40.2" cy="62.9" r="2.7"/>
			<circle cx="58.7" cy="62.9" r="2.7"/>
			<circle cx="77.2" cy="62.9" r="2.7"/>
			<circle cx="95.7" cy="62.9" r="2.7"/>
			<circle cx="77.2" cy="77.3" r="2.7"/>
			<circle cx="95.7" cy="77.3" r="2.7"/>
			<circle cx="114.1" cy="62.9" r="2.7"/>
			<circle cx="40.2" cy="77.3" r="2.7"/>
			<circle cx="58.7" cy="77.3" r="2.7"/>
		</g>
	</g>
	<g>
		<line class="st0" x1="45" y1="12" x2="45" y2="0"/>
		<line class="st0" x1="76.8" y1="12" x2="76.8" y2="0"/>
		<line class="st0" x1="108.7" y1="12" x2="108.7" y2="0"/>
	</g>
</g>
</svg>
