<?xml version="1.0" encoding="utf-8"?>
<!-- Generator: Adobe Illustrator 25.0.0, SVG Export Plug-In . SVG Version: 6.00 Build 0)  -->
<svg version="1.1" xmlns="http://www.w3.org/2000/svg" xmlns:xlink="http://www.w3.org/1999/xlink" x="0px" y="0px" width="150px"
	 height="100px" viewBox="0 0 150 100" style="enable-background:new 0 0 150 100;" xml:space="preserve">
<style type="text/css">
	.st0{display:none;}
	.st1{display:inline;fill:none;stroke:#000000;stroke-width:1.5053;stroke-miterlimit:10;}
	.st2{fill:none;stroke:#000000;stroke-width:4;stroke-miterlimit:10;}
</style>
<g id="レイヤー_2" class="st0">
	<path class="st1" d="M-73.7-1.5c0,0-18.1-3.5-19.3,12l0,3.7l0.9,3.7l-1.1,2.1c0,0-2.5,4-2.5,6c0,2,3.7,2,3.7,2s1.2,7,2.8,9
		c1.6,2,7.5,2,11,0c3.5-2,5.5-4.2,5.5-4.2"/>
</g>
<g id="レイヤー_1">
	<line class="st2" x1="23.2" y1="3" x2="128.2" y2="3"/>
	<g>
		<rect x="58.2" y="12" class="st2" width="11" height="11"/>
		<rect x="58.2" y="33" class="st2" width="11" height="11"/>
		<rect x="82.2" y="12" class="st2" width="11" height="11"/>
		<rect x="86.2" y="16" width="3" height="3"/>
		<rect x="62.2" y="16" width="3" height="3"/>
		<rect x="62.2" y="37" width="3" height="3"/>
		<line class="st2" x1="78.2" y1="28" x2="78.2" y2="46"/>
		<line class="st2" x1="86.2" y1="28" x2="86.2" y2="46"/>
		<line class="st2" x1="93.2" y1="28" x2="93.2" y2="46"/>
	</g>
	<path class="st2" d="M44.5,3v59.3h22.3c0-0.1,0-0.2,0-0.3c0-5,4-9,9-9s9,4,9,9c0,0.1,0,0.2,0,0.3H107V3H44.5z"/>
	<polyline class="st2" points="91.4,70.4 75.8,82 60.1,70.4 	"/>
	<polyline class="st2" points="91.4,82.4 75.8,94 60.1,82.4 	"/>
</g>
</svg>
