<?xml version="1.0" encoding="utf-8"?>
<!-- Generator: Adobe Illustrator 25.0.1, SVG Export Plug-In . SVG Version: 6.00 Build 0)  -->
<svg version="1.1" id="レイヤー_1" xmlns="http://www.w3.org/2000/svg" xmlns:xlink="http://www.w3.org/1999/xlink" x="0px"
	 y="0px" width="150px" height="100px" viewBox="0 0 150 100" style="enable-background:new 0 0 150 100;" xml:space="preserve">
<style type="text/css">
	.st0{fill:none;stroke:#333333;stroke-width:2;stroke-miterlimit:10;}
</style>
<g>
	<rect x="21.1" y="1.7" class="st0" width="106.7" height="96"/>
	<line class="st0" x1="39.5" y1="1.4" x2="39.5" y2="97.9"/>
	<line class="st0" x1="110" y1="1.4" x2="110" y2="97.9"/>
	<line class="st0" x1="39.4" y1="49.7" x2="110.3" y2="49.7"/>
	<line class="st0" x1="21.1" y1="12.2" x2="39.9" y2="12.2"/>
	<line class="st0" x1="21.1" y1="23" x2="39.9" y2="23"/>
	<line class="st0" x1="21.1" y1="33.8" x2="39.9" y2="33.8"/>
	<line class="st0" x1="21.1" y1="44.5" x2="39.9" y2="44.5"/>
	<line class="st0" x1="21.1" y1="55.3" x2="39.9" y2="55.3"/>
	<line class="st0" x1="21.1" y1="66.1" x2="39.9" y2="66.1"/>
	<line class="st0" x1="21.1" y1="76.9" x2="39.9" y2="76.9"/>
	<line class="st0" x1="21.1" y1="87.7" x2="39.9" y2="87.7"/>
	<line class="st0" x1="109.2" y1="12.2" x2="128" y2="12.2"/>
	<line class="st0" x1="109.2" y1="23" x2="128" y2="23"/>
	<line class="st0" x1="109.2" y1="33.8" x2="128" y2="33.8"/>
	<line class="st0" x1="109.2" y1="44.5" x2="128" y2="44.5"/>
	<line class="st0" x1="109.2" y1="55.3" x2="128" y2="55.3"/>
	<line class="st0" x1="109.2" y1="66.1" x2="128" y2="66.1"/>
	<line class="st0" x1="109.2" y1="76.9" x2="128" y2="76.9"/>
	<line class="st0" x1="109.2" y1="87.7" x2="128" y2="87.7"/>
</g>
</svg>
