<?xml version="1.0" encoding="utf-8"?>
<!-- Generator: Adobe Illustrator 25.0.0, SVG Export Plug-In . SVG Version: 6.00 Build 0)  -->
<svg version="1.1" id="レイヤー_1" xmlns="http://www.w3.org/2000/svg" xmlns:xlink="http://www.w3.org/1999/xlink" x="0px"
	 y="0px" width="150px" height="100px" viewBox="0 0 150 100" style="enable-background:new 0 0 150 100;" xml:space="preserve">
<style type="text/css">
	.st0{display:none;}
	.st1{display:inline;fill:none;stroke:#000000;stroke-width:1.5053;stroke-miterlimit:10;}
	.st2{fill:none;stroke:#000000;stroke-width:4;stroke-miterlimit:10;}
</style>
<g id="レイヤー_2_1_" class="st0">
	<path class="st1" d="M-73.7-1.5c0,0-18.1-3.5-19.3,12v3.7l0.9,3.7l-1.1,2.1c0,0-2.5,4-2.5,6s3.7,2,3.7,2s1.2,7,2.8,9
		c1.6,2,7.5,2,11,0s5.5-4.2,5.5-4.2"/>
</g>
<g id="レイヤー_1_1_">
	<rect x="7.1" y="24" class="st2" width="119.9" height="71.6"/>
	<polyline class="st2" points="137,84.6 137,13 17.1,13 	"/>
	<polyline class="st2" points="147,74.6 147,3 27.1,3 	"/>
	<path class="st2" d="M112,36c0,0-18-5-21,13v4l2,4l-2.3,2.3L88,68h4l3,12h12l2-3"/>
	<path class="st2" d="M34.2,30.7c5.1,5.1,5.1,13.3,0,18.4s-13.3,5.1-18.4,0"/>
	<line class="st2" x1="79.1" y1="64" x2="37.1" y2="64"/>
	<line class="st2" x1="67" y1="72" x2="25" y2="72"/>
	<line class="st2" x1="57" y1="81" x2="15" y2="81"/>
	<line class="st2" x1="105" y1="80" x2="105" y2="87"/>
</g>
</svg>
