<?xml version="1.0" encoding="utf-8"?>
<!-- Generator: Adobe Illustrator 25.0.1, SVG Export Plug-In . SVG Version: 6.00 Build 0)  -->
<svg version="1.1" id="レイヤー_1" xmlns="http://www.w3.org/2000/svg" xmlns:xlink="http://www.w3.org/1999/xlink" x="0px"
	 y="0px" width="69.3px" height="42.2px" viewBox="0 0 69.3 42.2" style="enable-background:new 0 0 69.3 42.2;"
	 xml:space="preserve">
<style type="text/css">
	.st0{display:none;}
	.st1{display:inline;}
	.st2{fill:none;stroke:#0075C1;stroke-miterlimit:10;}
	.st3{fill:#0075C1;}
	.st4{font-family:'NotoSansCJKjp-Medium-83pv-RKSJ-H';}
	.st5{font-size:18.7526px;}
	.st6{fill:none;stroke:#333333;stroke-width:2;stroke-miterlimit:10;}
</style>
<g id="cash" class="st0">
	<g class="st1">
		<polyline class="st2" points="46.4,40.6 0.5,40.6 0.5,8.1 60.5,8.1 60.5,40.6 46.4,40.6 		"/>
		<polyline class="st2" points="7.5,0.8 67.5,0.8 67.5,33.3 		"/>
		<text transform="matrix(1 0 0 1 23.3924 31.5574)" class="st3 st4 st5">￥</text>
	</g>
</g>
<g id="creditcard" class="st0">
	<g class="st1">
		<path class="st2" d="M64.3,41H5c-2.5,0-4.5-2-4.5-4.5V5.3c0-2.5,2-4.5,4.5-4.5h59.2c2.5,0,4.5,2,4.5,4.5v31.1
			C68.8,39,66.8,41,64.3,41z"/>
		<line class="st2" x1="6.2" y1="29.2" x2="17.8" y2="29.2"/>
		<line class="st2" x1="21" y1="29.2" x2="32.6" y2="29.2"/>
		<line class="st2" x1="35.8" y1="29.2" x2="47.5" y2="29.2"/>
		<line class="st2" x1="50.7" y1="29.2" x2="62.3" y2="29.2"/>
		<path class="st2" d="M14.2,12.9H8.4c-1,0-1.9,0.9-1.9,1.9v5.8c0,1,0.9,1.9,1.9,1.9h5.8c1,0,1.9-0.9,1.9-1.9v-5.8
			C16.1,13.7,15.3,12.9,14.2,12.9z"/>
	</g>
</g>
<g id="denshi-money" class="st0">
	<g class="st1">
		<path class="st2" d="M0.5,17.9c0.5,0.9,0.8,1.9,0.8,3S1,23,0.6,23.9"/>
		<path class="st2" d="M14,11.5c1.4,2.8,2.2,6,2.2,9.4s-0.8,6.5-2.2,9.3"/>
		<path class="st2" d="M25.7,6c2.2,4.5,3.4,9.5,3.4,14.9c0,5.3-1.2,10.4-3.4,14.9"/>
		<path class="st2" d="M37.8,0.2c3,6.3,4.7,13.3,4.7,20.7s-1.7,14.4-4.7,20.7"/>
	</g>
</g>
<g>
	<rect x="1" y="1.1" class="st6" width="13.6" height="13.8"/>
	<rect x="1" y="27.4" class="st6" width="13.6" height="13.8"/>
	<rect x="30.8" y="1.1" class="st6" width="13.6" height="13.8"/>
	<rect x="35.7" y="6.1" width="3.7" height="3.8"/>
	<rect x="6" y="6.1" width="3.7" height="3.8"/>
	<rect x="6" y="32.4" width="3.7" height="3.8"/>
	<line class="st6" x1="29.9" y1="21.9" x2="29.9" y2="42"/>
	<line class="st6" x1="22.9" y1="21.9" x2="22.9" y2="42"/>
	<line class="st6" x1="37" y1="21.9" x2="37" y2="42"/>
	<line class="st6" x1="44" y1="21.5" x2="44" y2="41.6"/>
</g>
</svg>
