<?xml version="1.0" encoding="utf-8"?>
<!-- Generator: Adobe Illustrator 25.0.1, SVG Export Plug-In . SVG Version: 6.00 Build 0)  -->
<svg version="1.1" xmlns="http://www.w3.org/2000/svg" xmlns:xlink="http://www.w3.org/1999/xlink" x="0px" y="0px" width="69.3px"
	 height="42.2px" viewBox="0 0 69.3 42.2" style="enable-background:new 0 0 69.3 42.2;" xml:space="preserve">
<style type="text/css">
	.st0{display:none;}
	.st1{display:inline;}
	.st2{fill:none;stroke:#333;stroke-miterlimit:10;}
	.st3{fill:#333;}
	.st4{font-family:'NotoSansCJKjp-Medium-83pv-RKSJ-H';}
	.st5{font-size:18.7526px;}
</style>
<g id="cash" class="st0">
	<g class="st1">
		<polyline class="st2" points="46.4,40.6 0.5,40.6 0.5,8.1 60.5,8.1 60.5,40.6 46.4,40.6 		"/>
		<polyline class="st2" points="7.5,0.8 67.5,0.8 67.5,33.3 		"/>
		<text transform="matrix(1 0 0 1 23.3924 31.5574)" class="st3 st4 st5">￥</text>
	</g>
</g>
<g id="creditcard" class="st0">
	<g class="st1">
		<path class="st2" d="M64.3,41H5c-2.5,0-4.5-2-4.5-4.5V5.3c0-2.5,2-4.5,4.5-4.5h59.2c2.5,0,4.5,2,4.5,4.5v31.1
			C68.8,39,66.8,41,64.3,41z"/>
		<line class="st2" x1="6.2" y1="29.2" x2="17.8" y2="29.2"/>
		<line class="st2" x1="21" y1="29.2" x2="32.6" y2="29.2"/>
		<line class="st2" x1="35.8" y1="29.2" x2="47.5" y2="29.2"/>
		<line class="st2" x1="50.7" y1="29.2" x2="62.3" y2="29.2"/>
		<path class="st2" d="M14.2,12.9H8.4c-1,0-1.9,0.9-1.9,1.9v5.8c0,1,0.9,1.9,1.9,1.9h5.8c1,0,1.9-0.9,1.9-1.9v-5.8
			C16.1,13.7,15.3,12.9,14.2,12.9z"/>
	</g>
</g>
<g id="denshi-money" class="st0">
	<g class="st1">
		<path class="st2" d="M0.5,17.9c0.5,0.9,0.8,1.9,0.8,3c0,1.1-0.3,2.1-0.7,3"/>
		<path class="st2" d="M14,11.5c1.4,2.8,2.2,6,2.2,9.4c0,3.4-0.8,6.5-2.2,9.3"/>
		<path class="st2" d="M25.7,6c2.2,4.5,3.4,9.5,3.4,14.9c0,5.3-1.2,10.4-3.4,14.9"/>
		<path class="st2" d="M37.8,0.2c3,6.3,4.7,13.3,4.7,20.7c0,7.4-1.7,14.4-4.7,20.7"/>
	</g>
</g>
<g id="qr">
	<g>
		<g>
			<path class="st3" d="M14.7,15.3H0V0.6h14.7V15.3z M1,14.3h12.7V1.6H1V14.3z"/>
			<path class="st3" d="M14.7,41.4H0V26.7h14.7V41.4z M1,40.4h12.7V27.7H1V40.4z"/>
			<path class="st3" d="M44.5,15.3H29.9V0.6h14.7V15.3z M30.9,14.3h12.7V1.6H30.9V14.3z"/>
			<rect x="35.3" y="6" class="st3" width="3.7" height="3.7"/>
			<rect x="5.5" y="6" class="st3" width="3.7" height="3.7"/>
			<rect x="5.5" y="32.2" class="st3" width="3.7" height="3.7"/>
		</g>
		<g>
			<rect x="36.1" y="34" class="st3" width="8.4" height="7.4"/>
			<rect x="27.7" y="26.6" class="st3" width="8.4" height="7.4"/>
			<rect x="19.3" y="34" class="st3" width="8.4" height="7.4"/>
			<rect x="36.1" y="19.2" class="st3" width="8.4" height="7.4"/>
			<rect x="19.3" y="19.2" class="st3" width="8.4" height="7.4"/>
		</g>
	</g>
</g>
</svg>
