<?xml version="1.0" encoding="utf-8"?>
<!-- Generator: Adobe Illustrator 25.0.1, SVG Export Plug-In . SVG Version: 6.00 Build 0)  -->
<svg version="1.1" xmlns="http://www.w3.org/2000/svg" xmlns:xlink="http://www.w3.org/1999/xlink" x="0px" y="0px" width="69.3px"
	 height="42.2px" viewBox="0 0 69.3 42.2" style="enable-background:new 0 0 69.3 42.2;" xml:space="preserve">
<style type="text/css">
	.st0{display:none;}
	.st1{display:inline;}
	.st2{fill:none;stroke:#333;stroke-miterlimit:10;}
	.st3{fill:#333;}
	.st4{font-family:'NotoSansCJKjp-Medium-83pv-RKSJ-H';}
	.st5{font-size:18.7526px;}
</style>
<g id="cash" class="st0">
	<g class="st1">
		<polyline class="st2" points="46.4,40.6 0.5,40.6 0.5,8.1 60.5,8.1 60.5,40.6 46.4,40.6 		"/>
		<polyline class="st2" points="7.5,0.8 67.5,0.8 67.5,33.3 		"/>
		<text transform="matrix(1 0 0 1 23.3924 31.5574)" class="st3 st4 st5">￥</text>
	</g>
</g>
<g id="creditcard">
	<g>
		<path class="st3" d="M64.3,41.5H5c-2.8,0-5-2.3-5-5V5.3c0-2.8,2.3-5,5-5h59.2c2.8,0,5,2.3,5,5v31.1C69.3,39.2,67.1,41.5,64.3,41.5
			z M5,1.3c-2.2,0-4,1.8-4,4v31.1c0,2.2,1.8,4,4,4h59.2c2.2,0,4-1.8,4-4V5.3c0-2.2-1.8-4-4-4H5z"/>
		<rect x="6.2" y="28.7" class="st3" width="11.6" height="1"/>
		<rect x="21" y="28.7" class="st3" width="11.6" height="1"/>
		<rect x="35.8" y="28.7" class="st3" width="11.6" height="1"/>
		<rect x="50.7" y="28.7" class="st3" width="11.6" height="1"/>
		<path class="st3" d="M14.2,22.9H8.4c-1.3,0-2.4-1.1-2.4-2.4v-5.8c0-1.3,1.1-2.4,2.4-2.4h5.8c1.3,0,2.4,1.1,2.4,2.4v5.8
			C16.6,21.9,15.5,22.9,14.2,22.9z M8.4,13.4C7.7,13.4,7,14,7,14.7v5.8c0,0.8,0.6,1.4,1.4,1.4h5.8c0.8,0,1.4-0.6,1.4-1.4v-5.8
			c0-0.8-0.6-1.4-1.4-1.4H8.4z"/>
	</g>
</g>
<g id="denshi-money" class="st0">
	<g class="st1">
		<path class="st3" d="M1,24.1l-0.9-0.5c0.4-0.8,0.7-1.8,0.7-2.7c0-1-0.2-1.9-0.7-2.8l0.9-0.5c0.5,1,0.8,2.1,0.8,3.3
			C1.8,22,1.5,23.1,1,24.1z"/>
		<path class="st3" d="M14.4,30.5L13.5,30c1.4-2.9,2.1-5.9,2.1-9.1c0-3.2-0.7-6.3-2.1-9.2l0.9-0.4c1.5,3,2.2,6.2,2.2,9.6
			C16.6,24.3,15.9,27.5,14.4,30.5z"/>
		<path class="st3" d="M26.2,36l-0.9-0.4c2.2-4.6,3.3-9.5,3.3-14.6c0-5.1-1.1-10.1-3.3-14.7l0.9-0.4c2.3,4.7,3.4,9.8,3.4,15.1
			C29.6,26.2,28.4,31.2,26.2,36z"/>
		<path class="st3" d="M38.3,41.8l-0.9-0.4C40.5,35,42,28.1,42,20.9c0-7.2-1.6-14.1-4.7-20.5L38.3,0C41.4,6.5,43,13.6,43,20.9
			C43,28.2,41.4,35.3,38.3,41.8z"/>
	</g>
</g>
<g id="qr" class="st0">
	<g class="st1">
		<g>
			<path class="st3" d="M14.7,15.3H0V0.6h14.7V15.3z M1,14.3h12.7V1.6H1V14.3z"/>
			<path class="st3" d="M14.7,41.4H0V26.7h14.7V41.4z M1,40.4h12.7V27.7H1V40.4z"/>
			<path class="st3" d="M44.5,15.3H29.9V0.6h14.7V15.3z M30.9,14.3h12.7V1.6H30.9V14.3z"/>
			<rect x="35.3" y="6" class="st3" width="3.7" height="3.7"/>
			<rect x="5.5" y="6" class="st3" width="3.7" height="3.7"/>
			<rect x="5.5" y="32.2" class="st3" width="3.7" height="3.7"/>
		</g>
		<g>
			<rect x="36.1" y="34" class="st3" width="8.4" height="7.4"/>
			<rect x="27.7" y="26.6" class="st3" width="8.4" height="7.4"/>
			<rect x="19.3" y="34" class="st3" width="8.4" height="7.4"/>
			<rect x="36.1" y="19.2" class="st3" width="8.4" height="7.4"/>
			<rect x="19.3" y="19.2" class="st3" width="8.4" height="7.4"/>
		</g>
	</g>
</g>
</svg>
